<svg width="1294" height="899" viewBox="0 0 1294 899" fill="none"
  xmlns="http://www.w3.org/2000/svg">
  <g clip-path="url(#clip0_542)">
    <path d="M64.5976 768.49V670.561C64.5976 652.722 50.137 638.262 32.2988 638.262C14.4607 638.262 0 623.801 0 605.963V374.273C0 365.871 6.81129 359.059 15.2134 359.059C23.6156 359.059 30.4269 352.248 30.4269 343.846V264.287C30.4269 252.53 39.9572 243 51.7134 243C63.4697 243 73 233.47 73 221.713V103.025C73 75.4107 95.3858 53.0249 123 53.0249H189.816C204.459 53.0249 216.329 41.1549 216.329 26.5124C216.329 11.87 228.199 0 242.841 0H402.822C410.228 0 416.231 6.00311 416.231 13.4083C416.231 20.8135 422.234 26.8166 429.639 26.8166H566.915C593.071 26.8166 614.275 48.0206 614.275 74.1769C614.275 100.333 635.479 121.537 661.635 121.537H786.003C797.038 121.537 805.984 130.483 805.984 141.519C805.984 152.554 814.93 161.5 825.966 161.5H997.694C1014.26 161.5 1027.69 174.931 1027.69 191.5C1027.69 208.069 1041.13 221.5 1057.69 221.5H1139.47C1159.37 221.5 1175.5 237.63 1175.5 257.527C1175.5 277.425 1191.63 293.555 1211.53 293.555H1243.55C1271.16 293.555 1293.55 315.941 1293.55 343.555V489.564C1293.55 513.878 1273.84 533.589 1249.53 533.589H1239.25C1220.61 533.589 1205.5 548.701 1205.5 567.342C1205.5 585.983 1190.39 601.094 1171.75 601.094H714.288C696.164 601.094 681.472 615.786 681.472 633.91C681.472 652.034 666.78 666.727 648.656 666.727H632.555C605.539 666.727 583.638 688.628 583.638 715.644V735.431C583.638 760.598 563.236 781 538.069 781H524.5C506.827 781 492.5 795.327 492.5 813C492.5 830.673 478.173 845 460.5 845H442.981C428.207 845 416.231 856.976 416.231 871.75C416.231 886.524 404.254 898.5 389.481 898.5H215.983C201.633 898.5 190 886.867 190 872.517C190 858.167 178.367 846.534 164.017 846.534H142.734C128.384 846.534 116.751 834.901 116.751 820.55C116.751 806.2 105.071 794.567 90.7211 794.567C76.3194 794.567 64.5976 782.892 64.5976 768.49Z" fill="#0F0F0F" fill-opacity="0.7"/>
  </g>
  <defs>
    <clipPath id="clip0_542">
      <rect width="1293.55" height="898.5" fill="white"/>
    </clipPath>
  </defs>
</svg>
