<svg width="1248" height="635" viewBox="0 0 1248 635" fill="none"
  xmlns="http://www.w3.org/2000/svg">
  <path d="M915.937 62.466H654.255C643.21 62.466 634.255 53.5117 634.255 42.466V36C634.255 24.9543 625.301 16 614.255 16H485.817C479.142 16 473.731 21.4107 473.731 28.0851C473.731 34.7596 468.321 40.1703 461.646 40.1703H330.973C322.557 40.1703 315.735 46.9923 315.735 55.4076C315.735 63.823 308.913 70.645 300.498 70.645H138.556C127.511 70.645 118.556 79.5993 118.556 90.645V199.553C118.556 210.599 109.602 219.553 98.5563 219.553H79.1497C68.1041 219.553 59.1497 228.508 59.1497 239.553V334.696C59.1497 342.23 65.2578 348.338 72.7924 348.338C80.3271 348.338 86.4351 354.446 86.4351 361.981V381.966C86.4351 393.012 77.4808 401.966 66.4351 401.966H23C11.9543 401.966 3 410.92 3 421.966V445.539C3 455.416 11.0067 463.423 20.8834 463.423C30.7602 463.423 38.7668 471.429 38.7668 481.306V551.852C38.7668 562.898 47.7212 571.852 58.7669 571.852H74.6509C85.6966 571.852 94.6509 580.807 94.6509 591.852V600C94.6509 611.046 103.605 620 114.651 620H367.386C373.764 620 378.934 614.83 378.934 608.452C378.934 602.075 384.104 596.905 390.481 596.905H579.01C589.187 596.905 597.437 588.655 597.437 578.478C597.437 568.301 605.687 560.051 615.864 560.051H704.466C715.511 560.051 724.466 551.097 724.466 540.051V520.943C724.466 509.898 733.42 500.943 744.466 500.943H1090.69C1101.74 500.943 1110.69 491.989 1110.69 480.943V478.871C1110.69 467.826 1119.65 458.871 1130.69 458.871H1225C1236.05 458.871 1245 449.917 1245 438.871V243.214C1245 232.168 1236.05 223.214 1225 223.214H1095.3C1084.25 223.214 1075.3 214.259 1075.3 203.214V130.399C1075.3 119.353 1066.34 110.399 1055.3 110.399H955.937C944.891 110.399 935.937 101.444 935.937 90.3985V82.466C935.937 71.4203 926.983 62.466 915.937 62.466Z" fill="black" fill-opacity="0.3"/>
  <path d="M252.517 430.643V311.359C252.517 308.825 250.463 306.771 247.929 306.771V306.771C246.595 306.771 245.514 305.689 245.514 304.356V303.712C245.514 286.494 245.576 258.008 245.612 241.979L245.612 241.964C245.625 235.697 245.635 231.338 245.635 230.306C245.635 225.718 246.782 218.837 249.841 218.837C250.955 218.837 254.305 220.264 257.623 221.818C262.861 224.272 268.536 225.718 274.32 225.718H277.289C278.726 225.718 279.37 223.916 278.257 223.006L274.609 220.02C273.861 219.408 273.861 218.265 274.609 217.653L280.127 213.138C280.874 212.527 280.874 211.383 280.127 210.771L274.609 206.257C273.861 205.645 273.861 204.501 274.609 203.889L280.127 199.375C280.874 198.763 280.874 197.62 280.127 197.008L274.609 192.493C273.861 191.881 273.861 190.738 274.609 190.126L280.127 185.611C280.874 184.999 280.874 183.856 280.127 183.244L274.609 178.729C273.861 178.118 273.861 176.974 274.609 176.362L278.257 173.377C279.37 172.467 278.726 170.664 277.289 170.664V170.664C269.683 170.664 262.437 173.511 256.254 177.94C245.048 185.967 237.1 187.984 228.813 182.134C219.189 175.34 214.935 171.952 213.748 170.879C213.598 170.743 213.406 170.664 213.203 170.664H201.747C200.309 170.664 199.666 172.467 200.778 173.377L204.427 176.362C205.175 176.974 205.175 178.118 204.427 178.729L198.909 183.244C198.161 183.856 198.161 184.999 198.909 185.611L204.427 190.126C205.175 190.738 205.175 191.881 204.427 192.493L198.909 197.008C198.161 197.62 198.161 198.763 198.909 199.375L204.427 203.889C205.175 204.501 205.175 205.645 204.427 206.257L198.909 210.771C198.161 211.383 198.161 212.527 198.909 213.138L204.427 217.653C205.175 218.265 205.175 219.408 204.427 220.02L200.778 223.006C199.666 223.916 200.309 225.718 201.747 225.718H213.356C213.464 225.718 213.571 225.695 213.67 225.651L224.559 220.751C227.383 219.48 230.661 219.16 231.915 221.992C232.758 223.895 233.401 226.662 233.401 230.306C233.401 233.285 233.384 241.219 233.362 251.144L233.362 251.152C233.327 267.725 233.28 289.845 233.28 303.712L233.28 304.598C233.28 305.798 232.307 306.771 231.107 306.771V306.771C228.573 306.771 226.519 308.825 226.519 311.359V433.702C226.519 436.235 228.573 438.289 231.107 438.289H247.27" stroke="#505050" stroke-opacity="0.3" stroke-width="5" stroke-linecap="round"/>
  <path d="M244.532 375.036L235.094 382.342M260.922 362.346L300.121 331.998C302.124 330.446 302.491 327.565 300.94 325.561V325.561C300.123 324.507 300.316 322.99 301.371 322.173L301.88 321.779C315.494 311.238 338.057 293.849 350.752 284.065L350.765 284.055C355.728 280.23 359.181 277.568 359.997 276.937C363.624 274.128 369.768 270.822 371.64 273.241C372.323 274.122 373.245 277.644 374.047 281.22C375.314 286.863 377.644 292.236 381.185 296.81L383.003 299.158C383.882 300.294 385.702 299.699 385.741 298.262L385.867 293.55C385.893 292.584 386.798 291.884 387.739 292.101L394.687 293.7C395.628 293.917 396.533 293.217 396.559 292.251L396.75 285.124C396.776 284.158 397.681 283.458 398.622 283.675L405.57 285.274C406.512 285.491 407.416 284.791 407.442 283.825L407.633 276.698C407.659 275.732 408.564 275.032 409.505 275.249L416.453 276.848C417.395 277.065 418.299 276.365 418.325 275.399L418.517 268.272C418.543 267.306 419.447 266.606 420.388 266.823L424.982 267.88C426.383 268.203 427.415 266.59 426.535 265.454V265.454C421.879 259.44 415.191 255.454 407.904 253.276C394.697 249.328 388.237 244.279 387.789 234.145C387.269 222.376 387.344 216.939 387.466 215.343C387.481 215.141 387.426 214.941 387.302 214.78L380.289 205.721C379.409 204.585 377.589 205.18 377.551 206.617L377.424 211.329C377.398 212.295 376.494 212.995 375.552 212.778L368.604 211.179C367.663 210.962 366.759 211.662 366.733 212.628L366.541 219.755C366.515 220.721 365.611 221.421 364.669 221.204L357.721 219.605C356.78 219.388 355.876 220.088 355.85 221.054L355.658 228.181C355.632 229.147 354.728 229.847 353.786 229.63L346.838 228.031C345.897 227.814 344.992 228.514 344.966 229.48L344.775 236.607C344.749 237.573 343.845 238.273 342.903 238.056L338.309 236.999C336.908 236.676 335.877 238.289 336.756 239.425L343.863 248.605C343.93 248.69 344.013 248.761 344.109 248.812L354.65 254.422C357.384 255.877 359.643 258.273 358.172 260.998C357.183 262.83 355.389 265.032 352.507 267.263C350.152 269.086 343.868 273.93 336.007 279.99L336.001 279.994C322.875 290.112 305.355 303.616 294.39 312.105L293.69 312.648C292.741 313.382 291.376 313.209 290.641 312.26V312.26C289.09 310.256 286.209 309.89 284.205 311.441L259.65 330.451M243.921 342.63L235.177 349.399M217.181 363.333L187.467 386.338C185.463 387.889 185.097 390.77 186.648 392.774L196.543 405.554C199.225 408.889 203.832 406.589 205.801 405.022L216.842 396.474" stroke="#505050" stroke-opacity="0.3" stroke-width="5" stroke-linecap="round" stroke-linejoin="round"/>
  <path d="M346.488 382.743C348.072 397.722 365.5 416.446 430.312 410.829C491.106 405.56 533.581 389.224 531.852 357.25C531.852 357.25 533.011 349.041 528.828 346.88C524.644 344.72 521.301 349.905 520.186 352.065C506.359 378.854 481.844 383.03 430.312 387.496C365.5 393.113 348.072 374.389 346.488 350.769C346.488 337.374 386.24 342.127 397.042 329.597C407.844 317.066 423.399 284.228 450.62 282.067C461.229 282.067 477.409 284.228 484.755 289.845" stroke="#505050" stroke-opacity="0.3" stroke-width="5" stroke-linecap="round"/>
  <path d="M397.042 369.786C425.127 365.465 435.497 352.503 458.83 344.293C482.162 336.083 521.482 345.173 527.099 335.224C532.716 325.276 516.729 322.684 511.976 317.067C507.223 311.45 506.791 302.376 498.149 295.028C487.347 287.685 488.643 314.904 479.57 323.546C470.496 332.188 440.682 333.064 425.559 352.07" stroke="#505050" stroke-opacity="0.3" stroke-width="5" stroke-linecap="round"/>
  <path d="M440.775 302.049C436.991 304.085 434.72 306.944 435.12 309.764C435.761 314.276 443.002 316.979 451.294 315.801C459.585 314.623 465.787 310.01 465.146 305.498C464.605 301.692 459.368 299.173 452.766 299.185" stroke="#505050" stroke-opacity="0.3" stroke-width="5" stroke-linecap="round"/>
  <g opacity="1">
    <animate attributeName="opacity" begin="0s" calcMode="discrete" dur="2s" repeatCount="indefinite" values="1;0"/>
    <path filter="url(#filter0_d)" d="M252.52 430.645V311.361C252.52 308.827 250.466 306.773 247.932 306.773V306.773C246.598 306.773 245.517 305.692 245.517 304.358V303.715C245.517 286.496 245.579 258.01 245.615 241.982L245.615 241.966C245.628 235.7 245.638 231.34 245.638 230.309C245.638 225.721 246.785 218.839 249.843 218.839C252.29 218.839 265.519 225.721 265.519 225.721H277.292C278.729 225.721 279.373 223.918 278.26 223.008L274.612 220.023C273.864 219.411 273.864 218.267 274.612 217.655L280.13 213.141C280.877 212.529 280.877 211.386 280.13 210.774L274.612 206.259C273.864 205.647 273.864 204.504 274.612 203.892L280.13 199.377C280.877 198.765 280.877 197.622 280.13 197.01L274.612 192.495C273.864 191.884 273.864 190.74 274.612 190.128L280.13 185.614C280.877 185.002 280.877 183.858 280.13 183.246L274.612 178.732C273.864 178.12 273.864 176.977 274.612 176.365L278.26 173.379C279.373 172.469 278.729 170.667 277.292 170.667H265.519C249.079 184.43 239.215 189.477 228.816 182.136C219.192 175.343 214.938 171.955 213.751 170.881C213.601 170.745 213.409 170.667 213.206 170.667H201.749C200.312 170.667 199.669 172.469 200.781 173.379L204.43 176.365C205.178 176.977 205.178 178.12 204.43 178.732L198.912 183.246C198.164 183.858 198.164 185.002 198.912 185.614L204.43 190.128C205.178 190.74 205.178 191.884 204.43 192.495L198.912 197.01C198.164 197.622 198.164 198.765 198.912 199.377L204.43 203.892C205.178 204.504 205.178 205.647 204.43 206.259L198.912 210.774C198.164 211.386 198.164 212.529 198.912 213.141L204.43 217.655C205.178 218.267 205.178 219.411 204.43 220.023L200.781 223.008C199.669 223.918 200.312 225.721 201.749 225.721H213.359C213.467 225.721 213.574 225.698 213.673 225.654L222.908 221.498C226.83 219.733 231.311 219.576 232.54 223.697C233.058 225.432 233.404 227.634 233.404 230.309C233.404 233.287 233.387 241.222 233.365 251.147L233.365 251.154C233.33 267.727 233.282 289.847 233.282 303.715L233.282 304.6C233.282 305.8 232.31 306.773 231.11 306.773V306.773C228.576 306.773 226.522 308.827 226.522 311.361V433.704C226.522 436.238 228.576 438.292 231.11 438.292H247.273" stroke="#EDD713" stroke-width="5" stroke-linecap="round" stroke-linejoin="round"/>
    <path filter="url(#filter1_f)" d="M252.52 430.645V311.361C252.52 308.827 250.466 306.773 247.932 306.773H245.517V303.715C245.517 286.496 245.579 258.01 245.615 241.982L245.615 241.966C245.628 235.7 245.638 231.34 245.638 230.309C245.638 225.721 246.785 218.839 249.843 218.839C252.29 218.839 265.519 225.721 265.519 225.721H277.292C278.729 225.721 279.373 223.918 278.26 223.008L274.612 220.023C273.864 219.411 273.864 218.267 274.612 217.655L280.13 213.141C280.877 212.529 280.877 211.386 280.13 210.774L274.612 206.259C273.864 205.647 273.864 204.504 274.612 203.892L280.13 199.377C280.877 198.765 280.877 197.622 280.13 197.01L274.612 192.495C273.864 191.884 273.864 190.74 274.612 190.128L280.13 185.614C280.877 185.002 280.877 183.858 280.13 183.246L274.612 178.732C273.864 178.12 273.864 176.977 274.612 176.365L278.26 173.379C279.373 172.469 278.729 170.667 277.292 170.667H265.519C249.079 184.43 239.215 189.477 228.816 182.136C219.192 175.343 214.938 171.955 213.751 170.881C213.601 170.745 213.409 170.667 213.206 170.667H201.749C200.312 170.667 199.669 172.469 200.781 173.379L204.43 176.365C205.178 176.977 205.178 178.12 204.43 178.732L198.912 183.246C198.164 183.858 198.164 185.002 198.912 185.614L204.43 190.128C205.178 190.74 205.178 191.884 204.43 192.495L198.912 197.01C198.164 197.622 198.164 198.765 198.912 199.377L204.43 203.892C205.178 204.504 205.178 205.647 204.43 206.259L198.912 210.774C198.164 211.386 198.164 212.529 198.912 213.141L204.43 217.655C205.178 218.267 205.178 219.411 204.43 220.023L200.781 223.008C199.669 223.918 200.312 225.721 201.749 225.721H213.359C213.467 225.721 213.574 225.698 213.673 225.654L228.816 218.839C230.345 218.584 233.404 222.356 233.404 230.309C233.404 233.287 233.387 241.222 233.365 251.147L233.365 251.154C233.33 267.727 233.282 289.847 233.282 303.715L233.283 306.773H231.11C228.576 306.773 226.522 308.827 226.522 311.361V433.704C226.522 436.238 228.576 438.292 231.11 438.292H247.273" stroke="white" stroke-width="3" stroke-linecap="round"/>
    <path filter="url(#filter2_d)" d="M346.492 382.744C348.076 397.723 365.504 416.447 430.317 410.83C491.111 405.561 533.585 389.225 531.857 357.251C531.857 357.251 533.016 349.041 528.832 346.881C524.648 344.721 521.305 349.906 520.19 352.066C506.364 378.855 481.848 383.031 430.317 387.497C365.504 393.114 348.076 374.39 346.492 350.77C346.492 337.375 386.244 342.128 397.046 329.598C407.848 317.067 423.403 284.229 450.625 282.068C461.234 282.068 477.414 284.229 484.759 289.846" stroke="#ED1320" stroke-width="5" stroke-linecap="round"/>
    <path filter="url(#filter3_f)" d="M346.492 382.744C348.076 397.723 365.504 416.447 430.317 410.83C491.111 405.561 533.585 389.225 531.857 357.251C531.857 357.251 533.016 349.041 528.832 346.881C524.648 344.721 521.305 349.906 520.19 352.066C506.364 378.855 481.848 383.031 430.317 387.497C365.504 393.114 348.076 374.39 346.492 350.77C346.492 337.375 386.244 342.128 397.046 329.598C407.848 317.067 423.403 284.229 450.625 282.068C461.234 282.068 477.414 284.229 484.759 289.846" stroke="white" stroke-width="3" stroke-linecap="round"/>
    <path filter="url(#filter4_d)" d="M397.046 369.787C425.131 365.466 435.501 352.503 458.834 344.294C482.167 336.084 521.486 345.174 527.103 335.225C532.721 325.277 516.733 322.685 511.98 317.068C507.228 311.45 506.795 302.377 498.154 295.029C487.352 287.686 488.648 314.905 479.574 323.547C470.5 332.189 440.686 333.065 425.563 352.071" stroke="white" stroke-width="5" stroke-linecap="round"/>
    <path filter="url(#filter5_f)" d="M397.047 369.786C425.132 365.466 435.502 352.503 458.835 344.293C482.168 336.084 521.487 345.173 527.104 335.225C532.722 325.277 516.734 322.684 511.981 317.067C507.228 311.45 506.796 302.376 498.155 295.028C487.353 287.685 488.649 314.905 479.575 323.547C470.501 332.188 440.687 333.064 425.564 352.071" stroke="white" stroke-width="3" stroke-linecap="round"/>
    <path filter="url(#filter6_d)" d="M440.78 302.051C436.996 304.086 434.725 306.945 435.125 309.765C435.766 314.278 443.007 316.981 451.299 315.803C459.59 314.625 465.792 310.012 465.151 305.499C464.61 301.693 459.373 299.174 452.771 299.186" stroke="white" stroke-width="5" stroke-linecap="round"/>
    <path filter="url(#filter7_f)" d="M440.78 302.051C436.996 304.086 434.725 306.945 435.125 309.765C435.766 314.278 443.007 316.981 451.299 315.803C459.59 314.625 465.792 310.012 465.151 305.499C464.61 301.693 459.373 299.174 452.771 299.186" stroke="white" stroke-width="3" stroke-linecap="round"/>
  </g>
  <g opacity="0">
    <animate attributeName="opacity" begin="0s" calcMode="discrete" dur="2s" repeatCount="indefinite" values="0;1"/>
    <path filter="url(#filter8)" d="M244.534 375.039L235.096 382.346M260.924 362.35L300.122 332.001C302.126 330.45 302.493 327.568 300.942 325.565V325.565C300.125 324.51 300.318 322.993 301.373 322.177L301.882 321.783C315.496 311.242 338.059 293.853 350.754 284.068L350.767 284.059C355.73 280.233 359.183 277.572 359.999 276.941C363.626 274.132 369.77 270.826 371.642 273.244C372.325 274.125 373.247 277.648 374.049 281.223C375.316 286.867 377.646 292.24 381.187 296.813L383.005 299.161C383.884 300.298 385.704 299.703 385.742 298.266L385.869 293.553C385.895 292.588 386.799 291.888 387.741 292.104L394.689 293.704C395.63 293.92 396.535 293.22 396.561 292.254L396.752 285.128C396.778 284.162 397.683 283.462 398.624 283.678L405.572 285.278C406.513 285.494 407.418 284.794 407.444 283.828L407.635 276.702C407.661 275.736 408.566 275.036 409.507 275.253L416.455 276.852C417.397 277.069 418.301 276.369 418.327 275.403L418.518 268.276C418.544 267.31 419.449 266.61 420.39 266.827L424.984 267.884C426.385 268.207 427.417 266.594 426.537 265.458V265.458C421.881 259.444 415.193 255.457 407.906 253.279C394.699 249.332 388.239 244.283 387.791 234.148C387.271 222.38 387.346 216.942 387.468 215.347C387.483 215.144 387.428 214.944 387.304 214.784L380.291 205.725C379.411 204.589 377.591 205.184 377.553 206.62L377.426 211.333C377.4 212.299 376.496 212.999 375.554 212.782L368.606 211.183C367.665 210.966 366.76 211.666 366.735 212.632L366.543 219.759C366.517 220.725 365.613 221.425 364.671 221.208L357.723 219.609C356.782 219.392 355.877 220.092 355.851 221.058L355.66 228.185C355.634 229.151 354.73 229.851 353.788 229.634L346.84 228.035C345.899 227.818 344.994 228.518 344.968 229.484L344.777 236.611C344.751 237.576 343.846 238.276 342.905 238.06L338.311 237.002C336.91 236.68 335.879 238.292 336.758 239.429L343.865 248.608C343.932 248.694 344.015 248.764 344.111 248.815L354.652 254.426C357.386 255.881 359.645 258.277 358.174 261.002C357.185 262.834 355.391 265.035 352.509 267.267C350.154 269.09 343.869 273.934 336.009 279.993L336.003 279.998C322.877 290.115 305.357 303.62 294.392 312.109L293.691 312.651C292.743 313.386 291.378 313.212 290.643 312.263V312.263C289.092 310.26 286.21 309.893 284.207 311.444L259.652 330.455M243.923 342.633L235.179 349.403M217.182 363.336L187.469 386.341C185.465 387.892 185.099 390.774 186.65 392.778L196.545 405.558C199.226 408.892 203.834 406.592 205.803 405.026L216.844 396.477" stroke="#EDD713" stroke-width="5" stroke-linecap="round" stroke-linejoin="round"/>
    <path filter="url(#filter9)" d="M244.534 375.039L235.096 382.346M260.924 362.35L300.122 332.001C302.126 330.45 302.493 327.568 300.942 325.565L299.463 323.655L301.882 321.783C315.496 311.242 338.059 293.853 350.754 284.068L350.767 284.059C355.73 280.233 359.183 277.572 359.999 276.941C363.626 274.132 369.77 270.826 371.642 273.244C373.14 275.179 375.797 289.852 375.797 289.852L383.005 299.161C383.884 300.298 385.704 299.703 385.742 298.266L385.869 293.553C385.895 292.588 386.799 291.888 387.741 292.104L394.689 293.704C395.63 293.92 396.535 293.22 396.561 292.254L396.752 285.128C396.778 284.162 397.683 283.462 398.624 283.678L405.572 285.278C406.513 285.494 407.418 284.794 407.444 283.828L407.635 276.702C407.661 275.736 408.566 275.036 409.507 275.253L416.455 276.852C417.397 277.069 418.301 276.369 418.327 275.403L418.518 268.276C418.544 267.31 419.449 266.61 420.39 266.827L424.984 267.884C426.385 268.207 427.417 266.594 426.537 265.458L419.329 256.148C398.382 251.575 388.353 246.865 387.791 234.148C387.271 222.38 387.346 216.942 387.468 215.347C387.483 215.144 387.428 214.944 387.304 214.784L380.291 205.725C379.411 204.589 377.591 205.184 377.553 206.62L377.426 211.333C377.4 212.299 376.496 212.999 375.554 212.782L368.606 211.183C367.665 210.966 366.76 211.666 366.735 212.632L366.543 219.759C366.517 220.725 365.613 221.425 364.671 221.208L357.723 219.609C356.782 219.392 355.877 220.092 355.851 221.058L355.66 228.185C355.634 229.151 354.73 229.851 353.788 229.634L346.84 228.035C345.899 227.818 344.994 228.518 344.968 229.484L344.777 236.611C344.751 237.576 343.846 238.276 342.905 238.06L338.311 237.002C336.91 236.68 335.879 238.292 336.758 239.429L343.865 248.608C343.932 248.694 344.015 248.764 344.111 248.815L358.769 256.617C359.907 257.671 358.797 262.398 352.509 267.267C350.154 269.09 343.869 273.934 336.009 279.993L336.003 279.998C322.877 290.115 305.357 303.62 294.392 312.109L291.973 313.981L290.643 312.263C289.092 310.26 286.21 309.893 284.207 311.444L259.652 330.455M243.923 342.633L235.179 349.403M217.182 363.336L187.469 386.341C185.465 387.892 185.099 390.774 186.65 392.778L196.545 405.558C199.226 408.892 203.834 406.592 205.803 405.026L216.844 396.477" stroke="white" stroke-width="3" stroke-linecap="round"/>
    <path filter="url(#filter10)" d="M346.492 382.744C348.076 397.723 365.504 416.447 430.317 410.83C491.111 405.561 533.585 389.226 531.857 357.251C531.857 357.251 533.016 349.042 528.832 346.881C524.648 344.721 521.305 349.906 520.19 352.066C506.364 378.856 481.848 383.031 430.317 387.497C365.504 393.114 348.076 374.391 346.492 350.77C346.492 337.375 386.244 342.128 397.046 329.598C407.848 317.067 423.403 284.229 450.625 282.069C461.234 282.069 477.414 284.229 484.759 289.846" stroke="#ED1320" stroke-width="5" stroke-linecap="round"/>
    <path filter="url(#filter11)" d="M346.492 382.744C348.076 397.723 365.504 416.447 430.317 410.83C491.111 405.561 533.585 389.226 531.857 357.251C531.857 357.251 533.016 349.042 528.832 346.881C524.648 344.721 521.305 349.906 520.19 352.066C506.364 378.856 481.848 383.031 430.317 387.497C365.504 393.114 348.076 374.391 346.492 350.77C346.492 337.375 386.244 342.128 397.046 329.598C407.848 317.067 423.403 284.229 450.625 282.069C461.234 282.069 477.414 284.229 484.759 289.846" stroke="white" stroke-width="3" stroke-linecap="round"/>
    <path filter="url(#filter12)" d="M397.047 369.787C425.132 365.466 435.502 352.503 458.835 344.294C482.168 336.084 521.487 345.173 527.104 335.225C532.722 325.277 516.734 322.684 511.981 317.067C507.228 311.45 506.796 302.376 498.155 295.029C487.353 287.685 488.649 314.905 479.575 323.547C470.501 332.189 440.687 333.065 425.564 352.071" stroke="white" stroke-width="5" stroke-linecap="round"/>
    <path filter="url(#filter13)" d="M397.047 369.787C425.132 365.466 435.502 352.503 458.835 344.294C482.168 336.084 521.487 345.173 527.104 335.225C532.722 325.277 516.734 322.684 511.981 317.067C507.228 311.45 506.796 302.376 498.155 295.029C487.353 287.685 488.649 314.905 479.575 323.547C470.501 332.189 440.687 333.065 425.564 352.071" stroke="white" stroke-width="3" stroke-linecap="round"/>
    <path filter="url(#filter14)" d="M440.781 302.05C436.997 304.086 434.725 306.945 435.126 309.765C435.767 314.277 443.008 316.98 451.3 315.802C459.591 314.624 465.793 310.011 465.152 305.499C464.611 301.692 459.374 299.173 452.772 299.185" stroke="white" stroke-width="5" stroke-linecap="round"/>
    <path filter="url(#filter15)" d="M440.781 302.05C436.997 304.086 434.725 306.945 435.126 309.765C435.767 314.277 443.008 316.98 451.3 315.802C459.591 314.624 465.793 310.011 465.152 305.499C464.611 301.692 459.374 299.173 452.772 299.185" stroke="white" stroke-width="3" stroke-linecap="round"/>

  </g>
  <defs>
    <filter id="filter0_d" x="173.851" y="146.167" width="131.34" height="316.625" filterUnits="userSpaceOnUse" color-interpolation-filters="sRGB">
      <feFlood flood-opacity="0" result="BackgroundImageFix"/>
      <feColorMatrix in="SourceAlpha" type="matrix" values="0 0 0 0 0 0 0 0 0 0 0 0 0 0 0 0 0 0 127 0" result="hardAlpha"/>
      <feOffset/>
      <feGaussianBlur stdDeviation="11"/>
      <feComposite in2="hardAlpha" operator="out"/>
      <feColorMatrix type="matrix" values="0 0 0 0 0.929167 0 0 0 0 0.843606 0 0 0 0 0.073559 0 0 0 0.94 0"/>
      <feBlend mode="normal" in2="BackgroundImageFix" result="effect1_dropShadow"/>
      <feBlend mode="normal" in="SourceGraphic" in2="effect1_dropShadow" result="shape"/>
    </filter>
    <filter id="filter1_f" x="194.851" y="167.167" width="89.3398" height="274.625" filterUnits="userSpaceOnUse" color-interpolation-filters="sRGB">
      <feFlood flood-opacity="0" result="BackgroundImageFix"/>
      <feBlend mode="normal" in="SourceGraphic" in2="BackgroundImageFix" result="shape"/>
      <feGaussianBlur stdDeviation="1" result="effect1_foregroundBlur"/>
    </filter>
    <filter id="filter2_d" x="331.992" y="267.568" width="214.512" height="158.782" filterUnits="userSpaceOnUse" color-interpolation-filters="sRGB">
      <feFlood flood-opacity="0" result="BackgroundImageFix"/>
      <feColorMatrix in="SourceAlpha" type="matrix" values="0 0 0 0 0 0 0 0 0 0 0 0 0 0 0 0 0 0 127 0" result="hardAlpha"/>
      <feOffset/>
      <feGaussianBlur stdDeviation="6"/>
      <feComposite in2="hardAlpha" operator="out"/>
      <feColorMatrix type="matrix" values="0 0 0 0 0.929412 0 0 0 0 0.0745098 0 0 0 0 0.12549 0 0 0 0.94 0"/>
      <feBlend mode="normal" in2="BackgroundImageFix" result="effect1_dropShadow"/>
      <feBlend mode="normal" in="SourceGraphic" in2="effect1_dropShadow" result="shape"/>
    </filter>
    <filter id="filter3_f" x="342.992" y="278.568" width="192.512" height="136.782" filterUnits="userSpaceOnUse" color-interpolation-filters="sRGB">
      <feFlood flood-opacity="0" result="BackgroundImageFix"/>
      <feBlend mode="normal" in="SourceGraphic" in2="BackgroundImageFix" result="shape"/>
      <feGaussianBlur stdDeviation="1" result="effect1_foregroundBlur"/>
    </filter>
    <filter id="filter4_d" x="372.546" y="269.286" width="180.239" height="125.001" filterUnits="userSpaceOnUse" color-interpolation-filters="sRGB">
      <feFlood flood-opacity="0" result="BackgroundImageFix"/>
      <feColorMatrix in="SourceAlpha" type="matrix" values="0 0 0 0 0 0 0 0 0 0 0 0 0 0 0 0 0 0 127 0" result="hardAlpha"/>
      <feOffset/>
      <feGaussianBlur stdDeviation="11"/>
      <feComposite in2="hardAlpha" operator="out"/>
      <feColorMatrix type="matrix" values="0 0 0 0 1 0 0 0 0 1 0 0 0 0 1 0 0 0 0.73 0"/>
      <feBlend mode="normal" in2="BackgroundImageFix" result="effect1_dropShadow"/>
      <feBlend mode="normal" in="SourceGraphic" in2="effect1_dropShadow" result="shape"/>
    </filter>
    <filter id="filter5_f" x="393.547" y="290.285" width="138.239" height="83.0015" filterUnits="userSpaceOnUse" color-interpolation-filters="sRGB">
      <feFlood flood-opacity="0" result="BackgroundImageFix"/>
      <feBlend mode="normal" in="SourceGraphic" in2="BackgroundImageFix" result="shape"/>
      <feGaussianBlur stdDeviation="1" result="effect1_foregroundBlur"/>
    </filter>
    <filter id="filter6_d" x="410.576" y="274.686" width="79.1221" height="65.8926" filterUnits="userSpaceOnUse" color-interpolation-filters="sRGB">
      <feFlood flood-opacity="0" result="BackgroundImageFix"/>
      <feColorMatrix in="SourceAlpha" type="matrix" values="0 0 0 0 0 0 0 0 0 0 0 0 0 0 0 0 0 0 127 0" result="hardAlpha"/>
      <feOffset/>
      <feGaussianBlur stdDeviation="11"/>
      <feComposite in2="hardAlpha" operator="out"/>
      <feColorMatrix type="matrix" values="0 0 0 0 1 0 0 0 0 1 0 0 0 0 1 0 0 0 0.73 0"/>
      <feBlend mode="normal" in2="BackgroundImageFix" result="effect1_dropShadow"/>
      <feBlend mode="normal" in="SourceGraphic" in2="effect1_dropShadow" result="shape"/>
    </filter>
    <filter id="filter7_f" x="431.578" y="295.686" width="37.1191" height="23.8926" filterUnits="userSpaceOnUse" color-interpolation-filters="sRGB">
      <feFlood flood-opacity="0" result="BackgroundImageFix"/>
      <feBlend mode="normal" in="SourceGraphic" in2="BackgroundImageFix" result="shape"/>
      <feGaussianBlur stdDeviation="1" result="effect1_foregroundBlur"/>
    </filter>
    <filter id="filter8" x="161.189" y="180.625" width="290.183" height="251.14" filterUnits="userSpaceOnUse" color-interpolation-filters="sRGB">
      <feFlood flood-opacity="0" result="BackgroundImageFix"/>
      <feColorMatrix in="SourceAlpha" type="matrix" values="0 0 0 0 0 0 0 0 0 0 0 0 0 0 0 0 0 0 127 0" result="hardAlpha"/>
      <feOffset/>
      <feGaussianBlur stdDeviation="11"/>
      <feComposite in2="hardAlpha" operator="out"/>
      <feColorMatrix type="matrix" values="0 0 0 0 0.929167 0 0 0 0 0.843606 0 0 0 0 0.073559 0 0 0 0.94 0"/>
      <feBlend mode="normal" in2="BackgroundImageFix" result="effect1_dropShadow"/>
      <feBlend mode="normal" in="SourceGraphic" in2="effect1_dropShadow" result="shape"/>
    </filter>
    <filter id="filter9" x="182.189" y="201.627" width="248.179" height="209.139" filterUnits="userSpaceOnUse" color-interpolation-filters="sRGB">
      <feFlood flood-opacity="0" result="BackgroundImageFix"/>
      <feBlend mode="normal" in="SourceGraphic" in2="BackgroundImageFix" result="shape"/>
      <feGaussianBlur stdDeviation="1" result="effect1_foregroundBlur"/>
    </filter>
    <filter id="filter10" x="331.992" y="267.569" width="214.512" height="158.782" filterUnits="userSpaceOnUse" color-interpolation-filters="sRGB">
      <feFlood flood-opacity="0" result="BackgroundImageFix"/>
      <feColorMatrix in="SourceAlpha" type="matrix" values="0 0 0 0 0 0 0 0 0 0 0 0 0 0 0 0 0 0 127 0" result="hardAlpha"/>
      <feOffset/>
      <feGaussianBlur stdDeviation="6"/>
      <feComposite in2="hardAlpha" operator="out"/>
      <feColorMatrix type="matrix" values="0 0 0 0 0.929412 0 0 0 0 0.0745098 0 0 0 0 0.12549 0 0 0 0.94 0"/>
      <feBlend mode="normal" in2="BackgroundImageFix" result="effect1_dropShadow"/>
      <feBlend mode="normal" in="SourceGraphic" in2="effect1_dropShadow" result="shape"/>
    </filter>
    <filter id="filter11" x="342.992" y="278.569" width="192.512" height="136.782" filterUnits="userSpaceOnUse" color-interpolation-filters="sRGB">
      <feFlood flood-opacity="0" result="BackgroundImageFix"/>
      <feBlend mode="normal" in="SourceGraphic" in2="BackgroundImageFix" result="shape"/>
      <feGaussianBlur stdDeviation="1" result="effect1_foregroundBlur"/>
    </filter>
    <filter id="filter12" x="372.547" y="269.285" width="180.239" height="125.001" filterUnits="userSpaceOnUse" color-interpolation-filters="sRGB">
      <feFlood flood-opacity="0" result="BackgroundImageFix"/>
      <feColorMatrix in="SourceAlpha" type="matrix" values="0 0 0 0 0 0 0 0 0 0 0 0 0 0 0 0 0 0 127 0" result="hardAlpha"/>
      <feOffset/>
      <feGaussianBlur stdDeviation="11"/>
      <feComposite in2="hardAlpha" operator="out"/>
      <feColorMatrix type="matrix" values="0 0 0 0 1 0 0 0 0 1 0 0 0 0 1 0 0 0 0.73 0"/>
      <feBlend mode="normal" in2="BackgroundImageFix" result="effect1_dropShadow"/>
      <feBlend mode="normal" in="SourceGraphic" in2="effect1_dropShadow" result="shape"/>
    </filter>
    <filter id="filter13" x="393.547" y="290.285" width="138.239" height="83.0015" filterUnits="userSpaceOnUse" color-interpolation-filters="sRGB">
      <feFlood flood-opacity="0" result="BackgroundImageFix"/>
      <feBlend mode="normal" in="SourceGraphic" in2="BackgroundImageFix" result="shape"/>
      <feGaussianBlur stdDeviation="1" result="effect1_foregroundBlur"/>
    </filter>
    <filter id="filter14" x="410.577" y="274.685" width="79.1221" height="65.8926" filterUnits="userSpaceOnUse" color-interpolation-filters="sRGB">
      <feFlood flood-opacity="0" result="BackgroundImageFix"/>
      <feColorMatrix in="SourceAlpha" type="matrix" values="0 0 0 0 0 0 0 0 0 0 0 0 0 0 0 0 0 0 127 0" result="hardAlpha"/>
      <feOffset/>
      <feGaussianBlur stdDeviation="11"/>
      <feComposite in2="hardAlpha" operator="out"/>
      <feColorMatrix type="matrix" values="0 0 0 0 1 0 0 0 0 1 0 0 0 0 1 0 0 0 0.73 0"/>
      <feBlend mode="normal" in2="BackgroundImageFix" result="effect1_dropShadow"/>
      <feBlend mode="normal" in="SourceGraphic" in2="effect1_dropShadow" result="shape"/>
    </filter>
    <filter id="filter15" x="431.579" y="295.685" width="37.1191" height="23.8926" filterUnits="userSpaceOnUse" color-interpolation-filters="sRGB">
      <feFlood flood-opacity="0" result="BackgroundImageFix"/>
      <feBlend mode="normal" in="SourceGraphic" in2="BackgroundImageFix" result="shape"/>
      <feGaussianBlur stdDeviation="1" result="effect1_foregroundBlur"/>
    </filter>
  </defs>
</svg>
