<svg width="1294" height="899" viewBox="0 0 1294 899" fill="none"
  xmlns="http://www.w3.org/2000/svg">
  <g clip-path="url(#clip0_542)">
    <path d="M64.5976 768.49V670.561C64.5976 652.722 50.137 638.262 32.2988 638.262C14.4607 638.262 0 623.801 0 605.963V374.273C0 365.871 6.81129 359.059 15.2134 359.059C23.6156 359.059 30.4269 352.248 30.4269 343.846V264.287C30.4269 252.53 39.9572 243 51.7134 243C63.4697 243 73 233.47 73 221.713V103.025C73 75.4107 95.3858 53.0249 123 53.0249H189.816C204.459 53.0249 216.329 41.1549 216.329 26.5124C216.329 11.87 228.199 0 242.841 0H402.822C410.228 0 416.231 6.00311 416.231 13.4083C416.231 20.8135 422.234 26.8166 429.639 26.8166H566.915C593.071 26.8166 614.275 48.0206 614.275 74.1769C614.275 100.333 635.479 121.537 661.635 121.537H786.003C797.038 121.537 805.984 130.483 805.984 141.519C805.984 152.554 814.93 161.5 825.966 161.5H997.694C1014.26 161.5 1027.69 174.931 1027.69 191.5C1027.69 208.069 1041.13 221.5 1057.69 221.5H1139.47C1159.37 221.5 1175.5 237.63 1175.5 257.527C1175.5 277.425 1191.63 293.555 1211.53 293.555H1243.55C1271.16 293.555 1293.55 315.941 1293.55 343.555V489.564C1293.55 513.878 1273.84 533.589 1249.53 533.589H1239.25C1220.61 533.589 1205.5 548.701 1205.5 567.342C1205.5 585.983 1190.39 601.094 1171.75 601.094H714.288C696.164 601.094 681.472 615.786 681.472 633.91C681.472 652.034 666.78 666.727 648.656 666.727H632.555C605.539 666.727 583.638 688.628 583.638 715.644V735.431C583.638 760.598 563.236 781 538.069 781H524.5C506.827 781 492.5 795.327 492.5 813C492.5 830.673 478.173 845 460.5 845H442.981C428.207 845 416.231 856.976 416.231 871.75C416.231 886.524 404.254 898.5 389.481 898.5H215.983C201.633 898.5 190 886.867 190 872.517C190 858.167 178.367 846.534 164.017 846.534H142.734C128.384 846.534 116.751 834.901 116.751 820.55C116.751 806.2 105.071 794.567 90.7211 794.567C76.3194 794.567 64.5976 782.892 64.5976 768.49Z" fill="#0F0F0F" fill-opacity="0.7"/>
    <g opacity="0.1">
      <path d="M411 144.5L350.197 114.099C344.425 111.212 337.614 111.289 331.908 114.304L228.655 168.869C222.101 172.333 218 179.138 218 186.552V273.5V273.5C218 278.194 214.194 282 209.5 282H200.5C190.835 282 183 289.835 183 299.5V387C183 398.046 174.046 407 163 407H130C118.954 407 110 415.954 110 427V436.5C110 444.508 103.508 451 95.5 451V451C87.4919 451 81 457.492 81 465.5V511.5" stroke="white" stroke-width="4" stroke-linecap="round" stroke-linejoin="round"/>
      <path d="M292 283.5V194C292 182.954 283.046 174 272 174H266M148 396V325.5V318.5C148 307.454 156.954 298.5 168 298.5H170.75M148 418.5V541M288 736V731.75C288 726.365 283.635 722 278.25 722V722C272.865 722 268.5 717.635 268.5 712.25V630.75C268.5 625.365 272.865 621 278.25 621V621C283.635 621 288 616.635 288 611.25V603C288 593.059 279.941 585 270 585H256.5M351.5 809V795C351.5 783.954 342.546 775 331.5 775H304C295.163 775 288 767.837 288 759V759V758M233 585H168C156.954 585 148 576.046 148 565V564.5" stroke="white" stroke-width="4" stroke-linecap="round" stroke-linejoin="round"/>
      <path d="M288 830.5V817.5C288 809.492 294.492 803 302.5 803V803C310.508 803 317 796.508 317 788.5V784.75M317 763.5V708M317 685.5V681.75C317 677.746 313.754 674.5 309.75 674.5V674.5C305.746 674.5 302.5 671.254 302.5 667.25V553V472.5" stroke="white" stroke-width="4" stroke-linecap="round" stroke-linejoin="round"/>
      <path d="M366 302.5V194C366 182.954 357.046 174 346 174H339M366 395.5V414C366 424.217 374.283 432.5 384.5 432.5V432.5C394.717 432.5 403 440.783 403 451V649.5C403 654.471 398.971 658.5 394 658.5V658.5C389.029 658.5 385 662.529 385 667.5V700.5C385 711.546 393.954 720.5 405 720.5H449.5" stroke="white" stroke-width="4" stroke-linecap="round" stroke-linejoin="round"/>
      <path d="M440 377.5V194C440 182.954 431.046 174 420 174H415.5M440 404.5V439.5C440 450.546 448.954 459.5 460 459.5H464C475.046 459.5 484 468.454 484 479.5V559.5C484 570.546 475.046 579.5 464 579.5H462M440 579.5H429M391 579.5H389C377.954 579.5 369 588.454 369 599.5V677.5C369 688.546 360.046 697.5 349 697.5H264C252.954 697.5 244 706.454 244 717.5V772" stroke="white" stroke-width="4" stroke-linecap="round" stroke-linejoin="round"/>
      <path d="M230 183.5V267V284M82 554H151C162.046 554 171 545.046 171 534V507M171 486V486C171 478.268 177.268 472 185 472H186C194.284 472 201 465.284 201 457V393V377C201 368.992 207.492 362.5 215.5 362.5V362.5C223.508 362.5 230 356.008 230 348V312" stroke="white" stroke-width="4" stroke-linecap="round" stroke-linejoin="round"/>
      <path d="M378 396.5V414.5M378 443.5V510.5C378 518.232 384.268 524.5 392 524.5H393M413 524.5H430C441.046 524.5 450 533.454 450 544.5V633.5M402.5 793.5V734M450 660.5V667.5C450 674.68 444.18 680.5 437 680.5H415.5C408.32 680.5 402.5 686.32 402.5 693.5V707" stroke="white" stroke-width="4" stroke-linecap="round" stroke-linejoin="round"/>
      <path d="M452 190V308.5C452 319.546 460.954 328.5 472 328.5H473C483.493 328.5 492 337.007 492 347.5V347.5C492 357.993 500.507 366.5 511 366.5H528C539.046 366.5 548 375.454 548 386.5V539.5C548 547.232 554.268 553.5 562 553.5V553.5C569.732 553.5 576 559.768 576 567.5V597" stroke="white" stroke-width="4" stroke-linecap="round" stroke-linejoin="round"/>
      <path d="M304.5 283.5V225.75V185" stroke="white" stroke-width="4" stroke-linecap="round" stroke-linejoin="round"/>
      <path d="M378 187.5V281C378 290.665 385.835 298.5 395.5 298.5V298.5C405.165 298.5 413 306.335 413 316V370.5C413 381.546 421.954 390.5 433 390.5H493C504.046 390.5 513 399.454 513 410.5V534.5V604.5C513 613.06 519.94 620 528.5 620V620C537.06 620 544 626.94 544 635.5V665" stroke="white" stroke-width="4" stroke-linecap="round" stroke-linejoin="round"/>
      <path d="M452 343V351C452 355.694 455.806 359.5 460.5 359.5V359.5C465.194 359.5 469 363.306 469 368V378M469 399.5V447.5M469 469.5V566M469 591V633" stroke="white" stroke-width="4" stroke-linecap="round" stroke-linejoin="round"/>
      <path d="M246 504.5V484.5M266.5 174H262C250.954 174 242 182.954 242 194V267V283.5M246 523.5V580C246 591.046 237.046 600 226 600H202.5C191.454 600 182.5 608.954 182.5 620V659.5M182.5 678V678C182.5 688.493 191.007 697 201.5 697H202.5C213.546 697 222.5 705.954 222.5 717V735.5M431 779.5V756C431 750.477 426.523 746 421 746H416M246 488.5V466.25C246 459.208 251.708 453.5 258.75 453.5V453.5C265.792 453.5 271.5 447.792 271.5 440.75V344.75C271.5 336.604 264.896 330 256.75 330V330C248.604 330 242 323.396 242 315.25V312.5M222.5 732V736C222.5 741.523 226.977 746 232.5 746H233.5M252.5 746H304.5M331.75 746H391" stroke="white" stroke-width="4" stroke-linecap="round" stroke-linejoin="round"/>
      <path d="M341.5 174H336C324.954 174 316 182.954 316 194V278.5C316 289.546 307.046 298.5 296 298.5H221.5C210.454 298.5 201.5 307.454 201.5 318.5V347.5" stroke="white" stroke-width="4" stroke-linecap="round" stroke-linejoin="round"/>
      <path d="M305 401V402.5C305 413.546 296.046 422.5 285 422.5H243C231.954 422.5 223 431.454 223 442.5V475C223 486.046 214.046 495 203 495H163.5M108.5 592V566.25M108.5 540.5V515C108.5 503.954 117.454 495 128.5 495H134" stroke="white" stroke-width="4" stroke-linecap="round" stroke-linejoin="round"/>
      <path d="M316 395V439.5C316 447.232 309.732 453.5 302 453.5V453.5C294.268 453.5 288 459.768 288 467.5V495.5C288 505.165 280.165 513 270.5 513V513H251H243C231.954 513 223 521.954 223 533V571.5M223 611V648.5C223 659.546 214.046 668.5 203 668.5H158" stroke="white" stroke-width="4" stroke-linecap="round" stroke-linejoin="round"/>
      <path d="M390 283.5V194C390 182.954 398.954 174 410 174H415M390 397.5V399.5C390 407.784 396.716 414.5 405 414.5V414.5C413.284 414.5 420 421.216 420 429.5V506.5M420 540.5V625.5C420 636.546 428.954 645.5 440 645.5H493C504.046 645.5 513 654.454 513 665.5V695" stroke="white" stroke-width="4" stroke-linecap="round" stroke-linejoin="round"/>
      <path d="M512 285.5H484C472.954 285.5 464 276.546 464 265.5V194C464 182.954 472.954 174 484 174H496L341 92.5L185 174H154L341 73L512 162" stroke="white" stroke-width="4" stroke-linecap="round" stroke-linejoin="round"/>
      <path d="M348 137.5L341 126L329 145L341 151L353 146L341 164L335 156.5" stroke="white" stroke-width="4" stroke-linecap="round" stroke-linejoin="round"/>
    </g>
    <g filter="url(#filter1_df_542)">
      <path d="M351.159 651.99V495.994C351.159 492.681 348.473 489.995 345.16 489.995V489.995C343.415 489.995 342.001 488.581 342.001 486.836V485.995C342.001 463.478 342.083 426.224 342.129 405.263L342.129 405.243C342.147 397.048 342.16 391.347 342.16 389.998C342.16 383.998 343.66 374.998 347.66 374.998C350.375 374.998 363.24 381.477 367.077 383.441C367.792 383.807 368.578 383.998 369.382 383.998H383.556C385.435 383.998 386.277 381.64 384.822 380.45L380.051 376.546C379.073 375.746 379.073 374.25 380.051 373.45L387.266 367.546C388.245 366.746 388.245 365.251 387.266 364.45L380.051 358.547C379.073 357.746 379.073 356.251 380.051 355.451L387.266 349.547C388.245 348.747 388.245 347.251 387.266 346.451L380.051 340.547C379.073 339.747 379.073 338.251 380.051 337.451L387.266 331.547C388.245 330.747 388.245 329.252 387.266 328.452L380.051 322.548C379.073 321.747 379.073 320.252 380.051 319.452L384.822 315.548C386.277 314.358 385.435 312 383.556 312V312C373.609 312 364.133 315.724 356.047 321.515C341.392 332.012 330.998 334.65 320.16 327C307.575 318.116 302.012 313.685 300.46 312.281C300.263 312.103 300.012 312 299.747 312H284.764C282.885 312 282.043 314.358 283.498 315.548L288.27 319.452C289.247 320.252 289.247 321.747 288.269 322.548L281.054 328.452C280.076 329.252 280.076 330.747 281.054 331.547L288.27 337.451C289.247 338.251 289.247 339.747 288.269 340.547L281.054 346.451C280.076 347.251 280.076 348.747 281.054 349.547L288.27 355.451C289.247 356.251 289.247 357.746 288.269 358.547L281.054 364.45C280.076 365.251 280.076 366.746 281.054 367.546L288.27 373.45C289.247 374.25 289.247 375.746 288.269 376.546L283.498 380.45C282.043 381.64 282.885 383.998 284.764 383.998H299.946C300.088 383.998 300.228 383.968 300.357 383.91L319.57 375.264C319.962 375.087 320.388 374.928 320.8 375.052C322.905 375.684 326.16 380.616 326.16 389.998C326.16 393.893 326.138 404.269 326.11 417.249L326.11 417.259C326.064 438.932 326.002 467.86 326.002 485.995L326.002 487.153C326.002 488.722 324.73 489.995 323.16 489.995V489.995C319.847 489.995 317.161 492.681 317.161 495.994V655.99C317.161 659.303 319.847 661.989 323.16 661.989H344.298" stroke="#AD00FF" stroke-width="5" stroke-linecap="round"/>
    </g>
    <g filter="url(#filter2_f_542)">
      <path d="M351.159 651.99V495.994C351.159 492.681 348.473 489.995 345.16 489.995V489.995C343.415 489.995 342.001 488.581 342.001 486.836V485.995C342.001 463.478 342.083 426.224 342.129 405.263L342.129 405.243C342.147 397.048 342.16 391.347 342.16 389.998C342.16 383.998 343.66 374.998 347.66 374.998C350.375 374.998 363.24 381.477 367.077 383.441C367.792 383.807 368.578 383.998 369.382 383.998H383.556C385.435 383.998 386.277 381.64 384.822 380.45L380.051 376.546C379.073 375.746 379.073 374.25 380.051 373.45L387.266 367.546C388.245 366.746 388.245 365.251 387.266 364.45L380.051 358.547C379.073 357.746 379.073 356.251 380.051 355.451L387.266 349.547C388.245 348.747 388.245 347.251 387.266 346.451L380.051 340.547C379.073 339.747 379.073 338.251 380.051 337.451L387.266 331.547C388.245 330.747 388.245 329.252 387.266 328.452L380.051 322.548C379.073 321.747 379.073 320.252 380.051 319.452L384.822 315.548C386.277 314.358 385.435 312 383.556 312V312C373.609 312 364.133 315.724 356.047 321.515C341.392 332.012 330.998 334.65 320.16 327C307.575 318.116 302.012 313.685 300.46 312.281C300.263 312.103 300.012 312 299.747 312H284.764C282.885 312 282.043 314.358 283.498 315.548L288.27 319.452C289.247 320.252 289.247 321.747 288.269 322.548L281.054 328.452C280.076 329.252 280.076 330.747 281.054 331.547L288.27 337.451C289.247 338.251 289.247 339.747 288.269 340.547L281.054 346.451C280.076 347.251 280.076 348.747 281.054 349.547L288.27 355.451C289.247 356.251 289.247 357.746 288.269 358.547L281.054 364.45C280.076 365.251 280.076 366.746 281.054 367.546L288.27 373.45C289.247 374.25 289.247 375.746 288.269 376.546L283.498 380.45C282.043 381.64 282.885 383.998 284.764 383.998H299.946C300.088 383.998 300.228 383.968 300.357 383.91L319.57 375.264C319.962 375.087 320.388 374.928 320.8 375.052C322.905 375.684 326.16 380.616 326.16 389.998C326.16 393.893 326.138 404.269 326.11 417.249L326.11 417.259C326.064 438.932 326.002 467.86 326.002 485.995L326.002 487.153C326.002 488.722 324.73 489.995 323.16 489.995V489.995C319.847 489.995 317.161 492.681 317.161 495.994V655.99C317.161 659.303 319.847 661.989 323.16 661.989H344.298" stroke="white" stroke-width="3" stroke-linecap="round"/>
    </g>
  </g>
  <defs>
    <filter id="filter1_df_542" x="255.82" y="287.5" width="156.68" height="398.989" filterUnits="userSpaceOnUse" color-interpolation-filters="sRGB">
      <feFlood flood-opacity="0" result="BackgroundImageFix"/>
      <feColorMatrix in="SourceAlpha" type="matrix" values="0 0 0 0 0 0 0 0 0 0 0 0 0 0 0 0 0 0 127 0" result="hardAlpha"/>
      <feOffset/>
      <feGaussianBlur stdDeviation="11"/>
      <feComposite in2="hardAlpha" operator="out"/>
      <feColorMatrix type="matrix" values="0 0 0 0 0.352941 0 0 0 0 0.247059 0 0 0 0 1 0 0 0 0.73 0"/>
      <feBlend mode="normal" in2="BackgroundImageFix" result="effect1_dropShadow_542"/>
      <feBlend mode="normal" in="SourceGraphic" in2="effect1_dropShadow_542" result="shape"/>
      <feGaussianBlur stdDeviation="1" result="effect2_foregroundBlur_542"/>
    </filter>
    <filter id="filter2_f_542" x="276.82" y="308.5" width="114.68" height="356.989" filterUnits="userSpaceOnUse" color-interpolation-filters="sRGB">
      <feFlood flood-opacity="0" result="BackgroundImageFix"/>
      <feBlend mode="normal" in="SourceGraphic" in2="BackgroundImageFix" result="shape"/>
      <feGaussianBlur stdDeviation="1" result="effect1_foregroundBlur_542"/>
    </filter>
    <clipPath id="clip0_542">
      <rect width="1293.55" height="898.5" fill="white"/>
    </clipPath>
  </defs>
</svg>
