<svg width="344" height="268" viewBox="0 0 344 268" fill="none"
  xmlns="http://www.w3.org/2000/svg">
  <path d="M103.657 242.552L103.657 149.526C103.657 147.55 102.056 145.948 100.08 145.948V145.948C99.0393 145.948 98.196 145.104 98.196 144.064V143.562C98.196 130.134 98.2448 107.919 98.2723 95.4189L98.2723 95.4066C98.2831 90.5196 98.2905 87.12 98.2905 86.3154C98.2905 82.7374 99.185 77.3705 101.57 77.3705C102.24 77.3705 103.945 78.0314 105.876 78.8894C111.162 81.2376 116.815 82.7374 122.599 82.7374H122.977C124.097 82.7374 124.599 81.3315 123.732 80.6217L120.886 78.2936C120.303 77.8164 120.303 76.9247 120.886 76.4475L125.19 72.9267C125.773 72.4495 125.773 71.5578 125.19 71.0806L120.886 67.5598C120.303 67.0826 120.303 66.1908 120.886 65.7137L125.19 62.1929C125.773 61.7157 125.773 60.8239 125.19 60.3468L120.886 56.826C120.303 56.3488 120.303 55.457 120.886 54.9798L125.19 51.4591C125.773 50.9819 125.773 50.0901 125.19 49.6129L120.886 46.0921C120.303 45.615 120.303 44.7232 120.886 44.246L123.732 41.9179C124.599 41.2081 124.097 39.8022 122.977 39.8022V39.8022C117.045 39.8022 111.394 42.0227 106.572 45.4765C97.8324 51.7361 91.6345 53.3092 85.1714 48.747C77.6661 43.4491 74.3486 40.807 73.423 39.9698C73.3057 39.8637 73.1561 39.8022 72.998 39.8022H64.0633C62.9424 39.8022 62.4406 41.2081 63.308 41.9179L66.1536 44.246C66.7368 44.7232 66.7368 45.615 66.1535 46.0921L61.8504 49.6129C61.2671 50.0901 61.2671 50.9819 61.8504 51.4591L66.1536 54.9798C66.7368 55.457 66.7368 56.3488 66.1535 56.826L61.8504 60.3468C61.2671 60.8239 61.2671 61.7157 61.8504 62.1929L66.1536 65.7137C66.7368 66.1908 66.7368 67.0826 66.1535 67.5598L61.8504 71.0806C61.2671 71.5578 61.2671 72.4495 61.8504 72.9267L66.1536 76.4475C66.7368 76.9247 66.7368 77.8164 66.1535 78.2936L63.308 80.6217C62.4406 81.3315 62.9424 82.7374 64.0633 82.7374H73.117C73.2013 82.7374 73.2847 82.7195 73.3617 82.6849L80.9177 79.2847C83.7417 78.0139 86.9819 77.8509 87.9593 80.7894C88.4267 82.1943 88.7494 84.0344 88.7494 86.3154C88.7494 88.6383 88.7361 94.8261 88.7195 102.566L88.7195 102.572C88.6918 115.497 88.6549 132.748 88.6549 143.562L88.6549 144.253C88.6549 145.189 87.8963 145.948 86.9604 145.948V145.948C84.9844 145.948 83.3825 147.55 83.3825 149.526L83.3825 244.937C83.3825 246.913 84.9844 248.515 86.9604 248.515H99.5656" stroke="#505050" stroke-opacity="0.3" stroke-width="3" stroke-linecap="round"/>
  <path d="M97.4273 199.186L90.0671 204.884M110.209 189.29L140.779 165.622C142.342 164.412 142.628 162.165 141.418 160.602V160.602C140.781 159.78 140.932 158.597 141.754 157.96L142.151 157.653C152.769 149.432 170.365 135.871 180.265 128.24L180.275 128.233C184.146 125.249 186.838 123.174 187.475 122.682C190.304 120.491 195.095 117.913 196.555 119.799C196.965 120.328 197.487 122.081 197.99 124.134C199.37 129.751 201.644 135.139 205.185 139.712L205.416 140.011C206.103 140.897 207.521 140.433 207.552 139.313L207.651 135.637C207.671 134.884 208.376 134.338 209.11 134.507L214.529 135.754C215.263 135.924 215.968 135.378 215.988 134.624L216.138 129.066C216.158 128.313 216.863 127.767 217.598 127.936L223.016 129.183C223.75 129.352 224.455 128.807 224.476 128.053L224.625 122.495C224.645 121.742 225.351 121.196 226.085 121.365L231.503 122.612C232.238 122.781 232.943 122.235 232.963 121.482L233.113 115.924C233.133 115.171 233.838 114.625 234.572 114.794L238.155 115.619C239.247 115.87 240.052 114.613 239.366 113.726V113.726C235.735 109.036 230.519 105.927 224.836 104.229C214.537 101.15 209.498 97.2125 209.149 89.3092C208.744 80.1313 208.802 75.8907 208.897 74.6463C208.909 74.4886 208.866 74.3326 208.769 74.2075L203.3 67.1428C202.614 66.2565 201.195 66.7204 201.165 67.8408L201.066 71.516C201.045 72.2693 200.34 72.8152 199.606 72.6462L194.188 71.399C193.453 71.23 192.748 71.7759 192.728 72.5292L192.578 78.0872C192.558 78.8404 191.853 79.3864 191.119 79.2173L185.7 77.9701C184.966 77.8011 184.261 78.347 184.24 79.1003L184.091 84.6583C184.071 85.4115 183.366 85.9575 182.631 85.7884L177.213 84.5412C176.479 84.3722 175.773 84.9181 175.753 85.6714L175.604 91.2294C175.583 91.9827 174.878 92.5286 174.144 92.3595L170.561 91.5348C169.469 91.2834 168.664 92.5409 169.35 93.4272L174.893 100.586C174.945 100.653 175.01 100.708 175.084 100.747L182.399 104.641C185.132 106.096 187.245 108.558 185.52 111.13C184.695 112.359 183.437 113.741 181.634 115.137C179.797 116.559 174.896 120.337 168.766 125.062L168.761 125.066C158.524 132.956 144.861 143.488 136.31 150.108L135.764 150.531C135.024 151.104 133.959 150.969 133.387 150.229V150.229C132.177 148.666 129.93 148.38 128.367 149.59L109.218 164.416M96.9506 173.913L90.1318 179.193M76.0967 190.059L52.9238 208C51.3614 209.21 51.0754 211.457 52.2851 213.019L60.0018 222.986C62.0934 225.587 65.6868 223.793 67.222 222.571L75.8329 215.905" stroke="#505050" stroke-opacity="0.3" stroke-width="3" stroke-linecap="round"/>
  <path filter="url(#filter2_d_500)" d="M176.941 205.196C178.177 216.878 191.768 231.48 242.314 227.099C289.725 222.99 322.849 210.251 321.502 185.315C321.502 185.315 322.405 178.913 319.143 177.228C315.88 175.543 313.273 179.587 312.403 181.272C301.62 202.164 282.501 205.42 242.314 208.903C191.768 213.284 178.177 198.682 176.941 180.261C176.941 169.815 207.943 173.521 216.367 163.749C224.791 153.977 236.922 128.367 258.151 126.682C266.425 126.682 279.043 128.367 284.772 132.748" stroke="#ED1320" stroke-width="4" stroke-linecap="round"/>
  <path filter="url(#filter3_f_500)" d="M176.941 205.196C178.177 216.878 191.768 231.48 242.314 227.099C289.349 223.023 322.323 210.453 321.527 185.906C321.515 185.518 321.53 185.123 321.562 184.735C321.693 183.12 321.806 178.603 319.143 177.228C315.88 175.543 313.273 179.587 312.403 181.272C301.62 202.164 282.501 205.42 242.314 208.903C191.768 213.284 178.177 198.682 176.941 180.261C176.941 169.815 207.943 173.521 216.367 163.749C224.791 153.977 236.922 128.367 258.151 126.682C266.425 126.682 279.043 128.367 284.772 132.748" stroke="white" stroke-width="3" stroke-linecap="round"/>
  <path filter="url(#filter4_d_500)" d="M216.367 195.091C238.27 191.722 246.358 181.613 264.554 175.21C282.75 168.808 313.415 175.896 317.795 168.138C322.176 160.38 309.708 158.358 306.001 153.977C302.295 149.597 301.958 142.52 295.218 136.79C286.794 131.063 287.805 152.291 280.728 159.03C273.652 165.77 250.401 166.453 238.607 181.276" stroke="white" stroke-width="5" stroke-linecap="round"/>
  <path filter="url(#filter5_f_500)" d="M216.367 195.091C238.27 191.722 246.358 181.613 264.554 175.21C282.75 168.808 313.415 175.896 317.795 168.138C322.176 160.38 309.708 158.358 306.001 153.977C302.295 149.597 301.958 142.52 295.218 136.79C286.794 131.063 287.805 152.291 280.728 159.03C273.652 165.77 250.401 166.453 238.607 181.276" stroke="white" stroke-width="3" stroke-linecap="round"/>
  <path filter="url(#filter6_d_500)" d="M250.474 142.266C247.523 143.853 245.752 146.083 246.064 148.282C246.564 151.801 252.211 153.909 258.678 152.991C265.144 152.072 269.98 148.474 269.48 144.955C269.058 141.987 264.974 140.022 259.826 140.032" stroke="white" stroke-width="5" stroke-linecap="round"/>
  <path filter="url(#filter7_f_500)" d="M250.474 142.266C247.523 143.853 245.752 146.083 246.064 148.282C246.564 151.801 252.211 153.909 258.678 152.991C265.144 152.072 269.98 148.474 269.48 144.955C269.058 141.987 264.974 140.022 259.826 140.032" stroke="white" stroke-width="3" stroke-linecap="round"/>
  <g opacity="1">
    <animate attributeName="opacity" begin="0s" calcMode="discrete" dur="2s" repeatCount="indefinite" values="1;0"/>
    <path filter="url(#filter0_d_500)" d="M97.4292 199.186L90.069 204.884M110.211 189.29L140.781 165.622C142.344 164.412 142.63 162.165 141.42 160.602V160.602C140.783 159.78 140.934 158.597 141.756 157.96L142.153 157.653C152.771 149.432 170.366 135.871 180.267 128.24L180.277 128.233C184.148 125.249 186.84 123.174 187.477 122.682C190.306 120.491 195.097 117.913 196.557 119.799C196.967 120.328 197.488 122.081 197.992 124.134C199.372 129.751 201.646 135.139 205.187 139.712L205.418 140.011C206.104 140.897 207.523 140.433 207.554 139.313L207.652 135.637C207.673 134.884 208.378 134.338 209.112 134.507L214.53 135.754C215.265 135.924 215.97 135.378 215.99 134.624L216.14 129.066C216.16 128.313 216.865 127.767 217.6 127.936L223.018 129.183C223.752 129.352 224.457 128.807 224.478 128.053L224.627 122.495C224.647 121.742 225.353 121.196 226.087 121.365L231.505 122.612C232.24 122.781 232.945 122.235 232.965 121.482L233.115 115.924C233.135 115.171 233.84 114.625 234.574 114.794L238.157 115.619C239.249 115.87 240.054 114.613 239.368 113.726V113.726C235.737 109.036 230.521 105.927 224.838 104.229C214.538 101.15 209.5 97.2125 209.151 89.3092C208.746 80.1313 208.804 75.8907 208.899 74.6463C208.911 74.4886 208.868 74.3326 208.771 74.2075L203.302 67.1428C202.616 66.2565 201.197 66.7204 201.166 67.8408L201.068 71.516C201.047 72.2693 200.342 72.8152 199.608 72.6462L194.19 71.399C193.455 71.23 192.75 71.7759 192.73 72.5292L192.58 78.0872C192.56 78.8404 191.855 79.3864 191.12 79.2173L185.702 77.9701C184.968 77.8011 184.263 78.347 184.242 79.1003L184.093 84.6583C184.073 85.4115 183.367 85.9575 182.633 85.7884L177.215 84.5412C176.48 84.3722 175.775 84.9181 175.755 85.6714L175.605 91.2294C175.585 91.9827 174.88 92.5286 174.146 92.3595L170.563 91.5348C169.471 91.2834 168.666 92.5409 169.352 93.4272L174.895 100.586C174.947 100.653 175.012 100.708 175.086 100.747L182.401 104.641C185.134 106.096 187.247 108.558 185.522 111.13C184.697 112.359 183.439 113.741 181.636 115.137C179.799 116.559 174.898 120.337 168.768 125.062L168.763 125.066C158.526 132.956 144.863 143.488 136.312 150.108L135.766 150.531C135.026 151.104 133.961 150.969 133.388 150.229V150.229C132.179 148.666 129.931 148.38 128.369 149.59L109.22 164.416M96.9525 173.913L90.1337 179.193M76.0986 190.059L52.9258 208C51.3633 209.21 51.0773 211.457 52.287 213.019L60.0038 222.986C62.0953 225.587 65.6887 223.793 67.224 222.571L75.8348 215.905" stroke="#EDD713" stroke-width="4" stroke-linecap="round" stroke-linejoin="round"/>
    <path filter="url(#filter1_f_500)" d="M97.4292 199.186L90.069 204.885M110.211 189.29L140.781 165.622C142.344 164.412 142.63 162.165 141.42 160.603V160.603C140.783 159.78 140.934 158.597 141.756 157.96L142.153 157.653C152.77 149.433 170.366 135.871 180.267 128.241L180.277 128.233C184.148 125.25 186.84 123.175 187.477 122.682C190.306 120.492 195.097 117.913 196.557 119.799C197.468 120.975 198.927 128.186 199.527 131.31C199.709 132.257 200.106 133.149 200.696 133.911L205.418 140.011C206.104 140.897 207.523 140.434 207.554 139.313L207.652 135.638C207.673 134.885 208.378 134.339 209.112 134.508L214.53 135.755C215.265 135.924 215.97 135.378 215.99 134.625L216.14 129.067C216.16 128.313 216.865 127.768 217.6 127.937L223.018 129.184C223.752 129.353 224.457 128.807 224.478 128.054L224.627 122.496C224.647 121.742 225.353 121.196 226.087 121.366L231.505 122.613C232.24 122.782 232.945 122.236 232.965 121.483L233.115 115.925C233.135 115.171 233.84 114.625 234.574 114.794L238.157 115.619C239.249 115.871 240.054 114.613 239.368 113.727L235.081 108.19C234.219 107.077 232.986 106.305 231.614 105.989C216.728 102.56 209.57 98.785 209.151 89.3096C208.746 80.1317 208.804 75.8911 208.899 74.6467C208.911 74.489 208.868 74.333 208.771 74.208L203.302 67.1432C202.616 66.2569 201.197 66.7208 201.166 67.8412L201.068 71.5165C201.047 72.2698 200.342 72.8157 199.608 72.6466L194.19 71.3994C193.455 71.2304 192.75 71.7763 192.73 72.5296L192.58 78.0876C192.56 78.8409 191.855 79.3868 191.12 79.2177L185.702 77.9705C184.968 77.8015 184.263 78.3474 184.242 79.1007L184.093 84.6587C184.073 85.412 183.367 85.9579 182.633 85.7889L177.215 84.5417C176.48 84.3726 175.775 84.9185 175.755 85.6718L175.605 91.2298C175.585 91.9831 174.88 92.529 174.146 92.36L170.563 91.5352C169.471 91.2838 168.666 92.5414 169.352 93.4276L174.895 100.587C174.947 100.653 175.012 100.708 175.086 100.748L185.832 106.467C186.287 106.71 186.759 107.02 186.813 107.533C186.966 108.978 185.662 112.021 181.636 115.138C179.799 116.56 174.898 120.337 168.768 125.063L168.763 125.066C158.526 132.957 144.863 143.488 136.312 150.109L135.766 150.532C135.026 151.105 133.961 150.969 133.388 150.229V150.229C132.179 148.667 129.931 148.381 128.369 149.59L109.22 164.416M96.9525 173.914L90.1337 179.193M76.0986 190.059L52.9258 208C51.3633 209.21 51.0773 211.457 52.287 213.02L60.0037 222.987C62.0953 225.587 65.6887 223.794 67.2239 222.572L75.8348 215.905" stroke="white" stroke-width="3" stroke-linecap="round"/>
  </g>
  <g opacity="0">
    <animate attributeName="opacity" begin="0s" calcMode="discrete" dur="2s" repeatCount="indefinite" values="0;1"/>
    <path filter="url(#filter0_d_500_4090)" d="M103.655 242.552L103.655 149.526C103.655 147.55 102.054 145.948 100.078 145.948V145.948C99.0373 145.948 98.1941 145.104 98.1941 144.064V143.562C98.1941 130.134 98.2429 107.919 98.2703 95.4189L98.2704 95.4066C98.2811 90.5196 98.2886 87.12 98.2886 86.3154C98.2886 82.7374 99.1831 77.3705 101.568 77.3705C102.238 77.3705 103.943 78.0314 105.874 78.8894C111.16 81.2376 116.813 82.7374 122.597 82.7374H122.975C124.096 82.7374 124.597 81.3315 123.73 80.6217L120.884 78.2936C120.301 77.8164 120.301 76.9247 120.884 76.4475L125.188 72.9267C125.771 72.4495 125.771 71.5578 125.188 71.0806L120.884 67.5598C120.301 67.0826 120.301 66.1908 120.884 65.7137L125.188 62.1929C125.771 61.7157 125.771 60.8239 125.188 60.3468L120.884 56.826C120.301 56.3488 120.301 55.457 120.884 54.9798L125.188 51.4591C125.771 50.9819 125.771 50.0901 125.188 49.6129L120.884 46.0921C120.301 45.615 120.301 44.7232 120.884 44.246L123.73 41.9179C124.597 41.2081 124.096 39.8022 122.975 39.8022V39.8022C117.043 39.8022 111.392 42.0227 106.57 45.4765C97.8305 51.7361 91.6325 53.3092 85.1695 48.747C77.6641 43.4491 74.3467 40.807 73.4211 39.9698C73.3038 39.8637 73.1542 39.8022 72.996 39.8022H64.0613C62.9405 39.8022 62.4386 41.2081 63.3061 41.9179L66.1516 44.246C66.7348 44.7232 66.7348 45.615 66.1516 46.0921L61.8484 49.6129C61.2652 50.0901 61.2652 50.9819 61.8484 51.4591L66.1516 54.9798C66.7348 55.457 66.7348 56.3488 66.1516 56.826L61.8484 60.3468C61.2652 60.8239 61.2652 61.7157 61.8484 62.1929L66.1516 65.7137C66.7348 66.1908 66.7348 67.0826 66.1516 67.5598L61.8484 71.0806C61.2652 71.5578 61.2652 72.4495 61.8484 72.9267L66.1516 76.4475C66.7348 76.9247 66.7348 77.8164 66.1516 78.2936L63.3061 80.6217C62.4386 81.3315 62.9405 82.7374 64.0613 82.7374H73.115C73.1994 82.7374 73.2828 82.7195 73.3597 82.6849L80.9158 79.2847C83.7398 78.0139 86.98 77.8509 87.9574 80.7894C88.4247 82.1943 88.7474 84.0344 88.7474 86.3154C88.7474 88.6383 88.7342 94.8261 88.7176 102.566L88.7176 102.572C88.6899 115.497 88.6529 132.748 88.6529 143.562L88.6529 144.253C88.653 145.189 87.8943 145.948 86.9584 145.948V145.948C84.9824 145.948 83.3805 147.55 83.3805 149.526L83.3805 244.937C83.3805 246.913 84.9824 248.515 86.9584 248.515H99.5636" stroke="#EDD713" stroke-width="4" stroke-linecap="round" stroke-linejoin="round"/>
    <path filter="url(#filter1_f_500_4090)" d="M103.655 242.552L103.655 149.526C103.655 147.55 102.054 145.948 100.078 145.948V145.948C99.0373 145.948 98.1941 145.104 98.1941 144.064V143.562C98.1941 130.134 98.2429 107.919 98.2703 95.4189L98.2704 95.4066C98.2811 90.5196 98.2886 87.12 98.2886 86.3154C98.2886 82.7374 99.1831 77.3705 101.568 77.3705C103.056 77.3705 109.651 80.6307 112.488 82.0691C113.348 82.5051 114.296 82.7374 115.26 82.7374H122.975C124.096 82.7374 124.597 81.3315 123.73 80.6217L120.884 78.2936C120.301 77.8164 120.301 76.9247 120.884 76.4475L125.188 72.9267C125.771 72.4495 125.771 71.5578 125.188 71.0806L120.884 67.5598C120.301 67.0826 120.301 66.1908 120.884 65.7137L125.188 62.1929C125.771 61.7157 125.771 60.8239 125.188 60.3468L120.884 56.826C120.301 56.3488 120.301 55.457 120.884 54.9798L125.188 51.4591C125.771 50.9819 125.771 50.0901 125.188 49.6129L120.884 46.0921C120.301 45.615 120.301 44.7232 120.884 44.246L123.73 41.9179C124.597 41.2081 124.096 39.8022 122.975 39.8022H115.973C114.565 39.8022 113.199 40.3045 112.109 41.1962C100.286 50.8675 92.9181 54.2167 85.1695 48.747C77.6641 43.4491 74.3467 40.807 73.4211 39.9698C73.3038 39.8637 73.1542 39.8022 72.996 39.8022H64.0613C62.9405 39.8022 62.4386 41.2081 63.3061 41.9179L66.1516 44.246C66.7348 44.7232 66.7348 45.615 66.1516 46.0921L61.8484 49.6129C61.2652 50.0901 61.2652 50.9819 61.8484 51.4591L66.1516 54.9798C66.7348 55.457 66.7348 56.3488 66.1516 56.826L61.8484 60.3468C61.2652 60.8239 61.2652 61.7157 61.8484 62.1929L66.1516 65.7137C66.7348 66.1908 66.7348 67.0826 66.1516 67.5598L61.8484 71.0806C61.2652 71.5578 61.2652 72.4495 61.8484 72.9267L66.1516 76.4475C66.7348 76.9247 66.7348 77.8164 66.1516 78.2936L63.3061 80.6217C62.4386 81.3315 62.9405 82.7374 64.0613 82.7374H73.115C73.1994 82.7374 73.2828 82.7195 73.3597 82.6849L84.4605 77.6896C84.9312 77.4778 85.4651 77.2952 85.9042 77.5665C87.1398 78.3297 88.7474 81.224 88.7474 86.3154C88.7474 88.6383 88.7342 94.8261 88.7176 102.566L88.7176 102.572C88.6899 115.497 88.6529 132.748 88.6529 143.562L88.6529 144.253C88.653 145.189 87.8943 145.948 86.9584 145.948V145.948C84.9824 145.948 83.3805 147.55 83.3805 149.526L83.3805 244.937C83.3805 246.913 84.9824 248.515 86.9584 248.515H99.5636" stroke="white" stroke-width="3" stroke-linecap="round"/>

  </g>
  <defs>
    <filter id="filter0_d_500_4090" x="37.4102" y="15.8022" width="112.215" height="256.713" filterUnits="userSpaceOnUse" color-interpolation-filters="sRGB">
      <feFlood flood-opacity="0" result="BackgroundImageFix"/>
      <feColorMatrix in="SourceAlpha" type="matrix" values="0 0 0 0 0 0 0 0 0 0 0 0 0 0 0 0 0 0 127 0" result="hardAlpha"/>
      <feOffset/>
      <feGaussianBlur stdDeviation="11"/>
      <feComposite in2="hardAlpha" operator="out"/>
      <feColorMatrix type="matrix" values="0 0 0 0 0.929167 0 0 0 0 0.843606 0 0 0 0 0.073559 0 0 0 0.94 0"/>
      <feBlend mode="normal" in2="BackgroundImageFix" result="effect1_dropShadow_500_4090"/>
      <feBlend mode="normal" in="SourceGraphic" in2="effect1_dropShadow_500_4090" result="shape"/>
    </filter>
    <filter id="filter1_f_500_4090" x="57.9102" y="36.3022" width="71.2148" height="215.713" filterUnits="userSpaceOnUse" color-interpolation-filters="sRGB">
      <feFlood flood-opacity="0" result="BackgroundImageFix"/>
      <feBlend mode="normal" in="SourceGraphic" in2="BackgroundImageFix" result="shape"/>
      <feGaussianBlur stdDeviation="1" result="effect1_foregroundBlur_500_4090"/>
    </filter>
    <filter id="filter0_d_500" x="27.5371" y="42.6747" width="236.092" height="205.643" filterUnits="userSpaceOnUse" color-interpolation-filters="sRGB">
      <feFlood flood-opacity="0" result="BackgroundImageFix"/>
      <feColorMatrix in="SourceAlpha" type="matrix" values="0 0 0 0 0 0 0 0 0 0 0 0 0 0 0 0 0 0 127 0" result="hardAlpha"/>
      <feOffset/>
      <feGaussianBlur stdDeviation="11"/>
      <feComposite in2="hardAlpha" operator="out"/>
      <feColorMatrix type="matrix" values="0 0 0 0 0.929167 0 0 0 0 0.843606 0 0 0 0 0.073559 0 0 0 0.94 0"/>
      <feBlend mode="normal" in2="BackgroundImageFix" result="effect1_dropShadow_500"/>
      <feBlend mode="normal" in="SourceGraphic" in2="effect1_dropShadow_500" result="shape"/>
    </filter>
    <filter id="filter1_f_500" x="48.0371" y="63.176" width="195.09" height="164.643" filterUnits="userSpaceOnUse" color-interpolation-filters="sRGB">
      <feFlood flood-opacity="0" result="BackgroundImageFix"/>
      <feBlend mode="normal" in="SourceGraphic" in2="BackgroundImageFix" result="shape"/>
      <feGaussianBlur stdDeviation="1" result="effect1_foregroundBlur_500"/>
    </filter>
    <filter id="filter2_d_500" x="162.941" y="112.682" width="172.676" height="129.213" filterUnits="userSpaceOnUse" color-interpolation-filters="sRGB">
      <feFlood flood-opacity="0" result="BackgroundImageFix"/>
      <feColorMatrix in="SourceAlpha" type="matrix" values="0 0 0 0 0 0 0 0 0 0 0 0 0 0 0 0 0 0 127 0" result="hardAlpha"/>
      <feOffset/>
      <feGaussianBlur stdDeviation="6"/>
      <feComposite in2="hardAlpha" operator="out"/>
      <feColorMatrix type="matrix" values="0 0 0 0 0.929412 0 0 0 0 0.0745098 0 0 0 0 0.12549 0 0 0 0.94 0"/>
      <feBlend mode="normal" in2="BackgroundImageFix" result="effect1_dropShadow_500"/>
      <feBlend mode="normal" in="SourceGraphic" in2="effect1_dropShadow_500" result="shape"/>
    </filter>
    <filter id="filter3_f_500" x="173.441" y="123.182" width="151.676" height="108.213" filterUnits="userSpaceOnUse" color-interpolation-filters="sRGB">
      <feFlood flood-opacity="0" result="BackgroundImageFix"/>
      <feBlend mode="normal" in="SourceGraphic" in2="BackgroundImageFix" result="shape"/>
      <feGaussianBlur stdDeviation="1" result="effect1_foregroundBlur_500"/>
    </filter>
    <filter id="filter4_d_500" x="191.867" y="111.32" width="151.35" height="108.271" filterUnits="userSpaceOnUse" color-interpolation-filters="sRGB">
      <feFlood flood-opacity="0" result="BackgroundImageFix"/>
      <feColorMatrix in="SourceAlpha" type="matrix" values="0 0 0 0 0 0 0 0 0 0 0 0 0 0 0 0 0 0 127 0" result="hardAlpha"/>
      <feOffset/>
      <feGaussianBlur stdDeviation="11"/>
      <feComposite in2="hardAlpha" operator="out"/>
      <feColorMatrix type="matrix" values="0 0 0 0 1 0 0 0 0 1 0 0 0 0 1 0 0 0 0.73 0"/>
      <feBlend mode="normal" in2="BackgroundImageFix" result="effect1_dropShadow_500"/>
      <feBlend mode="normal" in="SourceGraphic" in2="effect1_dropShadow_500" result="shape"/>
    </filter>
    <filter id="filter5_f_500" x="212.867" y="132.32" width="109.35" height="66.2714" filterUnits="userSpaceOnUse" color-interpolation-filters="sRGB">
      <feFlood flood-opacity="0" result="BackgroundImageFix"/>
      <feBlend mode="normal" in="SourceGraphic" in2="BackgroundImageFix" result="shape"/>
      <feGaussianBlur stdDeviation="1" result="effect1_foregroundBlur_500"/>
    </filter>
    <filter id="filter6_d_500" x="221.525" y="115.531" width="72.4922" height="62.1741" filterUnits="userSpaceOnUse" color-interpolation-filters="sRGB">
      <feFlood flood-opacity="0" result="BackgroundImageFix"/>
      <feColorMatrix in="SourceAlpha" type="matrix" values="0 0 0 0 0 0 0 0 0 0 0 0 0 0 0 0 0 0 127 0" result="hardAlpha"/>
      <feOffset/>
      <feGaussianBlur stdDeviation="11"/>
      <feComposite in2="hardAlpha" operator="out"/>
      <feColorMatrix type="matrix" values="0 0 0 0 1 0 0 0 0 1 0 0 0 0 1 0 0 0 0.73 0"/>
      <feBlend mode="normal" in2="BackgroundImageFix" result="effect1_dropShadow_500"/>
      <feBlend mode="normal" in="SourceGraphic" in2="effect1_dropShadow_500" result="shape"/>
    </filter>
    <filter id="filter7_f_500" x="242.527" y="136.531" width="30.4902" height="20.1741" filterUnits="userSpaceOnUse" color-interpolation-filters="sRGB">
      <feFlood flood-opacity="0" result="BackgroundImageFix"/>
      <feBlend mode="normal" in="SourceGraphic" in2="BackgroundImageFix" result="shape"/>
      <feGaussianBlur stdDeviation="1" result="effect1_foregroundBlur_500"/>
    </filter>
  </defs>
</svg>
