<svg width="271" height="315" viewBox="0 0 271 315" fill="none"
  xmlns="http://www.w3.org/2000/svg">
  <path d="M86.3619 171.298L83.1993 172.096C69.6835 175.507 61.6581 189.411 65.4648 202.821V202.821C68.2384 212.591 77.0131 219.445 87.1644 219.771L89.0597 219.832M86.4358 171.297C91.4003 170.506 93.1098 174.058 95.8257 179.989M99.9777 190.548C100.174 191.199 100.363 191.86 100.545 192.53C100.706 193.126 100.859 193.719 101.003 194.308M102.782 206.754C102.932 212.916 101.666 217.284 99.0925 217.981C94.7953 219.146 88.4785 209.64 84.9834 196.749C83.2815 190.471 82.5625 184.548 82.7689 179.989M26.6958 194.309C38.3751 189 39.791 210.516 58.1879 202.377" stroke="#505050" stroke-opacity="0.3" stroke-width="3" stroke-linecap="round"/>
  <g filter="url(#filter0_f_730_2982)">
    <path d="M90.8447 187.828L106.892 183.477" stroke="#505050" stroke-opacity="0.3" stroke-width="3" stroke-linecap="round"/>
    <path d="M94.5361 201.442L110.584 197.091" stroke="#505050" stroke-opacity="0.3" stroke-width="3" stroke-linecap="round"/>
  </g>
  <path d="M181.272 257.734L185.2 260.002C197.093 266.868 212.3 262.793 219.166 250.9L219.805 249.794C225.167 240.506 223.477 228.755 215.716 221.354V221.354L215.277 221.101M181.271 257.735C175.452 254.376 176.182 242.218 182.901 230.581C189.62 218.943 199.784 212.233 205.602 215.592C211.421 218.952 210.691 231.109 203.972 242.746C200.686 248.439 196.575 252.953 192.551 255.686M224.9 253.083C236.518 256.403 241.074 248.876 248.602 262.743" stroke="#505050" stroke-opacity="0.3" stroke-width="3" stroke-linecap="round"/>
  <path d="M192.854 230.69C192.66 232.212 193.063 233.519 194.047 234.088C195.623 234.997 198.092 233.671 199.562 231.126C201.032 228.58 200.946 225.779 199.37 224.869C198.04 224.101 196.076 224.925 194.611 226.729" stroke="#505050" stroke-opacity="0.3" stroke-width="3" stroke-linecap="round"/>
  <path d="M191.709 244.733C190.239 247.279 187.77 248.605 186.194 247.695C184.618 246.785 184.532 243.984 186.002 241.438C187.472 238.893 189.941 237.566 191.517 238.476C192.202 238.872 192.606 239.626 192.722 240.561" stroke="#505050" stroke-opacity="0.3" stroke-width="3" stroke-linecap="round"/>
  <path d="M147.764 56.8447L143.212 50.2278C140.813 46.74 135.653 46.767 133.291 50.2797L126.755 59.9963C124.73 63.0062 125.819 67.1104 129.069 68.7211L130.573 69.4662L136.86 72.5816C137.712 73.0038 138.715 73.0038 139.567 72.5816L150.097 67.3631C151.023 66.9046 151.962 67.9589 151.388 68.812L148.401 73.2523L145.854 77.0391L142.595 81.8845C140.388 85.1659 135.665 85.4517 133.078 82.4605L130.573 79.5634M129.879 79.5643C139.103 88.7889 137.945 128.401 137.872 130.626C137.87 130.698 137.869 130.76 137.869 130.832L137.869 136.423C137.869 138.776 135.962 140.683 133.609 140.683L129.212 140.683C127.328 140.683 125.8 142.211 125.8 144.095C125.8 145.98 127.328 147.508 129.212 147.508L146.525 147.508C148.41 147.508 149.937 149.036 149.937 150.921C149.937 152.805 148.41 154.333 146.525 154.333L133.634 154.333C132.192 154.333 131.022 155.502 131.022 156.945C131.022 158.387 132.192 159.556 133.634 159.556L142.103 159.556C143.546 159.556 144.715 160.725 144.715 162.167C144.715 163.609 143.546 164.779 142.103 164.779L136.245 164.779" stroke="#505050" stroke-opacity="0.3" stroke-width="3" stroke-linecap="round"/>
  <path d="M149.73 140.683L149.73 130.724C149.73 96.835 175.94 91.6139 175.94 62.7723C175.94 41.5186 158.801 24.2892 137.66 24.2892C116.519 24.2892 99.3809 41.5186 99.3809 62.7723C99.3809 91.6139 125.59 96.835 125.59 130.724L125.59 134.459" stroke="#505050" stroke-opacity="0.3" stroke-width="3" stroke-linecap="round"/>
  <path d="M129.605 202.948L127.468 204.256C115.868 211.358 112.543 226.815 119.982 238.202V238.202C125.024 245.918 134.368 249.84 143.38 247.905V247.905C143.605 247.857 143.825 247.79 144.037 247.704L144.274 247.608M129.605 202.945C134.195 200.892 142.143 208.679 147.356 220.338C151.976 230.67 152.898 240.575 149.854 244.124M112.416 237.821C94.8161 240.449 106.77 263.3 89.7767 263.935" stroke="#505050" stroke-opacity="0.3" stroke-width="3" stroke-linecap="round"/>
  <path d="M171.487 204.788C187.958 196.509 177.152 188.372 198.725 188.754M135.739 197.709C155.609 190.517 180.781 211.172 159.915 239.14C159.309 239.951 157.978 239.396 158.013 238.384C158.473 224.972 151.125 206.464 141.402 201.602" stroke="#505050" stroke-opacity="0.3" stroke-width="3" stroke-linecap="round"/>

  <g opacity="1">
    <animate attributeName="opacity" begin="0s" calcMode="discrete" dur="2s" repeatCount="indefinite" values="1;0"/>
    <path filter="url(#filter18_d_730_2982)" d="M171.487 204.788C187.958 196.509 177.152 188.372 198.725 188.754M135.739 197.709C155.609 190.517 180.781 211.172 159.915 239.14C159.309 239.951 157.978 239.396 158.013 238.384C158.473 224.972 151.125 206.464 141.402 201.602" stroke="#ED1320" stroke-width="4" stroke-linecap="round"/>
    <path filter="url(#filter19_f_730_2982)" d="M171.487 204.788C187.958 196.509 177.152 188.372 198.725 188.754M135.739 197.709C155.609 190.517 180.781 211.172 159.915 239.14C159.309 239.951 157.978 239.396 158.013 238.384C158.473 224.972 151.125 206.464 141.402 201.602" stroke="white" stroke-width="3" stroke-linecap="round"/>
    <path filter="url(#filter16_d_730_2982)" d="M129.605 202.948L127.468 204.256C115.868 211.358 112.543 226.815 119.982 238.202V238.202C125.024 245.918 134.368 249.84 143.38 247.905V247.905C143.605 247.857 143.825 247.79 144.037 247.704L144.274 247.608M129.605 202.945C134.195 200.892 142.143 208.679 147.356 220.338C151.976 230.67 152.898 240.575 149.854 244.124M112.416 237.821C94.8161 240.449 106.77 263.3 89.7767 263.935" stroke="#64EA13" stroke-width="4" stroke-linecap="round"/>
    <path filter="url(#filter17_f_730_2982)" d="M129.605 202.948L127.468 204.256C115.868 211.358 112.543 226.815 119.982 238.202V238.202C125.024 245.918 134.368 249.84 143.38 247.905V247.905C143.605 247.857 143.825 247.79 144.037 247.704L144.274 247.608M129.605 202.945C134.195 200.892 142.143 208.679 147.356 220.338C151.976 230.67 152.898 240.575 149.854 244.124M112.416 237.821C94.8161 240.449 106.77 263.3 89.7767 263.935" stroke="white" stroke-width="3" stroke-linecap="round"/>

    <path filter="url(#filter12_d_730_2982)" d="M147.764 56.8447L143.212 50.2278C140.813 46.74 135.653 46.767 133.291 50.2797L126.755 59.9963C124.73 63.0062 125.819 67.1104 129.069 68.7211L130.573 69.4662L136.86 72.5816C137.712 73.0038 138.715 73.0038 139.567 72.5816L150.097 67.3631C151.023 66.9046 151.962 67.9589 151.388 68.812L148.401 73.2523L145.854 77.0391L142.595 81.8845C140.388 85.1659 135.665 85.4517 133.078 82.4605L130.573 79.5634M129.879 79.5643C139.103 88.7889 137.945 128.401 137.872 130.626C137.87 130.698 137.869 130.76 137.869 130.832L137.869 136.423C137.869 138.776 135.962 140.683 133.609 140.683L129.212 140.683C127.328 140.683 125.8 142.211 125.8 144.095C125.8 145.98 127.328 147.508 129.212 147.508L146.525 147.508C148.41 147.508 149.937 149.036 149.937 150.921C149.937 152.805 148.41 154.333 146.525 154.333L133.634 154.333C132.192 154.333 131.022 155.502 131.022 156.945C131.022 158.387 132.192 159.556 133.634 159.556L142.103 159.556C143.546 159.556 144.715 160.725 144.715 162.167C144.715 163.609 143.546 164.779 142.103 164.779L136.245 164.779" stroke="#EDD713" stroke-width="4" stroke-linecap="round" stroke-linejoin="round"/>
    <path filter="url(#filter13_f_730_2982)" d="M147.764 56.8447L143.212 50.2278C140.813 46.74 135.653 46.767 133.291 50.2797L126.755 59.9963C124.73 63.0062 125.819 67.1104 129.069 68.7211L130.573 69.4662L136.86 72.5816C137.712 73.0038 138.715 73.0038 139.567 72.5816L150.097 67.3631C151.023 66.9046 151.962 67.9589 151.388 68.812L148.401 73.2523L145.854 77.0391L142.595 81.8845C140.388 85.1659 135.665 85.4517 133.078 82.4605L130.573 79.5634M129.879 79.5643C139.103 88.7889 137.945 128.401 137.872 130.626C137.87 130.698 137.869 130.76 137.869 130.832L137.869 136.423C137.869 138.776 135.962 140.683 133.609 140.683L129.212 140.683C127.328 140.683 125.8 142.211 125.8 144.095C125.8 145.98 127.328 147.508 129.212 147.508L146.525 147.508C148.41 147.508 149.937 149.036 149.937 150.921C149.937 152.805 148.41 154.333 146.525 154.333L133.634 154.333C132.192 154.333 131.022 155.502 131.022 156.945C131.022 158.387 132.192 159.556 133.634 159.556L142.103 159.556C143.546 159.556 144.715 160.725 144.715 162.167C144.715 163.609 143.546 164.779 142.103 164.779L136.245 164.779" stroke="white" stroke-width="3" stroke-linecap="round"/>
    <path filter="url(#filter14_d_730_2982)" d="M149.73 140.683L149.73 130.724C149.73 96.835 175.94 91.6139 175.94 62.7723C175.94 41.5186 158.801 24.2892 137.66 24.2892C116.519 24.2892 99.3809 41.5186 99.3809 62.7723C99.3809 91.6139 125.59 96.835 125.59 130.724L125.59 134.459" stroke="#EDD713" stroke-width="4" stroke-linecap="round" stroke-linejoin="round"/>
    <path filter="url(#filter15_f_730_2982)" d="M149.73 140.683L149.73 130.724C149.73 96.835 175.94 91.6139 175.94 62.7723C175.94 41.5186 158.801 24.2892 137.66 24.2892C116.519 24.2892 99.3809 41.5186 99.3809 62.7723C99.3809 91.6139 125.59 96.835 125.59 130.724L125.59 134.459" stroke="white" stroke-width="3" stroke-linecap="round"/>
  </g>
  <g opacity="0">
    <animate attributeName="opacity" begin="0s" calcMode="discrete" dur="2s" repeatCount="indefinite" values="0;1"/>
    <path filter="url(#filter1_d_730_2982)" d="M86.3619 171.298L83.1993 172.096C69.6835 175.507 61.6581 189.411 65.4648 202.821V202.821C68.2384 212.591 77.0131 219.445 87.1644 219.771L89.0597 219.832M86.4358 171.297C91.4003 170.506 93.1098 174.058 95.8257 179.989M99.9777 190.548C100.174 191.199 100.363 191.86 100.545 192.53C100.706 193.126 100.859 193.719 101.003 194.308M102.782 206.754C102.932 212.916 101.666 217.284 99.0925 217.981C94.7953 219.146 88.4785 209.64 84.9834 196.749C83.2815 190.471 82.5625 184.548 82.7689 179.989M26.6958 194.309C38.3751 189 39.791 210.516 58.1879 202.377" stroke="#64EA13" stroke-width="4" stroke-linecap="round"/>
    <path filter="url(#filter2_f_730_2982)" d="M86.3619 171.298L82.6236 172.241C69.423 175.573 61.5847 189.153 65.3027 202.25V202.25C68.1729 212.36 77.2531 219.453 87.7578 219.79L89.0597 219.832M86.4358 171.297C91.4003 170.506 93.1098 174.058 95.8257 179.989M99.9777 190.548C100.174 191.199 100.363 191.86 100.545 192.53C100.706 193.126 100.859 193.719 101.003 194.308M102.782 206.754C102.932 212.916 101.666 217.284 99.0925 217.981C94.7953 219.146 88.4785 209.64 84.9834 196.749C83.2815 190.471 82.5625 184.548 82.7689 179.989M26.6958 194.309C38.3751 189 39.791 210.516 58.1879 202.377" stroke="white" stroke-width="3" stroke-linecap="round"/>
    <g filter="url(#filter3_f_730_2982)">
      <path filter="url(#filter4_d_730_2982)" d="M90.8447 187.828L106.892 183.477" stroke="white" stroke-width="4" stroke-linecap="round"/>
      <path filter="url(#filter5_f_730_2982)" d="M90.8447 187.828L106.892 183.477" stroke="white" stroke-width="3" stroke-linecap="round"/>
      <path filter="url(#filter6_d_730_2982)" d="M94.5361 201.442L110.584 197.091" stroke="white" stroke-width="4" stroke-linecap="round"/>
      <path filter="url(#filter7_f_730_2982)" d="M94.5361 201.442L110.584 197.091" stroke="white" stroke-width="3" stroke-linecap="round"/>
    </g>
    <path filter="url(#filter8_d_730_2982)" d="M181.273 257.734L185.201 260.002C197.094 266.868 212.301 262.793 219.167 250.9L220.034 249.398C225.262 240.343 223.615 228.885 216.047 221.67V221.67C215.828 221.46 215.584 221.278 215.321 221.126L215.278 221.101M181.272 257.735C175.453 254.376 176.183 242.218 182.902 230.581C189.621 218.943 199.785 212.233 205.603 215.592C211.422 218.952 210.692 231.109 203.973 242.746C200.687 248.439 196.576 252.953 192.552 255.686M224.901 253.083C236.519 256.403 241.075 248.876 248.603 262.743" stroke="#ED1320" stroke-width="4" stroke-linecap="round"/>
    <path filter="url(#filter9_f_730_2982)" d="M181.272 257.734L185.2 260.002C197.093 266.868 212.3 262.793 219.166 250.9L219.805 249.794C225.167 240.506 223.477 228.755 215.716 221.354V221.354L215.277 221.101M181.271 257.735C175.452 254.376 176.182 242.218 182.901 230.581C189.62 218.943 199.784 212.233 205.602 215.592C211.421 218.952 210.691 231.109 203.972 242.746C200.686 248.439 196.575 252.953 192.551 255.686M224.9 253.083C236.518 256.403 241.074 248.876 248.602 262.743" stroke="white" stroke-width="3" stroke-linecap="round"/>
    <path filter="url(#filter10_f_730_2982)" d="M192.854 230.69C192.66 232.212 193.063 233.519 194.047 234.088C195.623 234.997 198.092 233.671 199.562 231.126C201.032 228.58 200.946 225.779 199.37 224.869C198.04 224.101 196.076 224.925 194.611 226.729" stroke="white" stroke-width="3" stroke-linecap="round"/>
    <path filter="url(#filter11_f_730_2982)" d="M191.709 244.733C190.239 247.279 187.77 248.605 186.194 247.695C184.618 246.785 184.532 243.984 186.002 241.438C187.472 238.893 189.941 237.566 191.517 238.476C192.202 238.872 192.606 239.626 192.722 240.561" stroke="white" stroke-width="3" stroke-linecap="round"/>

  </g>
  <defs>
    <filter id="filter0_f_730_2982" x="87.3447" y="179.977" width="26.7393" height="24.9656" filterUnits="userSpaceOnUse" color-interpolation-filters="sRGB">
      <feFlood flood-opacity="0" result="BackgroundImageFix"/>
      <feBlend mode="normal" in="SourceGraphic" in2="BackgroundImageFix" result="shape"/>
      <feGaussianBlur stdDeviation="1" result="effect1_foregroundBlur_730_2982"/>
    </filter>
    <filter id="filter1_d_730_2982" x="2.69531" y="147.187" width="124.099" height="96.645" filterUnits="userSpaceOnUse" color-interpolation-filters="sRGB">
      <feFlood flood-opacity="0" result="BackgroundImageFix"/>
      <feColorMatrix in="SourceAlpha" type="matrix" values="0 0 0 0 0 0 0 0 0 0 0 0 0 0 0 0 0 0 127 0" result="hardAlpha"/>
      <feOffset/>
      <feGaussianBlur stdDeviation="11"/>
      <feComposite in2="hardAlpha" operator="out"/>
      <feColorMatrix type="matrix" values="0 0 0 0 0.380392 0 0 0 0 0.952941 0 0 0 0 0.027451 0 0 0 0.94 0"/>
      <feBlend mode="normal" in2="BackgroundImageFix" result="effect1_dropShadow_730_2982"/>
      <feBlend mode="normal" in="SourceGraphic" in2="effect1_dropShadow_730_2982" result="shape"/>
    </filter>
    <filter id="filter2_f_730_2982" x="23.1953" y="167.687" width="83.0986" height="55.645" filterUnits="userSpaceOnUse" color-interpolation-filters="sRGB">
      <feFlood flood-opacity="0" result="BackgroundImageFix"/>
      <feBlend mode="normal" in="SourceGraphic" in2="BackgroundImageFix" result="shape"/>
      <feGaussianBlur stdDeviation="1" result="effect1_foregroundBlur_730_2982"/>
    </filter>
    <filter id="filter3_f_730_2982" x="86.8438" y="179.477" width="27.7402" height="25.9658" filterUnits="userSpaceOnUse" color-interpolation-filters="sRGB">
      <feFlood flood-opacity="0" result="BackgroundImageFix"/>
      <feBlend mode="normal" in="SourceGraphic" in2="BackgroundImageFix" result="shape"/>
      <feGaussianBlur stdDeviation="1" result="effect1_foregroundBlur_730_2982"/>
    </filter>
    <filter id="filter4_d_730_2982" x="77.8438" y="170.477" width="42.0488" height="30.3518" filterUnits="userSpaceOnUse" color-interpolation-filters="sRGB">
      <feFlood flood-opacity="0" result="BackgroundImageFix"/>
      <feColorMatrix in="SourceAlpha" type="matrix" values="0 0 0 0 0 0 0 0 0 0 0 0 0 0 0 0 0 0 127 0" result="hardAlpha"/>
      <feOffset/>
      <feGaussianBlur stdDeviation="5.5"/>
      <feColorMatrix type="matrix" values="0 0 0 0 1 0 0 0 0 1 0 0 0 0 1 0 0 0 0.74 0"/>
      <feBlend mode="normal" in2="BackgroundImageFix" result="effect1_dropShadow_730_2982"/>
      <feBlend mode="normal" in="SourceGraphic" in2="effect1_dropShadow_730_2982" result="shape"/>
    </filter>
    <filter id="filter5_f_730_2982" x="87.3447" y="179.977" width="23.0479" height="11.3516" filterUnits="userSpaceOnUse" color-interpolation-filters="sRGB">
      <feFlood flood-opacity="0" result="BackgroundImageFix"/>
      <feBlend mode="normal" in="SourceGraphic" in2="BackgroundImageFix" result="shape"/>
      <feGaussianBlur stdDeviation="1" result="effect1_foregroundBlur_730_2982"/>
    </filter>
    <filter id="filter6_d_730_2982" x="81.5352" y="184.091" width="42.0488" height="30.3518" filterUnits="userSpaceOnUse" color-interpolation-filters="sRGB">
      <feFlood flood-opacity="0" result="BackgroundImageFix"/>
      <feColorMatrix in="SourceAlpha" type="matrix" values="0 0 0 0 0 0 0 0 0 0 0 0 0 0 0 0 0 0 127 0" result="hardAlpha"/>
      <feOffset/>
      <feGaussianBlur stdDeviation="5.5"/>
      <feColorMatrix type="matrix" values="0 0 0 0 1 0 0 0 0 1 0 0 0 0 1 0 0 0 0.74 0"/>
      <feBlend mode="normal" in2="BackgroundImageFix" result="effect1_dropShadow_730_2982"/>
      <feBlend mode="normal" in="SourceGraphic" in2="effect1_dropShadow_730_2982" result="shape"/>
    </filter>
    <filter id="filter7_f_730_2982" x="91.0361" y="193.591" width="23.0479" height="11.3516" filterUnits="userSpaceOnUse" color-interpolation-filters="sRGB">
      <feFlood flood-opacity="0" result="BackgroundImageFix"/>
      <feBlend mode="normal" in="SourceGraphic" in2="BackgroundImageFix" result="shape"/>
      <feGaussianBlur stdDeviation="1" result="effect1_foregroundBlur_730_2982"/>
    </filter>
    <filter id="filter8_d_730_2982" x="163.345" y="200.722" width="99.2588" height="76.6152" filterUnits="userSpaceOnUse" color-interpolation-filters="sRGB">
      <feFlood flood-opacity="0" result="BackgroundImageFix"/>
      <feColorMatrix in="SourceAlpha" type="matrix" values="0 0 0 0 0 0 0 0 0 0 0 0 0 0 0 0 0 0 127 0" result="hardAlpha"/>
      <feOffset/>
      <feGaussianBlur stdDeviation="6"/>
      <feComposite in2="hardAlpha" operator="out"/>
      <feColorMatrix type="matrix" values="0 0 0 0 0.929412 0 0 0 0 0.0745098 0 0 0 0 0.12549 0 0 0 0.94 0"/>
      <feBlend mode="normal" in2="BackgroundImageFix" result="effect1_dropShadow_730_2982"/>
      <feBlend mode="normal" in="SourceGraphic" in2="effect1_dropShadow_730_2982" result="shape"/>
    </filter>
    <filter id="filter9_f_730_2982" x="173.844" y="211.223" width="78.2588" height="55.614" filterUnits="userSpaceOnUse" color-interpolation-filters="sRGB">
      <feFlood flood-opacity="0" result="BackgroundImageFix"/>
      <feBlend mode="normal" in="SourceGraphic" in2="BackgroundImageFix" result="shape"/>
      <feGaussianBlur stdDeviation="1" result="effect1_foregroundBlur_730_2982"/>
    </filter>
    <filter id="filter10_f_730_2982" x="189.309" y="221.082" width="14.8018" height="16.7935" filterUnits="userSpaceOnUse" color-interpolation-filters="sRGB">
      <feFlood flood-opacity="0" result="BackgroundImageFix"/>
      <feBlend mode="normal" in="SourceGraphic" in2="BackgroundImageFix" result="shape"/>
      <feGaussianBlur stdDeviation="1" result="effect1_foregroundBlur_730_2982"/>
    </filter>
    <filter id="filter11_f_730_2982" x="181.453" y="234.688" width="14.7686" height="16.7944" filterUnits="userSpaceOnUse" color-interpolation-filters="sRGB">
      <feFlood flood-opacity="0" result="BackgroundImageFix"/>
      <feBlend mode="normal" in="SourceGraphic" in2="BackgroundImageFix" result="shape"/>
      <feGaussianBlur stdDeviation="1" result="effect1_foregroundBlur_730_2982"/>
    </filter>
    <filter id="filter12_d_730_2982" x="101.731" y="23.6284" width="73.8545" height="165.15" filterUnits="userSpaceOnUse" color-interpolation-filters="sRGB">
      <feFlood flood-opacity="0" result="BackgroundImageFix"/>
      <feColorMatrix in="SourceAlpha" type="matrix" values="0 0 0 0 0 0 0 0 0 0 0 0 0 0 0 0 0 0 127 0" result="hardAlpha"/>
      <feOffset/>
      <feGaussianBlur stdDeviation="11"/>
      <feComposite in2="hardAlpha" operator="out"/>
      <feColorMatrix type="matrix" values="0 0 0 0 0.929167 0 0 0 0 0.843606 0 0 0 0 0.073559 0 0 0 0.94 0"/>
      <feBlend mode="normal" in2="BackgroundImageFix" result="effect1_dropShadow_730_2982"/>
      <feBlend mode="normal" in="SourceGraphic" in2="effect1_dropShadow_730_2982" result="shape"/>
    </filter>
    <filter id="filter13_f_730_2982" x="122.231" y="44.1284" width="32.8496" height="124.15" filterUnits="userSpaceOnUse" color-interpolation-filters="sRGB">
      <feFlood flood-opacity="0" result="BackgroundImageFix"/>
      <feBlend mode="normal" in="SourceGraphic" in2="BackgroundImageFix" result="shape"/>
      <feGaussianBlur stdDeviation="1" result="effect1_foregroundBlur_730_2982"/>
    </filter>
    <filter id="filter14_d_730_2982" x="75.3809" y="0.289185" width="124.559" height="164.394" filterUnits="userSpaceOnUse" color-interpolation-filters="sRGB">
      <feFlood flood-opacity="0" result="BackgroundImageFix"/>
      <feColorMatrix in="SourceAlpha" type="matrix" values="0 0 0 0 0 0 0 0 0 0 0 0 0 0 0 0 0 0 127 0" result="hardAlpha"/>
      <feOffset/>
      <feGaussianBlur stdDeviation="11"/>
      <feComposite in2="hardAlpha" operator="out"/>
      <feColorMatrix type="matrix" values="0 0 0 0 0.929167 0 0 0 0 0.843606 0 0 0 0 0.073559 0 0 0 0.94 0"/>
      <feBlend mode="normal" in2="BackgroundImageFix" result="effect1_dropShadow_730_2982"/>
      <feBlend mode="normal" in="SourceGraphic" in2="effect1_dropShadow_730_2982" result="shape"/>
    </filter>
    <filter id="filter15_f_730_2982" x="95.8809" y="20.7892" width="83.5586" height="123.394" filterUnits="userSpaceOnUse" color-interpolation-filters="sRGB">
      <feFlood flood-opacity="0" result="BackgroundImageFix"/>
      <feBlend mode="normal" in="SourceGraphic" in2="BackgroundImageFix" result="shape"/>
      <feGaussianBlur stdDeviation="1" result="effect1_foregroundBlur_730_2982"/>
    </filter>
    <filter id="filter16_d_730_2982" x="65.7764" y="178.616" width="109.846" height="109.319" filterUnits="userSpaceOnUse" color-interpolation-filters="sRGB">
      <feFlood flood-opacity="0" result="BackgroundImageFix"/>
      <feColorMatrix in="SourceAlpha" type="matrix" values="0 0 0 0 0 0 0 0 0 0 0 0 0 0 0 0 0 0 127 0" result="hardAlpha"/>
      <feOffset/>
      <feGaussianBlur stdDeviation="11"/>
      <feComposite in2="hardAlpha" operator="out"/>
      <feColorMatrix type="matrix" values="0 0 0 0 0.380392 0 0 0 0 0.952941 0 0 0 0 0.027451 0 0 0 0.94 0"/>
      <feBlend mode="normal" in2="BackgroundImageFix" result="effect1_dropShadow_730_2982"/>
      <feBlend mode="normal" in="SourceGraphic" in2="effect1_dropShadow_730_2982" result="shape"/>
    </filter>
    <filter id="filter17_f_730_2982" x="86.2764" y="199.116" width="68.8457" height="68.3188" filterUnits="userSpaceOnUse" color-interpolation-filters="sRGB">
      <feFlood flood-opacity="0" result="BackgroundImageFix"/>
      <feBlend mode="normal" in="SourceGraphic" in2="BackgroundImageFix" result="shape"/>
      <feGaussianBlur stdDeviation="1" result="effect1_foregroundBlur_730_2982"/>
    </filter>
    <filter id="filter18_d_730_2982" x="121.738" y="174.741" width="90.9863" height="78.7849" filterUnits="userSpaceOnUse" color-interpolation-filters="sRGB">
      <feFlood flood-opacity="0" result="BackgroundImageFix"/>
      <feColorMatrix in="SourceAlpha" type="matrix" values="0 0 0 0 0 0 0 0 0 0 0 0 0 0 0 0 0 0 127 0" result="hardAlpha"/>
      <feOffset/>
      <feGaussianBlur stdDeviation="6"/>
      <feComposite in2="hardAlpha" operator="out"/>
      <feColorMatrix type="matrix" values="0 0 0 0 0.929412 0 0 0 0 0.0745098 0 0 0 0 0.12549 0 0 0 0.94 0"/>
      <feBlend mode="normal" in2="BackgroundImageFix" result="effect1_dropShadow_730_2982"/>
      <feBlend mode="normal" in="SourceGraphic" in2="effect1_dropShadow_730_2982" result="shape"/>
    </filter>
    <filter id="filter19_f_730_2982" x="132.238" y="185.241" width="69.9863" height="57.7859" filterUnits="userSpaceOnUse" color-interpolation-filters="sRGB">
      <feFlood flood-opacity="0" result="BackgroundImageFix"/>
      <feBlend mode="normal" in="SourceGraphic" in2="BackgroundImageFix" result="shape"/>
      <feGaussianBlur stdDeviation="1" result="effect1_foregroundBlur_730_2982"/>
    </filter>
  </defs>
</svg>
