<svg width="227" height="294" viewBox="0 0 227 294" fill="none"
  xmlns="http://www.w3.org/2000/svg">
  <path filter="url(#filter0_d_500)" d="M168.169 217.474L169.48 216.718L193.299 202.966C198.869 199.75 202.299 193.804 202.299 187.373C202.299 157.021 202.299 136.324 202.299 105.972C202.299 99.5417 198.869 93.5951 193.299 90.3797L122.797 49.6752C117.228 46.4598 110.366 46.4598 104.797 49.6752L70.5615 69.4412L69.0966 70.2869M157.688 223.526L156.378 224.282L122.797 243.67C117.228 246.885 110.366 246.885 104.797 243.67L34.2949 202.966C28.7257 199.75 25.2949 193.808 25.2949 187.377L25.2949 105.968C25.2949 99.5374 28.7257 93.5951 34.2949 90.3797L57.6323 76.9059L58.7699 76.249" stroke="#13C6ED" stroke-width="5" stroke-linecap="round"/>
  <path filter="url(#filter1_f_500)" d="M168.169 217.474L169.48 216.718L193.299 202.966C198.869 199.75 202.299 193.804 202.299 187.373C202.299 157.021 202.299 136.324 202.299 105.972C202.299 99.5417 198.869 93.5951 193.299 90.3797L122.797 49.6752C117.228 46.4598 110.366 46.4598 104.797 49.6752L70.5615 69.4412L69.0966 70.2869M157.688 223.526L156.378 224.282L122.797 243.67C117.228 246.885 110.366 246.885 104.797 243.67L34.2949 202.966C28.7257 199.75 25.2949 193.808 25.2949 187.377L25.2949 105.968C25.2949 99.5374 28.7257 93.5951 34.2949 90.3797L57.6323 76.9059L58.7699 76.249" stroke="white" stroke-width="3" stroke-linecap="round"/>
  <path filter="url(#filter2_d_500)" d="M98.895 152.242L90.3592 182.958C89.2967 186.782 92.1719 190.565 96.1401 190.565H133.119M87.2667 118.833C86.2039 121.8 85.625 124.998 85.625 128.332C85.625 138.347 90.8519 147.142 98.7267 152.136M94.2725 108.024C99.3357 103.156 106.215 100.163 113.794 100.163C129.351 100.163 141.962 112.774 141.962 128.332C141.962 139.29 135.705 148.787 126.568 153.444" stroke="#EDD713" stroke-width="5" stroke-linecap="round"/>
  <path filter="url(#filter3_f_500)" d="M98.895 152.242L90.3592 182.958C89.2967 186.782 92.1719 190.565 96.1401 190.565H133.119M87.2667 118.833C86.2039 121.8 85.625 124.998 85.625 128.332C85.625 138.347 90.8519 147.142 98.7267 152.136M94.2725 108.024C99.3357 103.156 106.215 100.163 113.794 100.163C129.351 100.163 141.962 112.774 141.962 128.332C141.962 139.29 135.705 148.787 126.568 153.444" stroke="white" stroke-width="3" stroke-linecap="round"/>
  <path d="M24.7031 15L202.232 279" stroke="#505050" stroke-opacity="0.3" stroke-width="4" stroke-linecap="round"/>
  <g opacity="1">
    <animate attributeName="opacity" begin="0s" calcMode="discrete" dur="2s" repeatCount="indefinite" values="1;0"/>
    <path filter="url(#filter4_d_500)" d="M24.7031 15L202.232 279" stroke="#ED1320" stroke-width="5" stroke-linecap="round"/>
    <path filter="url(#filter5_f_500)" d="M24.7031 15L202.232 279" stroke="white" stroke-width="3" stroke-linecap="round"/>
  </g>
  <defs>
    <filter id="filter0_d_500" x="0.794922" y="22.7637" width="226.004" height="247.818" filterUnits="userSpaceOnUse" color-interpolation-filters="sRGB">
      <feFlood flood-opacity="0" result="BackgroundImageFix"/>
      <feColorMatrix in="SourceAlpha" type="matrix" values="0 0 0 0 0 0 0 0 0 0 0 0 0 0 0 0 0 0 127 0" result="hardAlpha"/>
      <feOffset/>
      <feGaussianBlur stdDeviation="11"/>
      <feComposite in2="hardAlpha" operator="out"/>
      <feColorMatrix type="matrix" values="0 0 0 0 0.0745098 0 0 0 0 0.776471 0 0 0 0 0.929412 0 0 0 0.94 0"/>
      <feBlend mode="normal" in2="BackgroundImageFix" result="effect1_dropShadow_500"/>
      <feBlend mode="normal" in="SourceGraphic" in2="effect1_dropShadow_500" result="shape"/>
    </filter>
    <filter id="filter1_f_500" x="21.7949" y="43.7637" width="184.004" height="205.818" filterUnits="userSpaceOnUse" color-interpolation-filters="sRGB">
      <feFlood flood-opacity="0" result="BackgroundImageFix"/>
      <feBlend mode="normal" in="SourceGraphic" in2="BackgroundImageFix" result="shape"/>
      <feGaussianBlur stdDeviation="1" result="effect1_foregroundBlur_500"/>
    </filter>
    <filter id="filter2_d_500" x="61.125" y="75.6628" width="105.338" height="139.402" filterUnits="userSpaceOnUse" color-interpolation-filters="sRGB">
      <feFlood flood-opacity="0" result="BackgroundImageFix"/>
      <feColorMatrix in="SourceAlpha" type="matrix" values="0 0 0 0 0 0 0 0 0 0 0 0 0 0 0 0 0 0 127 0" result="hardAlpha"/>
      <feOffset/>
      <feGaussianBlur stdDeviation="11"/>
      <feComposite in2="hardAlpha" operator="out"/>
      <feColorMatrix type="matrix" values="0 0 0 0 0.929167 0 0 0 0 0.843606 0 0 0 0 0.073559 0 0 0 0.94 0"/>
      <feBlend mode="normal" in2="BackgroundImageFix" result="effect1_dropShadow_500"/>
      <feBlend mode="normal" in="SourceGraphic" in2="effect1_dropShadow_500" result="shape"/>
    </filter>
    <filter id="filter3_f_500" x="82.125" y="96.6628" width="63.3379" height="97.402" filterUnits="userSpaceOnUse" color-interpolation-filters="sRGB">
      <feFlood flood-opacity="0" result="BackgroundImageFix"/>
      <feBlend mode="normal" in="SourceGraphic" in2="BackgroundImageFix" result="shape"/>
      <feGaussianBlur stdDeviation="1" result="effect1_foregroundBlur_500"/>
    </filter>
    <filter id="filter4_d_500" x="10.2031" y="0.499756" width="206.529" height="293" filterUnits="userSpaceOnUse" color-interpolation-filters="sRGB">
      <feFlood flood-opacity="0" result="BackgroundImageFix"/>
      <feColorMatrix in="SourceAlpha" type="matrix" values="0 0 0 0 0 0 0 0 0 0 0 0 0 0 0 0 0 0 127 0" result="hardAlpha"/>
      <feOffset/>
      <feGaussianBlur stdDeviation="6"/>
      <feComposite in2="hardAlpha" operator="out"/>
      <feColorMatrix type="matrix" values="0 0 0 0 0.929412 0 0 0 0 0.0745098 0 0 0 0 0.12549 0 0 0 0.94 0"/>
      <feBlend mode="normal" in2="BackgroundImageFix" result="effect1_dropShadow_500"/>
      <feBlend mode="normal" in="SourceGraphic" in2="effect1_dropShadow_500" result="shape"/>
    </filter>
    <filter id="filter5_f_500" x="21.2031" y="11.4998" width="184.529" height="271" filterUnits="userSpaceOnUse" color-interpolation-filters="sRGB">
      <feFlood flood-opacity="0" result="BackgroundImageFix"/>
      <feBlend mode="normal" in="SourceGraphic" in2="BackgroundImageFix" result="shape"/>
      <feGaussianBlur stdDeviation="1" result="effect1_foregroundBlur_500"/>
    </filter>
  </defs>
</svg>
