<svg width="238" height="301" viewBox="0 0 238 301" fill="none"
  xmlns="http://www.w3.org/2000/svg">
  <g filter="url(#filter0_d_500)">
    <path d="M223.884 84.3534C207.23 84.2925 195.191 89.7329 186.04 100.821" stroke="#ED1320" stroke-width="3" stroke-linecap="round"/>
  </g>
  <g filter="url(#filter1_f_500)">
    <path d="M223.884 84.3532C207.23 84.2923 195.191 89.7327 186.04 100.82" stroke="white" stroke-width="3" stroke-linecap="round"/>
  </g>
  <g filter="url(#filter2_d_500)">
    <path d="M124.769 168.403L123.67 153.749C123.352 149.506 118.842 146.934 115.028 148.819L94.7313 158.855C91.4962 160.454 90.3951 164.527 92.3836 167.539L95.1889 171.788M108.289 191.629L98.2059 196.615C94.6418 198.377 90.3804 196.249 89.649 192.341L88.1002 184.066M95.1894 171.788L100.579 179.951C101.31 181.057 102.518 181.755 103.842 181.835L120.196 182.816C121.633 182.903 122.025 184.838 120.734 185.476L114.017 188.797L108.29 191.629" stroke="#EF07F3" stroke-width="5" stroke-linecap="round"/>
  </g>
  <g filter="url(#filter3_d_500)">
    <path d="M70.3424 126.646L56.6184 227.626C54.4399 243.656 72.8682 254.2 85.5831 244.198L154.44 190.034C165.239 181.54 168.874 166.571 159.558 156.472C143.976 139.581 115.833 120.725 72.4482 116.978" stroke="white" stroke-width="5" stroke-linecap="round"/>
  </g>
  <path d="M126.681 108.15L127.286 107.008C132.484 97.1928 143.153 89.3209 155.898 85.8961L160.391 84.6889" stroke="#505050" stroke-opacity="0.3" stroke-width="3" stroke-linecap="round"/>
  <path d="M100.459 40.4775L101.738 47.8332C103.103 55.6835 99.6229 62.9018 93.318 65.2959V65.2959C87.5318 67.493 84.0674 73.7902 84.6726 81.0103L85.874 95.3416" stroke="#505050" stroke-opacity="0.3" stroke-width="3" stroke-linecap="round"/>
  <g filter="url(#filter4_d_500)">
    <path d="M105.532 106.995L108.356 103.499C114.61 95.7571 116.669 84.7001 113.819 74.1602V74.1602" stroke="#ED1320" stroke-width="5" stroke-linecap="round"/>
  </g>
  <g filter="url(#filter5_f_500)">
    <path d="M105.532 106.995L108.356 103.499C114.61 95.7571 116.669 84.7001 113.819 74.1602V74.1602" stroke="white" stroke-width="3" stroke-linecap="round"/>
  </g>
  <g filter="url(#filter6_d_500)">
    <path d="M163.332 44.4928L162.022 49.5134C159.477 59.262 152.345 67.2867 142.842 71.0963V71.0963" stroke="#EF07F3" stroke-width="5" stroke-linecap="round"/>
  </g>
  <g filter="url(#filter7_f_500)">
    <path d="M163.332 44.7496L162.022 49.7702C159.477 59.5188 152.345 67.5436 142.842 71.3531V71.3531" stroke="white" stroke-width="2" stroke-linecap="round"/>
  </g>
  <g filter="url(#filter8_d_500)">
    <path d="M84.56 49.6763C80.2884 46.4315 77.1686 36.1063 81.4902 27.793" stroke="#64EA13" stroke-width="5" stroke-linecap="round"/>
  </g>
  <g filter="url(#filter9_f_500)">
    <path d="M84.56 49.6763C80.2884 46.4315 77.1686 36.1063 81.4902 27.793" stroke="white" stroke-width="2" stroke-linecap="round"/>
  </g>
  <g filter="url(#filter10_d_500)">
    <path d="M154.989 102.492C156.353 100.399 158.587 98.8905 161.258 98.5327C166.124 97.8809 170.597 101.297 171.249 106.163C171.901 111.03 168.485 115.503 163.619 116.155C159.189 116.748 155.085 113.97 153.892 109.796" stroke="#3F13ED" stroke-width="5" stroke-linecap="round"/>
  </g>
  <g filter="url(#filter11_f_500)">
    <path d="M154.989 102.492C156.353 100.399 158.587 98.8905 161.258 98.5327C166.124 97.8809 170.597 101.297 171.249 106.163C171.901 111.03 168.485 115.503 163.619 116.155C159.189 116.748 155.085 113.97 153.892 109.796" stroke="white" stroke-width="2" stroke-linecap="round"/>
  </g>
  <g filter="url(#filter12_f_500)">
    <path d="M124.768 168.403L123.669 153.749C123.351 149.506 118.841 146.933 115.027 148.819L94.7303 158.855C91.4952 160.454 90.3941 164.527 92.3826 167.539L95.1879 171.788M108.288 191.629L98.2049 196.615C94.6408 198.377 90.3794 196.248 89.648 192.34L88.0992 184.066M95.1884 171.788L100.578 179.951C101.309 181.057 102.517 181.755 103.841 181.834L120.195 182.816C121.632 182.902 122.024 184.838 120.733 185.476L114.017 188.797L108.289 191.629" stroke="white" stroke-width="4" stroke-linecap="round"/>
  </g>
  <g filter="url(#filter13_f_500)">
    <path d="M70.3424 126.646L56.6184 227.627C54.4399 243.657 72.8682 254.2 85.5831 244.198L154.44 190.035C165.239 181.54 168.874 166.571 159.558 156.472C143.976 139.581 115.833 120.725 72.4482 116.978" stroke="white" stroke-width="3" stroke-linecap="round"/>
  </g>
  <path d="M180.043 135.227C193.312 132.704 202.359 111.567 220.755 107.15" stroke="#505050" stroke-opacity="0.3" stroke-width="3" stroke-linecap="round"/>
  <g filter="url(#filter14_d_500)">
    <path fill-rule="evenodd" clip-rule="evenodd" d="M134.052 23.032C135.197 23.8038 135.499 25.3576 134.728 26.5024L131.101 31.8823L136.481 35.5091C137.626 36.2809 137.928 37.8346 137.156 38.9795C136.384 40.1243 134.831 40.4268 133.686 39.655L126.233 34.6308L124.16 33.2334L125.557 31.1604L130.582 23.7076C131.353 22.5627 132.907 22.2603 134.052 23.032ZM118.614 62.0139C117.469 61.2422 117.166 59.6884 117.938 58.5435L121.565 53.1637L116.185 49.5369C115.04 48.7651 114.738 47.2114 115.509 46.0665C116.281 44.9217 117.835 44.6192 118.98 45.391L126.433 50.4152L128.506 51.8126L127.108 53.8856L122.084 61.3384C121.312 62.4833 119.758 62.7857 118.614 62.0139ZM124.002 37.9405C122.857 37.1687 121.303 37.4711 120.532 38.616C119.76 39.7609 120.062 41.3146 121.207 42.0864L128.66 47.1106C129.805 47.8824 131.359 47.5799 132.13 46.4351C132.902 45.2902 132.6 43.7365 131.455 42.9647L124.002 37.9405Z" fill="#13C6ED"/>
  </g>
  <g filter="url(#filter15_f_500)">
    <path d="M132.655 25.105L127.631 32.5579L135.084 37.5821" stroke="white" stroke-width="3" stroke-linecap="round"/>
  </g>
  <g filter="url(#filter16_f_500)">
    <path d="M120.012 59.9404L125.036 52.4875L117.583 47.4633" stroke="white" stroke-width="3" stroke-linecap="round"/>
  </g>
  <g filter="url(#filter17_f_500)">
    <path d="M122.605 40.0134L130.058 45.0375" stroke="white" stroke-width="3" stroke-linecap="round"/>
  </g>
  <path d="M181.382 50.7151L182.536 50.34" stroke="#505050" stroke-opacity="0.3" stroke-width="3" stroke-linecap="round"/>
  <path d="M185.134 62.258L186.288 61.8828" stroke="#505050" stroke-opacity="0.3" stroke-width="3" stroke-linecap="round"/>
  <path d="M208.22 54.7542L209.374 54.379" stroke="#505050" stroke-opacity="0.3" stroke-width="3" stroke-linecap="round"/>
  <path d="M194.801 52.7347L195.955 52.3595" stroke="#505050" stroke-opacity="0.3" stroke-width="3" stroke-linecap="round"/>
  <path d="M198.553 64.2776L199.707 63.9024" stroke="#505050" stroke-opacity="0.3" stroke-width="3" stroke-linecap="round"/>
  <path d="M188.886 73.801L190.04 73.4258" stroke="#505050" stroke-opacity="0.3" stroke-width="3" stroke-linecap="round"/>
  <defs>
    <filter id="filter0_d_500" x="172.54" y="70.8529" width="64.8438" height="43.4677" filterUnits="userSpaceOnUse" color-interpolation-filters="sRGB">
      <feFlood flood-opacity="0" result="BackgroundImageFix"/>
      <feColorMatrix in="SourceAlpha" type="matrix" values="0 0 0 0 0 0 0 0 0 0 0 0 0 0 0 0 0 0 127 0" result="hardAlpha"/>
      <feOffset/>
      <feGaussianBlur stdDeviation="6"/>
      <feComposite in2="hardAlpha" operator="out"/>
      <feColorMatrix type="matrix" values="0 0 0 0 0.929412 0 0 0 0 0.0745098 0 0 0 0 0.12549 0 0 0 0.94 0"/>
      <feBlend mode="normal" in2="BackgroundImageFix" result="effect1_dropShadow_500"/>
      <feBlend mode="normal" in="SourceGraphic" in2="effect1_dropShadow_500" result="shape"/>
    </filter>
    <filter id="filter1_f_500" x="182.54" y="80.8527" width="44.8438" height="23.4677" filterUnits="userSpaceOnUse" color-interpolation-filters="sRGB">
      <feFlood flood-opacity="0" result="BackgroundImageFix"/>
      <feBlend mode="normal" in="SourceGraphic" in2="BackgroundImageFix" result="shape"/>
      <feGaussianBlur stdDeviation="1" result="effect1_foregroundBlur_500"/>
    </filter>
    <filter id="filter2_d_500" x="63.5996" y="123.689" width="85.6689" height="98.0533" filterUnits="userSpaceOnUse" color-interpolation-filters="sRGB">
      <feFlood flood-opacity="0" result="BackgroundImageFix"/>
      <feColorMatrix in="SourceAlpha" type="matrix" values="0 0 0 0 0 0 0 0 0 0 0 0 0 0 0 0 0 0 127 0" result="hardAlpha"/>
      <feOffset/>
      <feGaussianBlur stdDeviation="11"/>
      <feComposite in2="hardAlpha" operator="out"/>
      <feColorMatrix type="matrix" values="0 0 0 0 0.937255 0 0 0 0 0.027451 0 0 0 0 0.952941 0 0 0 0.94 0"/>
      <feBlend mode="normal" in2="BackgroundImageFix" result="effect1_dropShadow_500"/>
      <feBlend mode="normal" in="SourceGraphic" in2="effect1_dropShadow_500" result="shape"/>
    </filter>
    <filter id="filter3_d_500" x="31.9395" y="92.4779" width="157.467" height="180.132" filterUnits="userSpaceOnUse" color-interpolation-filters="sRGB">
      <feFlood flood-opacity="0" result="BackgroundImageFix"/>
      <feColorMatrix in="SourceAlpha" type="matrix" values="0 0 0 0 0 0 0 0 0 0 0 0 0 0 0 0 0 0 127 0" result="hardAlpha"/>
      <feOffset/>
      <feGaussianBlur stdDeviation="11"/>
      <feComposite in2="hardAlpha" operator="out"/>
      <feColorMatrix type="matrix" values="0 0 0 0 1 0 0 0 0 1 0 0 0 0 1 0 0 0 0.73 0"/>
      <feBlend mode="normal" in2="BackgroundImageFix" result="effect1_dropShadow_500"/>
      <feBlend mode="normal" in="SourceGraphic" in2="effect1_dropShadow_500" result="shape"/>
    </filter>
    <filter id="filter4_d_500" x="91.1738" y="59.5253" width="38.2627" height="62.1036" filterUnits="userSpaceOnUse" color-interpolation-filters="sRGB">
      <feFlood flood-opacity="0" result="BackgroundImageFix"/>
      <feColorMatrix in="SourceAlpha" type="matrix" values="0 0 0 0 0 0 0 0 0 0 0 0 0 0 0 0 0 0 127 0" result="hardAlpha"/>
      <feOffset/>
      <feGaussianBlur stdDeviation="6"/>
      <feComposite in2="hardAlpha" operator="out"/>
      <feColorMatrix type="matrix" values="0 0 0 0 0.929412 0 0 0 0 0.0745098 0 0 0 0 0.12549 0 0 0 0.94 0"/>
      <feBlend mode="normal" in2="BackgroundImageFix" result="effect1_dropShadow_500"/>
      <feBlend mode="normal" in="SourceGraphic" in2="effect1_dropShadow_500" result="shape"/>
    </filter>
    <filter id="filter5_f_500" x="102.117" y="71.8037" width="16.376" height="38.7715" filterUnits="userSpaceOnUse" color-interpolation-filters="sRGB">
      <feFlood flood-opacity="0" result="BackgroundImageFix"/>
      <feBlend mode="normal" in="SourceGraphic" in2="BackgroundImageFix" result="shape"/>
      <feGaussianBlur stdDeviation="1" result="effect1_foregroundBlur_500"/>
    </filter>
    <filter id="filter6_d_500" x="118.318" y="20.0152" width="69.5371" height="75.5587" filterUnits="userSpaceOnUse" color-interpolation-filters="sRGB">
      <feFlood flood-opacity="0" result="BackgroundImageFix"/>
      <feColorMatrix in="SourceAlpha" type="matrix" values="0 0 0 0 0 0 0 0 0 0 0 0 0 0 0 0 0 0 127 0" result="hardAlpha"/>
      <feOffset/>
      <feGaussianBlur stdDeviation="11"/>
      <feComposite in2="hardAlpha" operator="out"/>
      <feColorMatrix type="matrix" values="0 0 0 0 0.937255 0 0 0 0 0.027451 0 0 0 0 0.952941 0 0 0 0.94 0"/>
      <feBlend mode="normal" in2="BackgroundImageFix" result="effect1_dropShadow_500"/>
      <feBlend mode="normal" in="SourceGraphic" in2="effect1_dropShadow_500" result="shape"/>
    </filter>
    <filter id="filter7_f_500" x="140.472" y="41.7586" width="25.8701" height="32.511" filterUnits="userSpaceOnUse" color-interpolation-filters="sRGB">
      <feFlood flood-opacity="0" result="BackgroundImageFix"/>
      <feBlend mode="normal" in="SourceGraphic" in2="BackgroundImageFix" result="shape"/>
      <feGaussianBlur stdDeviation="1" result="effect1_foregroundBlur_500"/>
    </filter>
    <filter id="filter8_d_500" x="54.9043" y="3.3045" width="54.168" height="70.8599" filterUnits="userSpaceOnUse" color-interpolation-filters="sRGB">
      <feFlood flood-opacity="0" result="BackgroundImageFix"/>
      <feColorMatrix in="SourceAlpha" type="matrix" values="0 0 0 0 0 0 0 0 0 0 0 0 0 0 0 0 0 0 127 0" result="hardAlpha"/>
      <feOffset/>
      <feGaussianBlur stdDeviation="11"/>
      <feComposite in2="hardAlpha" operator="out"/>
      <feColorMatrix type="matrix" values="0 0 0 0 0.380392 0 0 0 0 0.952941 0 0 0 0 0.027451 0 0 0 0.94 0"/>
      <feBlend mode="normal" in2="BackgroundImageFix" result="effect1_dropShadow_500"/>
      <feBlend mode="normal" in="SourceGraphic" in2="effect1_dropShadow_500" result="shape"/>
    </filter>
    <filter id="filter9_f_500" x="76.4111" y="24.7975" width="11.1533" height="27.874" filterUnits="userSpaceOnUse" color-interpolation-filters="sRGB">
      <feFlood flood-opacity="0" result="BackgroundImageFix"/>
      <feBlend mode="normal" in="SourceGraphic" in2="BackgroundImageFix" result="shape"/>
      <feGaussianBlur stdDeviation="1" result="effect1_foregroundBlur_500"/>
    </filter>
    <filter id="filter10_d_500" x="129.392" y="73.9527" width="66.4375" height="66.7821" filterUnits="userSpaceOnUse" color-interpolation-filters="sRGB">
      <feFlood flood-opacity="0" result="BackgroundImageFix"/>
      <feColorMatrix in="SourceAlpha" type="matrix" values="0 0 0 0 0 0 0 0 0 0 0 0 0 0 0 0 0 0 127 0" result="hardAlpha"/>
      <feOffset/>
      <feGaussianBlur stdDeviation="11"/>
      <feComposite in2="hardAlpha" operator="out"/>
      <feColorMatrix type="matrix" values="0 0 0 0 0.247059 0 0 0 0 0.0745098 0 0 0 0 0.929412 0 0 0 0.94 0"/>
      <feBlend mode="normal" in2="BackgroundImageFix" result="effect1_dropShadow_500"/>
      <feBlend mode="normal" in="SourceGraphic" in2="effect1_dropShadow_500" result="shape"/>
    </filter>
    <filter id="filter11_f_500" x="150.893" y="95.4529" width="23.4365" height="23.7817" filterUnits="userSpaceOnUse" color-interpolation-filters="sRGB">
      <feFlood flood-opacity="0" result="BackgroundImageFix"/>
      <feBlend mode="normal" in="SourceGraphic" in2="BackgroundImageFix" result="shape"/>
      <feGaussianBlur stdDeviation="1" result="effect1_foregroundBlur_500"/>
    </filter>
    <filter id="filter12_f_500" x="84.0986" y="144.19" width="44.6689" height="57.0525" filterUnits="userSpaceOnUse" color-interpolation-filters="sRGB">
      <feFlood flood-opacity="0" result="BackgroundImageFix"/>
      <feBlend mode="normal" in="SourceGraphic" in2="BackgroundImageFix" result="shape"/>
      <feGaussianBlur stdDeviation="1" result="effect1_foregroundBlur_500"/>
    </filter>
    <filter id="filter13_f_500" x="52.9404" y="113.478" width="115.46" height="138.129" filterUnits="userSpaceOnUse" color-interpolation-filters="sRGB">
      <feFlood flood-opacity="0" result="BackgroundImageFix"/>
      <feBlend mode="normal" in="SourceGraphic" in2="BackgroundImageFix" result="shape"/>
      <feGaussianBlur stdDeviation="1" result="effect1_foregroundBlur_500"/>
    </filter>
    <filter id="filter14_d_500" x="93.082" y="0.604736" width="66.502" height="83.8365" filterUnits="userSpaceOnUse" color-interpolation-filters="sRGB">
      <feFlood flood-opacity="0" result="BackgroundImageFix"/>
      <feColorMatrix in="SourceAlpha" type="matrix" values="0 0 0 0 0 0 0 0 0 0 0 0 0 0 0 0 0 0 127 0" result="hardAlpha"/>
      <feOffset/>
      <feGaussianBlur stdDeviation="11"/>
      <feComposite in2="hardAlpha" operator="out"/>
      <feColorMatrix type="matrix" values="0 0 0 0 0.0745098 0 0 0 0 0.776471 0 0 0 0 0.929412 0 0 0 0.94 0"/>
      <feBlend mode="normal" in2="BackgroundImageFix" result="effect1_dropShadow_500"/>
      <feBlend mode="normal" in="SourceGraphic" in2="effect1_dropShadow_500" result="shape"/>
    </filter>
    <filter id="filter15_f_500" x="123.549" y="21.6049" width="15.0352" height="19.4774" filterUnits="userSpaceOnUse" color-interpolation-filters="sRGB">
      <feFlood flood-opacity="0" result="BackgroundImageFix"/>
      <feBlend mode="normal" in="SourceGraphic" in2="BackgroundImageFix" result="shape"/>
      <feGaussianBlur stdDeviation="1" result="effect1_foregroundBlur_500"/>
    </filter>
    <filter id="filter16_f_500" x="114.083" y="43.9632" width="15.0352" height="19.4774" filterUnits="userSpaceOnUse" color-interpolation-filters="sRGB">
      <feFlood flood-opacity="0" result="BackgroundImageFix"/>
      <feBlend mode="normal" in="SourceGraphic" in2="BackgroundImageFix" result="shape"/>
      <feGaussianBlur stdDeviation="1" result="effect1_foregroundBlur_500"/>
    </filter>
    <filter id="filter17_f_500" x="119.105" y="36.5132" width="14.4531" height="12.0245" filterUnits="userSpaceOnUse" color-interpolation-filters="sRGB">
      <feFlood flood-opacity="0" result="BackgroundImageFix"/>
      <feBlend mode="normal" in="SourceGraphic" in2="BackgroundImageFix" result="shape"/>
      <feGaussianBlur stdDeviation="1" result="effect1_foregroundBlur_500"/>
    </filter>
  </defs>
</svg>
