<svg width="261" height="309" viewBox="0 0 261 309" fill="none"
  xmlns="http://www.w3.org/2000/svg">
  <path d="M126.249 115.859L126.867 114.692C132.066 104.877 142.734 97.0055 155.48 93.5807L160.009 92.3636" stroke="#505050" stroke-opacity="0.3" stroke-width="3" stroke-linecap="round"/>
  <path d="M99.9889 48.0882L101.27 55.4547C102.637 63.3166 99.1515 70.5455 92.8373 72.9431V72.9431C87.0427 75.1435 83.5731 81.45 84.1792 88.6806L85.3824 103.033" stroke="#505050" stroke-opacity="0.3" stroke-width="3" stroke-linecap="round"/>
  <path d="M179.688 142.977C192.977 140.449 202.037 119.281 220.46 114.858" stroke="#505050" stroke-opacity="0.3" stroke-width="3" stroke-linecap="round"/>
  <path d="M181.031 58.3409L182.187 57.9652" stroke="#505050" stroke-opacity="0.3" stroke-width="3" stroke-linecap="round"/>
  <path d="M184.789 69.9008L185.945 69.525" stroke="#505050" stroke-opacity="0.3" stroke-width="3" stroke-linecap="round"/>
  <path d="M207.909 62.3859L209.065 62.0101" stroke="#505050" stroke-opacity="0.3" stroke-width="3" stroke-linecap="round"/>
  <path d="M194.471 60.3635L195.627 59.9878" stroke="#505050" stroke-opacity="0.3" stroke-width="3" stroke-linecap="round"/>
  <path d="M198.228 71.9233L199.384 71.5476" stroke="#505050" stroke-opacity="0.3" stroke-width="3" stroke-linecap="round"/>
  <path d="M188.546 81.4608L189.702 81.0851" stroke="#505050" stroke-opacity="0.3" stroke-width="3" stroke-linecap="round"/>
  <path d="M223.884 91.9172C207.23 91.8563 195.191 97.2967 186.04 108.384" stroke="#505050" stroke-opacity="0.3" stroke-width="3" stroke-linecap="round"/>
  <path d="M105.532 114.558L108.356 111.063C114.61 103.321 116.669 92.2639 113.819 81.724V81.724" stroke="#505050" stroke-opacity="0.3" stroke-width="3" stroke-linecap="round"/>
  <path d="M163.332 52.0564L162.022 57.0771C159.477 66.8256 152.345 74.8504 142.842 78.6599V78.6599" stroke="#505050" stroke-opacity="0.3" stroke-width="3" stroke-linecap="round"/>
  <path d="M84.56 57.24C80.2884 53.9953 77.1686 43.6701 81.4902 35.3567" stroke="#505050" stroke-opacity="0.3" stroke-width="3" stroke-linecap="round"/>
  <path d="M154.989 110.056C156.353 107.963 158.587 106.454 161.258 106.097C166.124 105.445 170.597 108.861 171.249 113.727C171.901 118.594 168.485 123.067 163.619 123.719C159.189 124.312 155.085 121.534 153.892 117.36" stroke="#505050" stroke-opacity="0.3" stroke-width="3" stroke-linecap="round"/>
  <path d="M132.653 32.6687V32.6687C129.879 36.7848 130.966 42.3709 135.082 45.1457V45.1457" stroke="#505050" stroke-opacity="0.3" stroke-width="3" stroke-linecap="round"/>
  <path d="M120.01 67.5046V67.5046C122.785 63.3885 121.697 57.8024 117.581 55.0276V55.0276" stroke="#505050" stroke-opacity="0.3" stroke-width="3" stroke-linecap="round"/>
  <path d="M122.604 47.5771L130.056 52.6013" stroke="#505050" stroke-opacity="0.3" stroke-width="3" stroke-linecap="round"/>
  <path d="M124.771 175.967L123.672 161.313C123.354 157.071 118.844 154.498 115.03 156.383L94.7333 166.419C91.4981 168.018 90.397 172.092 92.3855 175.103L95.1908 179.352M108.291 199.193L98.2079 204.179C94.6438 205.941 90.3824 203.813 89.6509 199.905L88.1022 191.63M95.1914 179.352L100.581 187.515C101.312 188.621 102.52 189.319 103.843 189.399L120.198 190.38C121.635 190.467 122.027 192.402 120.736 193.04L114.019 196.361L108.292 199.193" stroke="#505050" stroke-opacity="0.3" stroke-width="3" stroke-linecap="round"/>
  <path d="M70.3424 134.209L56.6184 235.19C54.4399 251.22 72.8682 261.763 85.5831 251.762L154.44 197.598C165.239 189.103 168.874 174.135 159.558 164.036C143.976 147.144 115.833 128.289 72.4482 124.542" stroke="#505050" stroke-opacity="0.3" stroke-width="3" stroke-linecap="round"/>
  <path filter="url(#filter35_d_730_2790)" d="M70.3424 134.209L56.6184 235.19C54.4399 251.22 72.8682 261.764 85.5831 251.762L154.44 197.598C165.239 189.104 168.874 174.135 159.558 164.036C143.976 147.144 115.833 128.289 72.4482 124.542" stroke="white" stroke-width="5" stroke-linecap="round"/>
  <path filter="url(#filter36_f_730_2790)" d="M70.3424 134.21L56.6184 235.191C54.4399 251.221 72.8682 261.764 85.5831 251.762L154.44 197.599C165.239 189.104 168.874 174.135 159.558 164.036C143.976 147.145 115.833 128.289 72.4482 124.542" stroke="white" stroke-width="3" stroke-linecap="round"/>

  <g opacity="1">
    <animate attributeName="opacity" begin="0s" calcMode="discrete" dur="2s" repeatCount="indefinite" values="1;0"/>


    <path filter="url(#filter19_d_730_2790)" d="M223.884 91.9172C207.23 91.8563 195.191 97.2967 186.04 108.384" stroke="#ED1320" stroke-width="3" stroke-linecap="round"/>
    <path filter="url(#filter20_f_730_2790)" d="M223.884 91.9171C207.23 91.8561 195.191 97.2966 186.04 108.384" stroke="white" stroke-width="3" stroke-linecap="round"/>

    <path filter="url(#filter21_d_730_2790)" d="M105.532 114.558L108.356 111.063C114.61 103.321 116.669 92.2639 113.819 81.724V81.724" stroke="#ED1320" stroke-width="5" stroke-linecap="round"/>
    <path filter="url(#filter22_f_730_2790)" d="M105.532 114.558L108.356 111.063C114.61 103.321 116.669 92.2639 113.819 81.724V81.724" stroke="white" stroke-width="3" stroke-linecap="round"/>

    <path filter="url(#filter23_d_730_2790)" d="M163.332 52.0564L162.022 57.077C159.477 66.8256 152.345 74.8504 142.842 78.6599V78.6599" stroke="#EF07F3" stroke-width="5" stroke-linecap="round"/>
    <path filter="url(#filter24_f_730_2790)" d="M163.332 52.3133L162.022 57.3339C159.477 67.0825 152.345 75.1072 142.842 78.9167V78.9167" stroke="white" stroke-width="2" stroke-linecap="round"/>

    <path filter="url(#filter25_d_730_2790)" d="M84.56 57.24C80.2884 53.9953 77.1686 43.6701 81.4902 35.3567" stroke="#64EA13" stroke-width="5" stroke-linecap="round"/>
    <path filter="url(#filter26_f_730_2790)" d="M84.56 57.24C80.2884 53.9953 77.1686 43.6701 81.4902 35.3567" stroke="white" stroke-width="2" stroke-linecap="round"/>

    <path filter="url(#filter27_d_730_2790)" d="M154.989 110.056C156.353 107.963 158.587 106.454 161.258 106.097C166.124 105.445 170.597 108.861 171.249 113.727C171.901 118.593 168.485 123.067 163.619 123.719C159.189 124.312 155.085 121.534 153.892 117.36" stroke="#3F13ED" stroke-width="5" stroke-linecap="round"/>
    <path filter="url(#filter28_f_730_2790)" d="M154.989 110.056C156.353 107.963 158.587 106.454 161.258 106.097C166.124 105.445 170.597 108.861 171.249 113.727C171.901 118.593 168.485 123.067 163.619 123.719C159.189 124.312 155.085 121.534 153.892 117.36" stroke="white" stroke-width="2" stroke-linecap="round"/>

    <path filter="url(#filter29_d_730_2790)" fill-rule="evenodd" clip-rule="evenodd" d="M134.051 30.5957C135.196 31.3675 135.498 32.9212 134.727 34.0661L131.1 39.446L136.48 43.0727C137.625 43.8445 137.927 45.3983 137.155 46.5431C136.383 47.688 134.83 47.9904 133.685 47.2186L126.232 42.1945L124.159 40.797L125.556 38.7241L130.581 31.2712C131.352 30.1264 132.906 29.8239 134.051 30.5957ZM118.613 69.5776C117.468 68.8058 117.165 67.2521 117.937 66.1072L121.564 60.7273L116.184 57.1006C115.039 56.3288 114.737 54.775 115.508 53.6302C116.28 52.4853 117.834 52.1829 118.979 52.9547L126.432 57.9788L128.505 59.3763L127.107 61.4492L122.083 68.9021C121.311 70.047 119.757 70.3494 118.613 69.5776ZM124.001 45.5042C122.856 44.7324 121.302 45.0348 120.531 46.1797C119.759 47.3245 120.061 48.8783 121.206 49.6501L128.659 54.6742C129.804 55.446 131.358 55.1436 132.129 53.9987C132.901 52.8539 132.599 51.3001 131.454 50.5283L124.001 45.5042Z" fill="#13C6ED"/>
    <path filter="url(#filter30_f_730_2790)" d="M132.655 32.6687L127.631 40.1215L135.084 45.1457" stroke="white" stroke-width="3" stroke-linecap="round"/>
    <path filter="url(#filter31_f_730_2790)" d="M120.012 67.504L125.036 60.0512L117.583 55.027" stroke="white" stroke-width="3" stroke-linecap="round"/>
    <path filter="url(#filter32_f_730_2790)" d="M122.605 47.577L130.058 52.6012" stroke="white" stroke-width="3" stroke-linecap="round"/>
    <path filter="url(#filter33_d_730_2790)" d="M124.771 175.967L123.672 161.313C123.354 157.07 118.844 154.497 115.03 156.383L94.7333 166.419C91.4981 168.018 90.397 172.091 92.3855 175.103L95.1908 179.352M108.291 199.193L98.2079 204.179C94.6438 205.941 90.3824 203.813 89.6509 199.904L88.1022 191.63M95.1914 179.352L100.581 187.515C101.312 188.621 102.52 189.319 103.843 189.399L120.198 190.38C121.635 190.466 122.027 192.402 120.736 193.04L114.019 196.361L108.292 199.193" stroke="#EF07F3" stroke-width="5" stroke-linecap="round"/>
    <path filter="url(#filter34_f_730_2790)" d="M124.769 175.966L123.67 161.313C123.352 157.07 118.842 154.497 115.028 156.383L94.7313 166.418C91.4962 168.018 90.3951 172.091 92.3836 175.103L95.1889 179.351M108.289 199.193L98.2059 204.179C94.6418 205.941 90.3804 203.812 89.6489 199.904L88.1002 191.629M95.1894 179.351L100.579 187.515C101.31 188.621 102.518 189.319 103.842 189.398L120.196 190.38C121.633 190.466 122.025 192.401 120.734 193.039L114.018 196.361L108.29 199.193" stroke="white" stroke-width="4" stroke-linecap="round"/>

  </g>
  <g opacity="0">
    <animate attributeName="opacity" begin="0s" calcMode="discrete" dur="2s" repeatCount="indefinite" values="0;1"/>
    <path filter="url(#filter0_d_730_2790)" d="M126.249 115.859L126.867 114.692C132.066 104.877 142.734 97.0055 155.48 93.5807L160.009 92.3636" stroke="#EDD713" stroke-width="5" stroke-linecap="round"/>
    <path filter="url(#filter1_f_730_2790)" d="M126.249 115.859L126.867 114.692C132.066 104.877 142.734 97.0055 155.48 93.5807L160.009 92.3636" stroke="white" stroke-width="2" stroke-linecap="round"/>
    <path filter="url(#filter2_d_730_2790)" d="M99.9889 48.0882L101.27 55.4547C102.637 63.3166 99.1515 70.5455 92.8373 72.9431V72.9431C87.0427 75.1435 83.5731 81.45 84.1792 88.6806L85.3824 103.033" stroke="#3F13ED" stroke-width="5" stroke-linecap="round"/>
    <path filter="url(#filter3_f_730_2790)" d="M99.9889 48.0882L101.27 55.4547C102.637 63.3166 99.1515 70.5455 92.8373 72.9431V72.9431C87.0427 75.1435 83.5731 81.45 84.1792 88.6806L85.3824 103.033" stroke="white" stroke-width="2" stroke-linecap="round"/>
    <path filter="url(#filter4_d_730_2790)" d="M179.688 142.977C192.977 140.449 202.037 119.281 220.46 114.858" stroke="#13C6ED" stroke-width="5" stroke-linecap="round"/>
    <path filter="url(#filter5_f_730_2790)" d="M179.688 142.977C192.977 140.449 202.037 119.281 220.46 114.858" stroke="white" stroke-width="3" stroke-linecap="round"/>
    <path filter="url(#filter6_d_730_2790)" d="M181.031 58.3409L182.187 57.9652" stroke="#64EA13" stroke-width="5" stroke-linecap="round"/>
    <path filter="url(#filter7_d_730_2790)" d="M184.789 69.9008L185.945 69.525" stroke="#64EA13" stroke-width="5" stroke-linecap="round"/>
    <path filter="url(#filter8_d_730_2790)" d="M207.908 62.3859L209.064 62.0101" stroke="#64EA13" stroke-width="5" stroke-linecap="round"/>
    <path filter="url(#filter9_d_730_2790)" d="M194.471 60.3635L195.627 59.9878" stroke="#64EA13" stroke-width="5" stroke-linecap="round"/>
    <path filter="url(#filter10_d_730_2790)" d="M198.228 71.9233L199.384 71.5476" stroke="#64EA13" stroke-width="5" stroke-linecap="round"/>
    <path filter="url(#filter11_d_730_2790)" d="M188.546 81.4608L189.702 81.0851" stroke="#64EA13" stroke-width="5" stroke-linecap="round"/>
    <g filter="url(#filter12_f_730_2790)">
      <path filter="url(#filter13_d_730_2790)" d="M181.031 58.3409L182.187 57.9652" stroke="white" stroke-width="5" stroke-linecap="round"/>
      <path filter="url(#filter14_d_730_2790)" d="M184.789 69.9008L185.945 69.525" stroke="white" stroke-width="5" stroke-linecap="round"/>
      <path filter="url(#filter15_d_730_2790)" d="M207.908 62.3859L209.064 62.0101" stroke="white" stroke-width="5" stroke-linecap="round"/>
      <path filter="url(#filter16_d_730_2790)" d="M194.471 60.3635L195.627 59.9878" stroke="white" stroke-width="5" stroke-linecap="round"/>
      <path filter="url(#filter17_d_730_2790)" d="M198.228 71.9233L199.384 71.5476" stroke="white" stroke-width="5" stroke-linecap="round"/>
      <path filter="url(#filter18_d_730_2790)" d="M188.546 81.4608L189.702 81.0851" stroke="white" stroke-width="5" stroke-linecap="round"/>
    </g>
  </g>
  <defs>
    <filter id="filter0_d_730_2790" x="101.465" y="68.1835" width="83.3281" height="71.8561" filterUnits="userSpaceOnUse" color-interpolation-filters="sRGB">
      <feFlood flood-opacity="0" result="BackgroundImageFix"/>
      <feColorMatrix in="SourceAlpha" type="matrix" values="0 0 0 0 0 0 0 0 0 0 0 0 0 0 0 0 0 0 127 0" result="hardAlpha"/>
      <feOffset/>
      <feGaussianBlur stdDeviation="11"/>
      <feComposite in2="hardAlpha" operator="out"/>
      <feColorMatrix type="matrix" values="0 0 0 0 0.929167 0 0 0 0 0.843606 0 0 0 0 0.073559 0 0 0 0.94 0"/>
      <feBlend mode="normal" in2="BackgroundImageFix" result="effect1_dropShadow_730_2790"/>
      <feBlend mode="normal" in="SourceGraphic" in2="effect1_dropShadow_730_2790" result="shape"/>
    </filter>
    <filter id="filter1_f_730_2790" x="123.136" y="89.4916" width="39.9863" height="29.2399" filterUnits="userSpaceOnUse" color-interpolation-filters="sRGB">
      <feFlood flood-opacity="0" result="BackgroundImageFix"/>
      <feBlend mode="normal" in="SourceGraphic" in2="BackgroundImageFix" result="shape"/>
      <feGaussianBlur stdDeviation="1" result="effect1_foregroundBlur_730_2790"/>
    </filter>
    <filter id="filter2_d_730_2790" x="59.7705" y="23.438" width="66.1348" height="104.245" filterUnits="userSpaceOnUse" color-interpolation-filters="sRGB">
      <feFlood flood-opacity="0" result="BackgroundImageFix"/>
      <feColorMatrix in="SourceAlpha" type="matrix" values="0 0 0 0 0 0 0 0 0 0 0 0 0 0 0 0 0 0 127 0" result="hardAlpha"/>
      <feOffset/>
      <feGaussianBlur stdDeviation="11"/>
      <feComposite in2="hardAlpha" operator="out"/>
      <feColorMatrix type="matrix" values="0 0 0 0 0.247059 0 0 0 0 0.0745098 0 0 0 0 0.929412 0 0 0 0.94 0"/>
      <feBlend mode="normal" in2="BackgroundImageFix" result="effect1_dropShadow_730_2790"/>
      <feBlend mode="normal" in="SourceGraphic" in2="effect1_dropShadow_730_2790" result="shape"/>
    </filter>
    <filter id="filter3_f_730_2790" x="81.1748" y="45.0281" width="23.3262" height="61.0651" filterUnits="userSpaceOnUse" color-interpolation-filters="sRGB">
      <feFlood flood-opacity="0" result="BackgroundImageFix"/>
      <feBlend mode="normal" in="SourceGraphic" in2="BackgroundImageFix" result="shape"/>
      <feGaussianBlur stdDeviation="1" result="effect1_foregroundBlur_730_2790"/>
    </filter>
    <filter id="filter4_d_730_2790" x="155.188" y="90.3578" width="89.7725" height="77.1193" filterUnits="userSpaceOnUse" color-interpolation-filters="sRGB">
      <feFlood flood-opacity="0" result="BackgroundImageFix"/>
      <feColorMatrix in="SourceAlpha" type="matrix" values="0 0 0 0 0 0 0 0 0 0 0 0 0 0 0 0 0 0 127 0" result="hardAlpha"/>
      <feOffset/>
      <feGaussianBlur stdDeviation="11"/>
      <feComposite in2="hardAlpha" operator="out"/>
      <feColorMatrix type="matrix" values="0 0 0 0 0.0745098 0 0 0 0 0.776471 0 0 0 0 0.929412 0 0 0 0.94 0"/>
      <feBlend mode="normal" in2="BackgroundImageFix" result="effect1_dropShadow_730_2790"/>
      <feBlend mode="normal" in="SourceGraphic" in2="effect1_dropShadow_730_2790" result="shape"/>
    </filter>
    <filter id="filter5_f_730_2790" x="176.188" y="111.358" width="47.7715" height="35.1189" filterUnits="userSpaceOnUse" color-interpolation-filters="sRGB">
      <feFlood flood-opacity="0" result="BackgroundImageFix"/>
      <feBlend mode="normal" in="SourceGraphic" in2="BackgroundImageFix" result="shape"/>
      <feGaussianBlur stdDeviation="1" result="effect1_foregroundBlur_730_2790"/>
    </filter>
    <filter id="filter6_d_730_2790" x="173.53" y="50.4645" width="16.1572" height="15.3772" filterUnits="userSpaceOnUse" color-interpolation-filters="sRGB">
      <feFlood flood-opacity="0" result="BackgroundImageFix"/>
      <feColorMatrix in="SourceAlpha" type="matrix" values="0 0 0 0 0 0 0 0 0 0 0 0 0 0 0 0 0 0 127 0" result="hardAlpha"/>
      <feOffset/>
      <feGaussianBlur stdDeviation="2.5"/>
      <feComposite in2="hardAlpha" operator="out"/>
      <feColorMatrix type="matrix" values="0 0 0 0 0.380392 0 0 0 0 0.952941 0 0 0 0 0.027451 0 0 0 0.94 0"/>
      <feBlend mode="normal" in2="BackgroundImageFix" result="effect1_dropShadow_730_2790"/>
      <feBlend mode="normal" in="SourceGraphic" in2="effect1_dropShadow_730_2790" result="shape"/>
    </filter>
    <filter id="filter7_d_730_2790" x="177.288" y="62.0243" width="16.1572" height="15.3772" filterUnits="userSpaceOnUse" color-interpolation-filters="sRGB">
      <feFlood flood-opacity="0" result="BackgroundImageFix"/>
      <feColorMatrix in="SourceAlpha" type="matrix" values="0 0 0 0 0 0 0 0 0 0 0 0 0 0 0 0 0 0 127 0" result="hardAlpha"/>
      <feOffset/>
      <feGaussianBlur stdDeviation="2.5"/>
      <feComposite in2="hardAlpha" operator="out"/>
      <feColorMatrix type="matrix" values="0 0 0 0 0.380392 0 0 0 0 0.952941 0 0 0 0 0.027451 0 0 0 0.94 0"/>
      <feBlend mode="normal" in2="BackgroundImageFix" result="effect1_dropShadow_730_2790"/>
      <feBlend mode="normal" in="SourceGraphic" in2="effect1_dropShadow_730_2790" result="shape"/>
    </filter>
    <filter id="filter8_d_730_2790" x="200.407" y="54.5094" width="16.1572" height="15.3772" filterUnits="userSpaceOnUse" color-interpolation-filters="sRGB">
      <feFlood flood-opacity="0" result="BackgroundImageFix"/>
      <feColorMatrix in="SourceAlpha" type="matrix" values="0 0 0 0 0 0 0 0 0 0 0 0 0 0 0 0 0 0 127 0" result="hardAlpha"/>
      <feOffset/>
      <feGaussianBlur stdDeviation="2.5"/>
      <feComposite in2="hardAlpha" operator="out"/>
      <feColorMatrix type="matrix" values="0 0 0 0 0.380392 0 0 0 0 0.952941 0 0 0 0 0.027451 0 0 0 0.94 0"/>
      <feBlend mode="normal" in2="BackgroundImageFix" result="effect1_dropShadow_730_2790"/>
      <feBlend mode="normal" in="SourceGraphic" in2="effect1_dropShadow_730_2790" result="shape"/>
    </filter>
    <filter id="filter9_d_730_2790" x="186.97" y="52.4871" width="16.1572" height="15.3772" filterUnits="userSpaceOnUse" color-interpolation-filters="sRGB">
      <feFlood flood-opacity="0" result="BackgroundImageFix"/>
      <feColorMatrix in="SourceAlpha" type="matrix" values="0 0 0 0 0 0 0 0 0 0 0 0 0 0 0 0 0 0 127 0" result="hardAlpha"/>
      <feOffset/>
      <feGaussianBlur stdDeviation="2.5"/>
      <feComposite in2="hardAlpha" operator="out"/>
      <feColorMatrix type="matrix" values="0 0 0 0 0.380392 0 0 0 0 0.952941 0 0 0 0 0.027451 0 0 0 0.94 0"/>
      <feBlend mode="normal" in2="BackgroundImageFix" result="effect1_dropShadow_730_2790"/>
      <feBlend mode="normal" in="SourceGraphic" in2="effect1_dropShadow_730_2790" result="shape"/>
    </filter>
    <filter id="filter10_d_730_2790" x="190.727" y="64.0469" width="16.1572" height="15.3772" filterUnits="userSpaceOnUse" color-interpolation-filters="sRGB">
      <feFlood flood-opacity="0" result="BackgroundImageFix"/>
      <feColorMatrix in="SourceAlpha" type="matrix" values="0 0 0 0 0 0 0 0 0 0 0 0 0 0 0 0 0 0 127 0" result="hardAlpha"/>
      <feOffset/>
      <feGaussianBlur stdDeviation="2.5"/>
      <feComposite in2="hardAlpha" operator="out"/>
      <feColorMatrix type="matrix" values="0 0 0 0 0.380392 0 0 0 0 0.952941 0 0 0 0 0.027451 0 0 0 0.94 0"/>
      <feBlend mode="normal" in2="BackgroundImageFix" result="effect1_dropShadow_730_2790"/>
      <feBlend mode="normal" in="SourceGraphic" in2="effect1_dropShadow_730_2790" result="shape"/>
    </filter>
    <filter id="filter11_d_730_2790" x="181.045" y="73.5844" width="16.1572" height="15.3772" filterUnits="userSpaceOnUse" color-interpolation-filters="sRGB">
      <feFlood flood-opacity="0" result="BackgroundImageFix"/>
      <feColorMatrix in="SourceAlpha" type="matrix" values="0 0 0 0 0 0 0 0 0 0 0 0 0 0 0 0 0 0 127 0" result="hardAlpha"/>
      <feOffset/>
      <feGaussianBlur stdDeviation="2.5"/>
      <feComposite in2="hardAlpha" operator="out"/>
      <feColorMatrix type="matrix" values="0 0 0 0 0.380392 0 0 0 0 0.952941 0 0 0 0 0.027451 0 0 0 0.94 0"/>
      <feBlend mode="normal" in2="BackgroundImageFix" result="effect1_dropShadow_730_2790"/>
      <feBlend mode="normal" in="SourceGraphic" in2="effect1_dropShadow_730_2790" result="shape"/>
    </filter>
    <filter id="filter12_f_730_2790" x="176.53" y="53.4645" width="37.0342" height="32.4971" filterUnits="userSpaceOnUse" color-interpolation-filters="sRGB">
      <feFlood flood-opacity="0" result="BackgroundImageFix"/>
      <feBlend mode="normal" in="SourceGraphic" in2="BackgroundImageFix" result="shape"/>
      <feGaussianBlur stdDeviation="1" result="effect1_foregroundBlur_730_2790"/>
    </filter>
    <filter id="filter13_d_730_2790" x="173.53" y="50.4645" width="16.1572" height="15.3772" filterUnits="userSpaceOnUse" color-interpolation-filters="sRGB">
      <feFlood flood-opacity="0" result="BackgroundImageFix"/>
      <feColorMatrix in="SourceAlpha" type="matrix" values="0 0 0 0 0 0 0 0 0 0 0 0 0 0 0 0 0 0 127 0" result="hardAlpha"/>
      <feOffset/>
      <feGaussianBlur stdDeviation="2.5"/>
      <feComposite in2="hardAlpha" operator="out"/>
      <feColorMatrix type="matrix" values="0 0 0 0 0.380392 0 0 0 0 0.952941 0 0 0 0 0.027451 0 0 0 0.94 0"/>
      <feBlend mode="normal" in2="BackgroundImageFix" result="effect1_dropShadow_730_2790"/>
      <feBlend mode="normal" in="SourceGraphic" in2="effect1_dropShadow_730_2790" result="shape"/>
    </filter>
    <filter id="filter14_d_730_2790" x="177.288" y="62.0243" width="16.1572" height="15.3772" filterUnits="userSpaceOnUse" color-interpolation-filters="sRGB">
      <feFlood flood-opacity="0" result="BackgroundImageFix"/>
      <feColorMatrix in="SourceAlpha" type="matrix" values="0 0 0 0 0 0 0 0 0 0 0 0 0 0 0 0 0 0 127 0" result="hardAlpha"/>
      <feOffset/>
      <feGaussianBlur stdDeviation="2.5"/>
      <feComposite in2="hardAlpha" operator="out"/>
      <feColorMatrix type="matrix" values="0 0 0 0 0.380392 0 0 0 0 0.952941 0 0 0 0 0.027451 0 0 0 0.94 0"/>
      <feBlend mode="normal" in2="BackgroundImageFix" result="effect1_dropShadow_730_2790"/>
      <feBlend mode="normal" in="SourceGraphic" in2="effect1_dropShadow_730_2790" result="shape"/>
    </filter>
    <filter id="filter15_d_730_2790" x="200.407" y="54.5094" width="16.1572" height="15.3772" filterUnits="userSpaceOnUse" color-interpolation-filters="sRGB">
      <feFlood flood-opacity="0" result="BackgroundImageFix"/>
      <feColorMatrix in="SourceAlpha" type="matrix" values="0 0 0 0 0 0 0 0 0 0 0 0 0 0 0 0 0 0 127 0" result="hardAlpha"/>
      <feOffset/>
      <feGaussianBlur stdDeviation="2.5"/>
      <feComposite in2="hardAlpha" operator="out"/>
      <feColorMatrix type="matrix" values="0 0 0 0 0.380392 0 0 0 0 0.952941 0 0 0 0 0.027451 0 0 0 0.94 0"/>
      <feBlend mode="normal" in2="BackgroundImageFix" result="effect1_dropShadow_730_2790"/>
      <feBlend mode="normal" in="SourceGraphic" in2="effect1_dropShadow_730_2790" result="shape"/>
    </filter>
    <filter id="filter16_d_730_2790" x="186.97" y="52.4871" width="16.1572" height="15.3772" filterUnits="userSpaceOnUse" color-interpolation-filters="sRGB">
      <feFlood flood-opacity="0" result="BackgroundImageFix"/>
      <feColorMatrix in="SourceAlpha" type="matrix" values="0 0 0 0 0 0 0 0 0 0 0 0 0 0 0 0 0 0 127 0" result="hardAlpha"/>
      <feOffset/>
      <feGaussianBlur stdDeviation="2.5"/>
      <feComposite in2="hardAlpha" operator="out"/>
      <feColorMatrix type="matrix" values="0 0 0 0 0.380392 0 0 0 0 0.952941 0 0 0 0 0.027451 0 0 0 0.94 0"/>
      <feBlend mode="normal" in2="BackgroundImageFix" result="effect1_dropShadow_730_2790"/>
      <feBlend mode="normal" in="SourceGraphic" in2="effect1_dropShadow_730_2790" result="shape"/>
    </filter>
    <filter id="filter17_d_730_2790" x="190.727" y="64.0469" width="16.1572" height="15.3772" filterUnits="userSpaceOnUse" color-interpolation-filters="sRGB">
      <feFlood flood-opacity="0" result="BackgroundImageFix"/>
      <feColorMatrix in="SourceAlpha" type="matrix" values="0 0 0 0 0 0 0 0 0 0 0 0 0 0 0 0 0 0 127 0" result="hardAlpha"/>
      <feOffset/>
      <feGaussianBlur stdDeviation="2.5"/>
      <feComposite in2="hardAlpha" operator="out"/>
      <feColorMatrix type="matrix" values="0 0 0 0 0.380392 0 0 0 0 0.952941 0 0 0 0 0.027451 0 0 0 0.94 0"/>
      <feBlend mode="normal" in2="BackgroundImageFix" result="effect1_dropShadow_730_2790"/>
      <feBlend mode="normal" in="SourceGraphic" in2="effect1_dropShadow_730_2790" result="shape"/>
    </filter>
    <filter id="filter18_d_730_2790" x="181.045" y="73.5844" width="16.1572" height="15.3772" filterUnits="userSpaceOnUse" color-interpolation-filters="sRGB">
      <feFlood flood-opacity="0" result="BackgroundImageFix"/>
      <feColorMatrix in="SourceAlpha" type="matrix" values="0 0 0 0 0 0 0 0 0 0 0 0 0 0 0 0 0 0 127 0" result="hardAlpha"/>
      <feOffset/>
      <feGaussianBlur stdDeviation="2.5"/>
      <feComposite in2="hardAlpha" operator="out"/>
      <feColorMatrix type="matrix" values="0 0 0 0 0.380392 0 0 0 0 0.952941 0 0 0 0 0.027451 0 0 0 0.94 0"/>
      <feBlend mode="normal" in2="BackgroundImageFix" result="effect1_dropShadow_730_2790"/>
      <feBlend mode="normal" in="SourceGraphic" in2="effect1_dropShadow_730_2790" result="shape"/>
    </filter>
    <filter id="filter19_d_730_2790" x="172.54" y="78.4167" width="64.8438" height="43.4677" filterUnits="userSpaceOnUse" color-interpolation-filters="sRGB">
      <feFlood flood-opacity="0" result="BackgroundImageFix"/>
      <feColorMatrix in="SourceAlpha" type="matrix" values="0 0 0 0 0 0 0 0 0 0 0 0 0 0 0 0 0 0 127 0" result="hardAlpha"/>
      <feOffset/>
      <feGaussianBlur stdDeviation="6"/>
      <feComposite in2="hardAlpha" operator="out"/>
      <feColorMatrix type="matrix" values="0 0 0 0 0.929412 0 0 0 0 0.0745098 0 0 0 0 0.12549 0 0 0 0.94 0"/>
      <feBlend mode="normal" in2="BackgroundImageFix" result="effect1_dropShadow_730_2790"/>
      <feBlend mode="normal" in="SourceGraphic" in2="effect1_dropShadow_730_2790" result="shape"/>
    </filter>
    <filter id="filter20_f_730_2790" x="182.54" y="88.4166" width="44.8438" height="23.4677" filterUnits="userSpaceOnUse" color-interpolation-filters="sRGB">
      <feFlood flood-opacity="0" result="BackgroundImageFix"/>
      <feBlend mode="normal" in="SourceGraphic" in2="BackgroundImageFix" result="shape"/>
      <feGaussianBlur stdDeviation="1" result="effect1_foregroundBlur_730_2790"/>
    </filter>
    <filter id="filter21_d_730_2790" x="91.1738" y="67.0891" width="38.2627" height="62.1036" filterUnits="userSpaceOnUse" color-interpolation-filters="sRGB">
      <feFlood flood-opacity="0" result="BackgroundImageFix"/>
      <feColorMatrix in="SourceAlpha" type="matrix" values="0 0 0 0 0 0 0 0 0 0 0 0 0 0 0 0 0 0 127 0" result="hardAlpha"/>
      <feOffset/>
      <feGaussianBlur stdDeviation="6"/>
      <feComposite in2="hardAlpha" operator="out"/>
      <feColorMatrix type="matrix" values="0 0 0 0 0.929412 0 0 0 0 0.0745098 0 0 0 0 0.12549 0 0 0 0.94 0"/>
      <feBlend mode="normal" in2="BackgroundImageFix" result="effect1_dropShadow_730_2790"/>
      <feBlend mode="normal" in="SourceGraphic" in2="effect1_dropShadow_730_2790" result="shape"/>
    </filter>
    <filter id="filter22_f_730_2790" x="102.117" y="79.3676" width="16.376" height="38.7715" filterUnits="userSpaceOnUse" color-interpolation-filters="sRGB">
      <feFlood flood-opacity="0" result="BackgroundImageFix"/>
      <feBlend mode="normal" in="SourceGraphic" in2="BackgroundImageFix" result="shape"/>
      <feGaussianBlur stdDeviation="1" result="effect1_foregroundBlur_730_2790"/>
    </filter>
    <filter id="filter23_d_730_2790" x="118.318" y="27.5789" width="69.5371" height="75.5587" filterUnits="userSpaceOnUse" color-interpolation-filters="sRGB">
      <feFlood flood-opacity="0" result="BackgroundImageFix"/>
      <feColorMatrix in="SourceAlpha" type="matrix" values="0 0 0 0 0 0 0 0 0 0 0 0 0 0 0 0 0 0 127 0" result="hardAlpha"/>
      <feOffset/>
      <feGaussianBlur stdDeviation="11"/>
      <feComposite in2="hardAlpha" operator="out"/>
      <feColorMatrix type="matrix" values="0 0 0 0 0.937255 0 0 0 0 0.027451 0 0 0 0 0.952941 0 0 0 0.94 0"/>
      <feBlend mode="normal" in2="BackgroundImageFix" result="effect1_dropShadow_730_2790"/>
      <feBlend mode="normal" in="SourceGraphic" in2="effect1_dropShadow_730_2790" result="shape"/>
    </filter>
    <filter id="filter24_f_730_2790" x="140.472" y="49.3223" width="25.8701" height="32.5111" filterUnits="userSpaceOnUse" color-interpolation-filters="sRGB">
      <feFlood flood-opacity="0" result="BackgroundImageFix"/>
      <feBlend mode="normal" in="SourceGraphic" in2="BackgroundImageFix" result="shape"/>
      <feGaussianBlur stdDeviation="1" result="effect1_foregroundBlur_730_2790"/>
    </filter>
    <filter id="filter25_d_730_2790" x="54.9043" y="10.8682" width="54.168" height="70.86" filterUnits="userSpaceOnUse" color-interpolation-filters="sRGB">
      <feFlood flood-opacity="0" result="BackgroundImageFix"/>
      <feColorMatrix in="SourceAlpha" type="matrix" values="0 0 0 0 0 0 0 0 0 0 0 0 0 0 0 0 0 0 127 0" result="hardAlpha"/>
      <feOffset/>
      <feGaussianBlur stdDeviation="11"/>
      <feComposite in2="hardAlpha" operator="out"/>
      <feColorMatrix type="matrix" values="0 0 0 0 0.380392 0 0 0 0 0.952941 0 0 0 0 0.027451 0 0 0 0.94 0"/>
      <feBlend mode="normal" in2="BackgroundImageFix" result="effect1_dropShadow_730_2790"/>
      <feBlend mode="normal" in="SourceGraphic" in2="effect1_dropShadow_730_2790" result="shape"/>
    </filter>
    <filter id="filter26_f_730_2790" x="76.4111" y="32.3613" width="11.1533" height="27.8739" filterUnits="userSpaceOnUse" color-interpolation-filters="sRGB">
      <feFlood flood-opacity="0" result="BackgroundImageFix"/>
      <feBlend mode="normal" in="SourceGraphic" in2="BackgroundImageFix" result="shape"/>
      <feGaussianBlur stdDeviation="1" result="effect1_foregroundBlur_730_2790"/>
    </filter>
    <filter id="filter27_d_730_2790" x="129.392" y="81.5165" width="66.4375" height="66.7821" filterUnits="userSpaceOnUse" color-interpolation-filters="sRGB">
      <feFlood flood-opacity="0" result="BackgroundImageFix"/>
      <feColorMatrix in="SourceAlpha" type="matrix" values="0 0 0 0 0 0 0 0 0 0 0 0 0 0 0 0 0 0 127 0" result="hardAlpha"/>
      <feOffset/>
      <feGaussianBlur stdDeviation="11"/>
      <feComposite in2="hardAlpha" operator="out"/>
      <feColorMatrix type="matrix" values="0 0 0 0 0.247059 0 0 0 0 0.0745098 0 0 0 0 0.929412 0 0 0 0.94 0"/>
      <feBlend mode="normal" in2="BackgroundImageFix" result="effect1_dropShadow_730_2790"/>
      <feBlend mode="normal" in="SourceGraphic" in2="effect1_dropShadow_730_2790" result="shape"/>
    </filter>
    <filter id="filter28_f_730_2790" x="150.893" y="103.017" width="23.4365" height="23.7817" filterUnits="userSpaceOnUse" color-interpolation-filters="sRGB">
      <feFlood flood-opacity="0" result="BackgroundImageFix"/>
      <feBlend mode="normal" in="SourceGraphic" in2="BackgroundImageFix" result="shape"/>
      <feGaussianBlur stdDeviation="1" result="effect1_foregroundBlur_730_2790"/>
    </filter>
    <filter id="filter29_d_730_2790" x="93.0811" y="8.16846" width="66.502" height="83.8364" filterUnits="userSpaceOnUse" color-interpolation-filters="sRGB">
      <feFlood flood-opacity="0" result="BackgroundImageFix"/>
      <feColorMatrix in="SourceAlpha" type="matrix" values="0 0 0 0 0 0 0 0 0 0 0 0 0 0 0 0 0 0 127 0" result="hardAlpha"/>
      <feOffset/>
      <feGaussianBlur stdDeviation="11"/>
      <feComposite in2="hardAlpha" operator="out"/>
      <feColorMatrix type="matrix" values="0 0 0 0 0.0745098 0 0 0 0 0.776471 0 0 0 0 0.929412 0 0 0 0.94 0"/>
      <feBlend mode="normal" in2="BackgroundImageFix" result="effect1_dropShadow_730_2790"/>
      <feBlend mode="normal" in="SourceGraphic" in2="effect1_dropShadow_730_2790" result="shape"/>
    </filter>
    <filter id="filter30_f_730_2790" x="123.549" y="29.1686" width="15.0352" height="19.4773" filterUnits="userSpaceOnUse" color-interpolation-filters="sRGB">
      <feFlood flood-opacity="0" result="BackgroundImageFix"/>
      <feBlend mode="normal" in="SourceGraphic" in2="BackgroundImageFix" result="shape"/>
      <feGaussianBlur stdDeviation="1" result="effect1_foregroundBlur_730_2790"/>
    </filter>
    <filter id="filter31_f_730_2790" x="114.083" y="51.5269" width="15.0352" height="19.4773" filterUnits="userSpaceOnUse" color-interpolation-filters="sRGB">
      <feFlood flood-opacity="0" result="BackgroundImageFix"/>
      <feBlend mode="normal" in="SourceGraphic" in2="BackgroundImageFix" result="shape"/>
      <feGaussianBlur stdDeviation="1" result="effect1_foregroundBlur_730_2790"/>
    </filter>
    <filter id="filter32_f_730_2790" x="119.105" y="44.0769" width="14.4531" height="12.0244" filterUnits="userSpaceOnUse" color-interpolation-filters="sRGB">
      <feFlood flood-opacity="0" result="BackgroundImageFix"/>
      <feBlend mode="normal" in="SourceGraphic" in2="BackgroundImageFix" result="shape"/>
      <feGaussianBlur stdDeviation="1" result="effect1_foregroundBlur_730_2790"/>
    </filter>
    <filter id="filter33_d_730_2790" x="63.6016" y="131.253" width="85.6689" height="98.0533" filterUnits="userSpaceOnUse" color-interpolation-filters="sRGB">
      <feFlood flood-opacity="0" result="BackgroundImageFix"/>
      <feColorMatrix in="SourceAlpha" type="matrix" values="0 0 0 0 0 0 0 0 0 0 0 0 0 0 0 0 0 0 127 0" result="hardAlpha"/>
      <feOffset/>
      <feGaussianBlur stdDeviation="11"/>
      <feComposite in2="hardAlpha" operator="out"/>
      <feColorMatrix type="matrix" values="0 0 0 0 0.937255 0 0 0 0 0.027451 0 0 0 0 0.952941 0 0 0 0.94 0"/>
      <feBlend mode="normal" in2="BackgroundImageFix" result="effect1_dropShadow_730_2790"/>
      <feBlend mode="normal" in="SourceGraphic" in2="effect1_dropShadow_730_2790" result="shape"/>
    </filter>
    <filter id="filter34_f_730_2790" x="84.0996" y="151.753" width="44.6689" height="57.0525" filterUnits="userSpaceOnUse" color-interpolation-filters="sRGB">
      <feFlood flood-opacity="0" result="BackgroundImageFix"/>
      <feBlend mode="normal" in="SourceGraphic" in2="BackgroundImageFix" result="shape"/>
      <feGaussianBlur stdDeviation="1" result="effect1_foregroundBlur_730_2790"/>
    </filter>
    <filter id="filter35_d_730_2790" x="31.9395" y="100.042" width="157.467" height="180.132" filterUnits="userSpaceOnUse" color-interpolation-filters="sRGB">
      <feFlood flood-opacity="0" result="BackgroundImageFix"/>
      <feColorMatrix in="SourceAlpha" type="matrix" values="0 0 0 0 0 0 0 0 0 0 0 0 0 0 0 0 0 0 127 0" result="hardAlpha"/>
      <feOffset/>
      <feGaussianBlur stdDeviation="11"/>
      <feComposite in2="hardAlpha" operator="out"/>
      <feColorMatrix type="matrix" values="0 0 0 0 1 0 0 0 0 1 0 0 0 0 1 0 0 0 0.73 0"/>
      <feBlend mode="normal" in2="BackgroundImageFix" result="effect1_dropShadow_730_2790"/>
      <feBlend mode="normal" in="SourceGraphic" in2="effect1_dropShadow_730_2790" result="shape"/>
    </filter>
    <filter id="filter36_f_730_2790" x="52.9404" y="121.042" width="115.46" height="138.129" filterUnits="userSpaceOnUse" color-interpolation-filters="sRGB">
      <feFlood flood-opacity="0" result="BackgroundImageFix"/>
      <feBlend mode="normal" in="SourceGraphic" in2="BackgroundImageFix" result="shape"/>
      <feGaussianBlur stdDeviation="1" result="effect1_foregroundBlur_730_2790"/>
    </filter>
  </defs>
</svg>
