<svg width="268" height="407" viewBox="0 0 268 407" fill="none"
  xmlns="http://www.w3.org/2000/svg">
  <g opacity="0.1">
    <path d="M177.749 40.0789L149.666 26.0375C143.894 23.1513 137.084 23.2279 131.378 26.2433L85.618 50.4252C79.0634 53.889 74.9625 60.6944 74.9625 68.1079V108.781V108.781C74.9625 111.281 72.9358 113.308 70.4357 113.308H65.6425C60.4952 113.308 56.3225 117.48 56.3225 122.628V160.44C56.3225 171.176 47.6194 179.879 36.8836 179.879H29.1612C22.6903 179.879 17.4446 185.125 17.4446 191.596V195.59C17.4446 199.855 13.9872 203.313 9.72231 203.313V203.313C5.4574 203.313 2 206.77 2 211.035V235.533" stroke="white" stroke-width="3" stroke-linecap="round" stroke-linejoin="round"/>
    <path d="M114.372 114.107V69.6367C114.372 61.9893 108.173 55.7898 100.525 55.7898V55.7898M37.6816 174.021V136.475V134.211C37.6816 127.52 43.1062 122.095 49.7977 122.095V122.095M37.6816 186.004V251.244M112.242 355.096V352.833C112.242 349.965 109.917 347.64 107.049 347.64V347.64C104.182 347.64 101.857 345.315 101.857 342.447V299.043C101.857 296.175 104.182 293.85 107.049 293.85V293.85C109.917 293.85 112.242 291.525 112.242 288.657V284.264C112.242 278.969 107.95 274.677 102.656 274.677H95.4658M146.06 393.974V392.776C146.06 383.437 138.49 375.866 129.151 375.866H120.763C116.057 375.866 112.242 372.051 112.242 367.345V367.345V366.813M82.9504 274.677H48.5994C42.5697 274.677 37.6816 269.789 37.6816 263.76V263.76" stroke="white" stroke-width="3" stroke-linecap="round" stroke-linejoin="round"/>
    <path d="M112.243 405.424V398.501C112.243 394.236 115.701 390.778 119.965 390.778V390.778C124.23 390.778 127.688 387.321 127.688 383.056V381.059M127.688 369.742V340.184M127.688 328.201V326.204C127.688 324.071 125.959 322.343 123.827 322.343V322.343C121.694 322.343 119.965 320.614 119.965 318.482V257.635V214.763" stroke="white" stroke-width="3" stroke-linecap="round" stroke-linejoin="round"/>
    <path d="M153.783 124.225V70.1693C153.783 62.2277 147.345 55.7898 139.403 55.7898V55.7898M153.783 173.755V183.607C153.783 189.049 158.194 193.46 163.635 193.46V193.46C169.077 193.46 173.488 197.871 173.488 203.313V309.028C173.488 311.676 171.342 313.822 168.695 313.822V313.822C166.048 313.822 163.902 315.967 163.902 318.615V330.331C163.902 339.449 171.293 346.841 180.411 346.841H198.253" stroke="white" stroke-width="3" stroke-linecap="round" stroke-linejoin="round"/>
    <path d="M193.194 164.168V68.8378C193.194 61.6316 187.352 55.7898 180.146 55.7898V55.7898M193.194 178.548V196.123C193.194 202.594 198.44 207.839 204.911 207.839V207.839C211.381 207.839 216.627 213.085 216.627 219.556V260.032C216.627 266.503 211.381 271.748 204.911 271.748V271.748M193.194 271.748H187.336M167.098 271.748V271.748C160.627 271.748 155.381 276.994 155.381 283.465V314.592C155.381 325.638 146.427 334.592 135.381 334.592H108.81C97.7639 334.592 88.8096 343.546 88.8096 354.592V374.269" stroke="white" stroke-width="3" stroke-linecap="round" stroke-linejoin="round"/>
    <path d="M81.3521 60.8494V105.319V114.373M2.53125 258.168H29.9303C40.976 258.168 49.9303 249.213 49.9303 238.168V233.137M49.9303 221.953V221.953C49.9303 217.835 53.2684 214.497 57.3863 214.497H57.9189C62.3308 214.497 65.9075 210.92 65.9075 206.508V172.423V163.902C65.9075 159.637 69.3649 156.18 73.6298 156.18V156.18C77.8947 156.18 81.3521 152.723 81.3521 148.458V129.285" stroke="white" stroke-width="3" stroke-linecap="round" stroke-linejoin="round"/>
    <path d="M160.175 174.287V183.874M160.175 199.318V234.468C160.175 238.88 163.751 242.457 168.163 242.457V242.457M178.815 242.457V242.457C189.698 242.457 198.52 251.279 198.52 262.162V300.507M173.223 385.719V354.031M198.52 314.887V314.887C198.52 320.769 193.751 325.538 187.869 325.538H185.871C178.886 325.538 173.223 331.201 173.223 338.187V339.651" stroke="white" stroke-width="3" stroke-linecap="round" stroke-linejoin="round"/>
    <path d="M199.585 64.311V127.421C199.585 133.304 204.354 138.072 210.236 138.072H210.769C216.358 138.072 220.888 142.603 220.888 148.191V148.191C220.888 153.78 225.418 158.31 231.007 158.31H235.8C244.036 158.31 250.712 164.987 250.712 173.222V250.445C250.712 254.563 254.05 257.901 258.168 257.901V257.901C262.286 257.901 265.624 261.24 265.624 265.357V281.068" stroke="white" stroke-width="3" stroke-linecap="round" stroke-linejoin="round"/>
    <path d="M121.03 114.107V83.3506V61.6482" stroke="white" stroke-width="3" stroke-linecap="round" stroke-linejoin="round"/>
    <path d="M160.175 62.9796V112.775C160.175 117.923 164.348 122.095 169.495 122.095V122.095C174.642 122.095 178.815 126.268 178.815 131.415V151.092C178.815 162.138 187.769 171.092 198.815 171.092H212.072C223.118 171.092 232.072 180.046 232.072 191.092V247.783V285.063C232.072 289.622 235.768 293.318 240.327 293.318V293.318C244.886 293.318 248.582 297.013 248.582 301.572V317.283" stroke="white" stroke-width="3" stroke-linecap="round" stroke-linejoin="round"/>
    <path d="M199.585 145.795V150.055C199.585 152.555 201.612 154.582 204.112 154.582V154.582C206.612 154.582 208.639 156.609 208.639 159.109V164.435M208.639 175.885V201.449M208.639 213.165V264.559M208.639 277.873V300.241" stroke="white" stroke-width="3" stroke-linecap="round" stroke-linejoin="round"/>
    <path d="M89.8741 231.805V221.154M100.792 55.7898V55.7898C93.5856 55.7898 87.7438 61.6316 87.7438 68.8378V105.319V114.107M89.8741 241.924V265.757C89.8741 275.095 82.3036 282.666 72.9649 282.666V282.666C63.6262 282.666 56.0557 290.236 56.0557 299.575V314.354M56.0557 324.207V324.207C56.0557 329.795 60.586 334.326 66.1746 334.326H66.7071C72.5898 334.326 77.3586 339.094 77.3586 344.977V354.83M188.4 378.263V368.41C188.4 363.998 184.824 360.422 180.412 360.422V360.422M89.8741 223.284V211.434C89.8741 207.684 92.9142 204.644 96.6644 204.644V204.644C100.415 204.644 103.455 201.604 103.455 197.854V146.727C103.455 142.388 99.9377 138.871 95.5992 138.871V138.871C91.2608 138.871 87.7438 135.354 87.7438 131.016V129.551M77.3586 352.966V354.563C77.3586 357.799 79.9814 360.422 83.2169 360.422V360.422M93.3358 360.422H121.03M135.542 360.422H167.097" stroke="white" stroke-width="3" stroke-linecap="round" stroke-linejoin="round"/>
    <path d="M140.736 55.7898V55.7898C133.236 55.7898 127.155 61.87 127.155 69.3704V102.095C127.155 113.141 118.201 122.095 107.155 122.095H86.1758C75.1301 122.095 66.1758 131.049 66.1758 142.095V148.191" stroke="white" stroke-width="3" stroke-linecap="round" stroke-linejoin="round"/>
    <path d="M121.296 176.684V176.684C121.296 183.008 116.17 188.134 109.846 188.134H96.9309C86.2686 188.134 77.6251 196.778 77.6251 207.44V207.44C77.6251 218.102 68.9816 226.746 58.3194 226.746H45.937M16.6455 278.406V264.692M16.6455 250.978V240.327C16.6455 232.826 22.7258 226.746 30.2261 226.746V226.746" stroke="white" stroke-width="3" stroke-linecap="round" stroke-linejoin="round"/>
    <path d="M127.155 173.489V197.188C127.155 201.306 123.817 204.644 119.699 204.644V204.644C115.581 204.644 112.243 207.982 112.243 212.1V227.012C112.243 232.159 108.071 236.332 102.923 236.332V236.332H92.5381V236.332C84.3024 236.332 77.626 243.009 77.626 251.244V267.488M77.626 288.524V299.147C77.626 310.193 68.6717 319.147 57.626 319.147H43.0088" stroke="white" stroke-width="3" stroke-linecap="round" stroke-linejoin="round"/>
    <path d="M166.565 114.107V69.1041C166.565 61.7508 172.526 55.7898 179.88 55.7898V55.7898M166.565 174.82V175.885C166.565 180.297 170.142 183.874 174.554 183.874V183.874C178.966 183.874 182.543 187.45 182.543 191.862V232.87M182.543 250.978V286.898C182.543 297.944 191.497 306.898 202.543 306.898H212.072C223.118 306.898 232.072 315.852 232.072 326.898V333.26" stroke="white" stroke-width="3" stroke-linecap="round" stroke-linejoin="round"/>
    <path d="M231.54 115.172H225.977C214.931 115.172 205.977 106.218 205.977 95.1718V72.8322C205.977 63.42 213.607 55.7899 223.019 55.7899V55.7899L140.47 12.3852L57.3887 55.7899H40.8789L140.47 2L231.54 49.399" stroke="white" stroke-width="3" stroke-linecap="round" stroke-linejoin="round"/>
    <path d="M144.196 36.3509L140.468 30.2263L134.077 40.3452L140.468 43.5406L146.859 40.8778L140.468 50.4641L137.273 46.4698" stroke="white" stroke-width="2" stroke-linecap="round" stroke-linejoin="round"/>
  </g>
  <g filter="url(#filter0_df_491_2179)">
    <path d="M145.88 310.354V227.276C145.88 225.511 144.449 224.08 142.684 224.08V224.08C141.755 224.08 141.002 223.327 141.002 222.398V221.95C141.002 209.958 141.046 190.118 141.07 178.955L141.07 178.944C141.08 174.579 141.087 171.543 141.087 170.824C141.087 167.629 141.886 162.836 144.016 162.836C145.358 162.836 151.36 165.81 153.848 167.073C154.564 167.437 155.353 167.629 156.156 167.629H163.133C164.134 167.629 164.582 166.374 163.808 165.74L161.266 163.66C160.745 163.234 160.745 162.438 161.266 162.012L165.109 158.867C165.63 158.441 165.63 157.645 165.109 157.219L161.266 154.074C160.745 153.648 160.745 152.852 161.266 152.426L165.109 149.281C165.63 148.855 165.63 148.059 165.109 147.633L161.266 144.488C160.745 144.062 160.745 143.266 161.266 142.84L165.109 139.695C165.63 139.269 165.63 138.473 165.109 138.047L161.266 134.902C160.745 134.476 160.745 133.68 161.266 133.254L163.808 131.175C164.582 130.541 164.134 129.285 163.133 129.285V129.285C157.836 129.285 152.789 131.268 148.483 134.353C140.678 139.943 135.142 141.348 129.37 137.273C122.668 132.542 119.705 130.182 118.878 129.435C118.774 129.34 118.64 129.285 118.499 129.285H110.519C109.518 129.285 109.07 130.541 109.845 131.175L112.386 133.254C112.907 133.68 112.907 134.476 112.386 134.902L108.543 138.047C108.022 138.473 108.022 139.269 108.543 139.695L112.386 142.84C112.907 143.266 112.907 144.062 112.386 144.488L108.543 147.633C108.022 148.059 108.022 148.855 108.543 149.281L112.386 152.426C112.907 152.852 112.907 153.648 112.386 154.074L108.543 157.219C108.022 157.645 108.022 158.441 108.543 158.867L112.386 162.012C112.907 162.438 112.907 163.234 112.386 163.66L109.845 165.74C109.07 166.374 109.518 167.629 110.519 167.629H118.605C118.68 167.629 118.755 167.613 118.824 167.582L128.78 163.102C129.172 162.925 129.615 162.771 129.987 162.987C131.095 163.63 132.566 166.222 132.566 170.824C132.566 172.899 132.554 178.425 132.539 185.338L132.539 185.343C132.514 196.886 132.481 212.292 132.481 221.95L132.481 222.567C132.481 223.403 131.804 224.08 130.968 224.08V224.08C129.203 224.08 127.773 225.511 127.773 227.276L127.773 312.485C127.773 314.249 129.203 315.68 130.968 315.68H142.225" stroke="#AD00FF" stroke-width="4" stroke-linecap="round"/>
  </g>
  <g filter="url(#filter1_f_491_2179)">
    <path d="M145.88 310.354V227.276C145.88 225.511 144.449 224.08 142.684 224.08H141.002V221.95C141.002 209.958 141.046 190.118 141.07 178.955L141.07 178.944C141.08 174.579 141.087 171.543 141.087 170.824C141.087 167.629 141.886 162.836 144.016 162.836C145.72 162.836 154.933 167.629 154.933 167.629H163.133C164.134 167.629 164.582 166.374 163.808 165.74L161.266 163.66C160.745 163.234 160.745 162.438 161.266 162.012L165.109 158.867C165.63 158.441 165.63 157.645 165.109 157.219L161.266 154.074C160.745 153.648 160.745 152.852 161.266 152.426L165.109 149.281C165.63 148.855 165.63 148.059 165.109 147.633L161.266 144.488C160.745 144.062 160.745 143.266 161.266 142.84L165.109 139.695C165.63 139.269 165.63 138.473 165.109 138.047L161.266 134.902C160.745 134.476 160.745 133.68 161.266 133.254L163.808 131.175C164.582 130.541 164.134 129.285 163.133 129.285V129.285C157.836 129.285 152.789 131.268 148.483 134.353C140.678 139.943 135.142 141.348 129.37 137.273C122.668 132.542 119.705 130.182 118.878 129.435C118.774 129.34 118.64 129.285 118.499 129.285H110.519C109.518 129.285 109.07 130.541 109.845 131.175L112.386 133.254C112.907 133.68 112.907 134.476 112.386 134.902L108.543 138.047C108.022 138.473 108.022 139.269 108.543 139.695L112.386 142.84C112.907 143.266 112.907 144.062 112.386 144.488L108.543 147.633C108.022 148.059 108.022 148.855 108.543 149.281L112.386 152.426C112.907 152.852 112.907 153.648 112.386 154.074L108.543 157.219C108.022 157.645 108.022 158.441 108.543 158.867L112.386 162.012C112.907 162.438 112.907 163.234 112.386 163.66L109.845 165.74C109.07 166.374 109.518 167.629 110.519 167.629H118.605C118.68 167.629 118.755 167.613 118.824 167.582L129.37 162.836C130.436 162.659 132.566 165.286 132.566 170.824C132.566 172.899 132.554 178.425 132.539 185.338L132.539 185.343C132.514 196.886 132.481 212.292 132.481 221.95L132.481 224.08H130.968C129.203 224.08 127.773 225.511 127.773 227.276L127.773 312.485C127.773 314.249 129.203 315.68 130.968 315.68H142.225" stroke="white" stroke-width="3" stroke-linecap="round"/>
  </g>
  <defs>
    <filter id="filter0_df_491_2179" x="84.1523" y="105.285" width="105.348" height="234.395" filterUnits="userSpaceOnUse" color-interpolation-filters="sRGB">
      <feFlood flood-opacity="0" result="BackgroundImageFix"/>
      <feColorMatrix in="SourceAlpha" type="matrix" values="0 0 0 0 0 0 0 0 0 0 0 0 0 0 0 0 0 0 127 0" result="hardAlpha"/>
      <feOffset/>
      <feGaussianBlur stdDeviation="11"/>
      <feComposite in2="hardAlpha" operator="out"/>
      <feColorMatrix type="matrix" values="0 0 0 0 0.352941 0 0 0 0 0.247059 0 0 0 0 1 0 0 0 0.73 0"/>
      <feBlend mode="normal" in2="BackgroundImageFix" result="effect1_dropShadow_491_2179"/>
      <feBlend mode="normal" in="SourceGraphic" in2="effect1_dropShadow_491_2179" result="shape"/>
      <feGaussianBlur stdDeviation="1" result="effect2_foregroundBlur_491_2179"/>
    </filter>
    <filter id="filter1_f_491_2179" x="104.652" y="125.785" width="64.3477" height="193.395" filterUnits="userSpaceOnUse" color-interpolation-filters="sRGB">
      <feFlood flood-opacity="0" result="BackgroundImageFix"/>
      <feBlend mode="normal" in="SourceGraphic" in2="BackgroundImageFix" result="shape"/>
      <feGaussianBlur stdDeviation="1" result="effect1_foregroundBlur_491_2179"/>
    </filter>
  </defs>
</svg>
