<svg width="245" height="314" viewBox="0 0 245 314" fill="none"
  xmlns="http://www.w3.org/2000/svg">
  <g filter="url(#filter0_d_500)">
    <path d="M133.764 56.5556L129.212 49.9387C126.813 46.4509 121.653 46.4778 119.291 49.9906L112.755 59.7072C110.73 62.7171 111.819 66.8213 115.069 68.432L116.573 69.1771L122.86 72.2925C123.712 72.7147 124.715 72.7147 125.567 72.2924L136.097 67.074C137.023 66.6155 137.962 67.6698 137.388 68.5229L134.401 72.9632L131.854 76.7499L128.595 81.5953C126.388 84.8767 121.665 85.1626 119.078 82.1714L116.573 79.2742M115.879 79.2752C125.103 88.4997 123.945 128.111 123.872 130.337C123.87 130.409 123.869 130.471 123.869 130.543L123.869 136.134C123.869 138.487 121.962 140.394 119.609 140.394L115.212 140.394C113.328 140.394 111.8 141.921 111.8 143.806C111.8 145.691 113.328 147.219 115.212 147.219L132.525 147.219C134.41 147.219 135.937 148.747 135.937 150.631C135.937 152.516 134.41 154.044 132.525 154.044L119.634 154.044C118.192 154.044 117.022 155.213 117.022 156.655C117.022 158.098 118.192 159.267 119.634 159.267L128.103 159.267C129.546 159.267 130.715 160.436 130.715 161.878C130.715 163.32 129.546 164.489 128.103 164.489L122.245 164.489" stroke="#EDD713" stroke-width="4" stroke-linecap="round" stroke-linejoin="round"/>
  </g>
  <g filter="url(#filter1_f_500)">
    <path d="M133.764 56.5556L129.212 49.9387C126.813 46.4509 121.653 46.4778 119.291 49.9906L112.755 59.7072C110.73 62.7171 111.819 66.8213 115.069 68.432L116.573 69.1771L122.86 72.2925C123.712 72.7147 124.715 72.7147 125.567 72.2924L136.097 67.074C137.023 66.6155 137.962 67.6698 137.388 68.5229L134.401 72.9632L131.854 76.7499L128.595 81.5953C126.388 84.8767 121.665 85.1626 119.078 82.1714L116.573 79.2742M115.879 79.2752C125.103 88.4997 123.945 128.111 123.872 130.337C123.87 130.409 123.869 130.471 123.869 130.543L123.869 136.134C123.869 138.487 121.962 140.394 119.609 140.394L115.212 140.394C113.328 140.394 111.8 141.921 111.8 143.806C111.8 145.691 113.328 147.219 115.212 147.219L132.525 147.219C134.41 147.219 135.937 148.747 135.937 150.631C135.937 152.516 134.41 154.044 132.525 154.044L119.634 154.044C118.192 154.044 117.022 155.213 117.022 156.655C117.022 158.098 118.192 159.267 119.634 159.267L128.103 159.267C129.546 159.267 130.715 160.436 130.715 161.878C130.715 163.32 129.546 164.489 128.103 164.489L122.245 164.489" stroke="white" stroke-width="3" stroke-linecap="round"/>
  </g>
  <g filter="url(#filter2_d_500)">
    <path d="M115.605 202.658L113.468 203.967C101.868 211.069 98.5425 226.526 105.982 237.912V237.912C111.024 245.629 120.368 249.551 129.38 247.616V247.616C129.605 247.568 129.825 247.501 130.037 247.414L130.274 247.319M115.605 202.656C120.195 200.603 128.143 208.39 133.356 220.049C137.976 230.381 138.898 240.286 135.854 243.835M98.4159 237.531C80.8161 240.159 92.7697 263.011 75.7767 263.646" stroke="#64EA13" stroke-width="4" stroke-linecap="round"/>
  </g>
  <g filter="url(#filter3_f_500)">
    <path d="M115.605 202.658L113.468 203.967C101.868 211.069 98.5425 226.526 105.982 237.912V237.912C111.024 245.629 120.368 249.551 129.38 247.616V247.616C129.605 247.568 129.825 247.501 130.037 247.414L130.274 247.319M115.605 202.656C120.195 200.603 128.143 208.39 133.356 220.049C137.976 230.381 138.898 240.286 135.854 243.835M98.4159 237.531C80.8161 240.159 92.7697 263.011 75.7767 263.646" stroke="white" stroke-width="3" stroke-linecap="round"/>
  </g>
  <g filter="url(#filter4_d_500)">
    <path d="M157.487 204.499C173.958 196.22 163.152 188.083 184.725 188.465M121.739 197.42C141.609 190.227 166.781 210.883 145.915 238.851C145.309 239.662 143.978 239.107 144.013 238.095C144.473 224.683 137.125 206.175 127.402 201.313" stroke="#ED1320" stroke-width="4" stroke-linecap="round"/>
  </g>
  <g filter="url(#filter5_f_500)">
    <path d="M157.487 204.499C173.958 196.22 163.152 188.083 184.725 188.465M121.739 197.42C141.609 190.227 166.781 210.883 145.915 238.851C145.309 239.662 143.978 239.107 144.013 238.095C144.473 224.683 137.125 206.175 127.402 201.313" stroke="white" stroke-width="3" stroke-linecap="round"/>
  </g>
  <g filter="url(#filter6_d_500)">
    <path d="M135.73 140.394L135.73 130.435C135.73 96.5458 161.94 91.3247 161.94 62.4831C161.94 41.2295 144.801 24 123.66 24C102.519 24 85.3809 41.2295 85.3809 62.4831C85.3809 91.3247 111.59 96.5458 111.59 130.435L111.59 134.17" stroke="#EDD713" stroke-width="4" stroke-linecap="round" stroke-linejoin="round"/>
  </g>
  <g filter="url(#filter7_f_500)">
    <path d="M135.73 140.394L135.73 130.435C135.73 96.5458 161.94 91.3247 161.94 62.4831C161.94 41.2295 144.801 24 123.66 24C102.519 24 85.3809 41.2295 85.3809 62.4831C85.3809 91.3247 111.59 96.5458 111.59 130.435L111.59 134.17" stroke="white" stroke-width="3" stroke-linecap="round"/>
  </g>
  <path d="M72.7106 172.009L69.5479 172.807C56.0322 176.218 48.0067 190.122 51.8134 203.531V203.531C54.5871 213.302 63.3617 220.156 73.513 220.482L75.4083 220.543M72.7844 172.007C77.7489 171.217 79.4585 174.768 82.1744 180.7M86.3263 191.259C86.5225 191.91 86.7118 192.571 86.8934 193.241C87.0551 193.837 87.2079 194.43 87.3519 195.019M89.1304 207.465C89.2804 213.626 88.0149 217.994 85.4411 218.692C81.144 219.857 74.8271 210.351 71.3321 197.459C69.6301 191.182 68.9111 185.259 69.1176 180.7M13.0444 195.02C24.7238 189.711 26.1396 211.227 44.5366 203.087" stroke="#505050" stroke-opacity="0.3" stroke-width="4" stroke-linecap="round"/>
  <g filter="url(#filter8_f_500)">
    <path d="M77.1934 188.539L93.241 184.188" stroke="#505050" stroke-opacity="0.3" stroke-width="4" stroke-linecap="round"/>
    <path d="M80.8848 202.153L96.9324 197.802" stroke="#505050" stroke-opacity="0.3" stroke-width="4" stroke-linecap="round"/>
  </g>
  <path d="M167.621 258.445L171.549 260.712C183.441 267.579 198.648 263.504 205.514 251.611L206.382 250.109C211.61 241.054 209.963 229.596 202.395 222.38V222.38C202.175 222.171 201.932 221.989 201.669 221.837L201.625 221.812M167.62 258.446C161.801 255.087 162.531 242.929 169.25 231.292C175.968 219.654 186.132 212.944 191.951 216.303C197.77 219.663 197.04 231.82 190.321 243.457C187.034 249.15 182.923 253.664 178.9 256.397M211.249 253.793C222.866 257.114 227.423 249.586 234.951 263.453" stroke="#505050" stroke-opacity="0.3" stroke-width="4" stroke-linecap="round"/>
  <path d="M179.202 231.401C179.007 232.923 179.41 234.23 180.395 234.798C181.971 235.708 184.44 234.382 185.91 231.836C187.379 229.291 187.293 226.489 185.717 225.58C184.388 224.812 182.423 225.636 180.959 227.44" stroke="#505050" stroke-opacity="0.3" stroke-width="3" stroke-linecap="round"/>
  <path d="M178.056 245.444C176.587 247.989 174.118 249.316 172.542 248.406C170.966 247.496 170.88 244.695 172.35 242.149C173.819 239.603 176.288 238.277 177.864 239.187C178.55 239.583 178.953 240.336 179.07 241.271" stroke="#505050" stroke-opacity="0.3" stroke-width="3" stroke-linecap="round"/>
  <defs>
    <filter id="filter0_d_500" x="87.7314" y="23.3394" width="73.8545" height="165.15" filterUnits="userSpaceOnUse" color-interpolation-filters="sRGB">
      <feFlood flood-opacity="0" result="BackgroundImageFix"/>
      <feColorMatrix in="SourceAlpha" type="matrix" values="0 0 0 0 0 0 0 0 0 0 0 0 0 0 0 0 0 0 127 0" result="hardAlpha"/>
      <feOffset/>
      <feGaussianBlur stdDeviation="11"/>
      <feComposite in2="hardAlpha" operator="out"/>
      <feColorMatrix type="matrix" values="0 0 0 0 0.929167 0 0 0 0 0.843606 0 0 0 0 0.073559 0 0 0 0.94 0"/>
      <feBlend mode="normal" in2="BackgroundImageFix" result="effect1_dropShadow_500"/>
      <feBlend mode="normal" in="SourceGraphic" in2="effect1_dropShadow_500" result="shape"/>
    </filter>
    <filter id="filter1_f_500" x="108.231" y="43.8394" width="32.8496" height="124.15" filterUnits="userSpaceOnUse" color-interpolation-filters="sRGB">
      <feFlood flood-opacity="0" result="BackgroundImageFix"/>
      <feBlend mode="normal" in="SourceGraphic" in2="BackgroundImageFix" result="shape"/>
      <feGaussianBlur stdDeviation="1" result="effect1_foregroundBlur_500"/>
    </filter>
    <filter id="filter2_d_500" x="51.7764" y="178.327" width="109.846" height="109.319" filterUnits="userSpaceOnUse" color-interpolation-filters="sRGB">
      <feFlood flood-opacity="0" result="BackgroundImageFix"/>
      <feColorMatrix in="SourceAlpha" type="matrix" values="0 0 0 0 0 0 0 0 0 0 0 0 0 0 0 0 0 0 127 0" result="hardAlpha"/>
      <feOffset/>
      <feGaussianBlur stdDeviation="11"/>
      <feComposite in2="hardAlpha" operator="out"/>
      <feColorMatrix type="matrix" values="0 0 0 0 0.380392 0 0 0 0 0.952941 0 0 0 0 0.027451 0 0 0 0.94 0"/>
      <feBlend mode="normal" in2="BackgroundImageFix" result="effect1_dropShadow_500"/>
      <feBlend mode="normal" in="SourceGraphic" in2="effect1_dropShadow_500" result="shape"/>
    </filter>
    <filter id="filter3_f_500" x="72.2764" y="198.827" width="68.8457" height="68.319" filterUnits="userSpaceOnUse" color-interpolation-filters="sRGB">
      <feFlood flood-opacity="0" result="BackgroundImageFix"/>
      <feBlend mode="normal" in="SourceGraphic" in2="BackgroundImageFix" result="shape"/>
      <feGaussianBlur stdDeviation="1" result="effect1_foregroundBlur_500"/>
    </filter>
    <filter id="filter4_d_500" x="107.738" y="174.452" width="90.9863" height="78.785" filterUnits="userSpaceOnUse" color-interpolation-filters="sRGB">
      <feFlood flood-opacity="0" result="BackgroundImageFix"/>
      <feColorMatrix in="SourceAlpha" type="matrix" values="0 0 0 0 0 0 0 0 0 0 0 0 0 0 0 0 0 0 127 0" result="hardAlpha"/>
      <feOffset/>
      <feGaussianBlur stdDeviation="6"/>
      <feComposite in2="hardAlpha" operator="out"/>
      <feColorMatrix type="matrix" values="0 0 0 0 0.929412 0 0 0 0 0.0745098 0 0 0 0 0.12549 0 0 0 0.94 0"/>
      <feBlend mode="normal" in2="BackgroundImageFix" result="effect1_dropShadow_500"/>
      <feBlend mode="normal" in="SourceGraphic" in2="effect1_dropShadow_500" result="shape"/>
    </filter>
    <filter id="filter5_f_500" x="118.238" y="184.952" width="69.9863" height="57.7858" filterUnits="userSpaceOnUse" color-interpolation-filters="sRGB">
      <feFlood flood-opacity="0" result="BackgroundImageFix"/>
      <feBlend mode="normal" in="SourceGraphic" in2="BackgroundImageFix" result="shape"/>
      <feGaussianBlur stdDeviation="1" result="effect1_foregroundBlur_500"/>
    </filter>
    <filter id="filter6_d_500" x="61.3809" y="0" width="124.559" height="164.394" filterUnits="userSpaceOnUse" color-interpolation-filters="sRGB">
      <feFlood flood-opacity="0" result="BackgroundImageFix"/>
      <feColorMatrix in="SourceAlpha" type="matrix" values="0 0 0 0 0 0 0 0 0 0 0 0 0 0 0 0 0 0 127 0" result="hardAlpha"/>
      <feOffset/>
      <feGaussianBlur stdDeviation="11"/>
      <feComposite in2="hardAlpha" operator="out"/>
      <feColorMatrix type="matrix" values="0 0 0 0 0.929167 0 0 0 0 0.843606 0 0 0 0 0.073559 0 0 0 0.94 0"/>
      <feBlend mode="normal" in2="BackgroundImageFix" result="effect1_dropShadow_500"/>
      <feBlend mode="normal" in="SourceGraphic" in2="effect1_dropShadow_500" result="shape"/>
    </filter>
    <filter id="filter7_f_500" x="81.8809" y="20.5" width="83.5586" height="123.394" filterUnits="userSpaceOnUse" color-interpolation-filters="sRGB">
      <feFlood flood-opacity="0" result="BackgroundImageFix"/>
      <feBlend mode="normal" in="SourceGraphic" in2="BackgroundImageFix" result="shape"/>
      <feGaussianBlur stdDeviation="1" result="effect1_foregroundBlur_500"/>
    </filter>
    <filter id="filter8_f_500" x="73.1924" y="180.187" width="27.7402" height="25.966" filterUnits="userSpaceOnUse" color-interpolation-filters="sRGB">
      <feFlood flood-opacity="0" result="BackgroundImageFix"/>
      <feBlend mode="normal" in="SourceGraphic" in2="BackgroundImageFix" result="shape"/>
      <feGaussianBlur stdDeviation="1" result="effect1_foregroundBlur_500"/>
    </filter>
  </defs>
</svg>
