<svg
  width="126"
  height="88"
  viewBox="0 0 126 88"
  fill="none"
  xmlns="http://www.w3.org/2000/svg"
>
<path
    d="M32 53.5295C15.0588 53.5295 0 60.0444 0 70.4707C0 78.29 7.52941 84.8048 18.8235 84.8048C25.3252 84.8048 32.2089 80.8801 37.1332 80.8801C37.3082 80.8801 37.4795 80.8858 37.6471 80.8952C45.0052 81.3375 45.1765 87.4119 54.5882 87.4119C58.9948 87.4119 64 83.5022 64 74.3804C64 62.6514 50.8235 53.5295 32 53.5295Z"
    fill="#FFD983"
  />
<path
    d="M60.2353 66.7061H64V74.2355H60.2353V66.7061ZM0 62.9414H3.76471V70.4708H0V62.9414Z"
    fill="#FFD983"
  />
<path
    d="M54.588 78.5794C50.3132 78.5794 48.4101 77.1582 46.2021 75.515C44.1899 74.0147 41.9085 72.3168 37.8106 72.0684C37.5866 72.0552 37.3626 72.0477 37.133 72.0477C34.4356 72.0477 31.5273 72.9568 28.4497 73.9225C25.2271 74.9295 21.8953 75.9724 18.8252 75.9724C9.00874 75.9724 1.88403 70.491 1.88403 62.9408C1.88403 52.7837 17.4022 47.3022 32.0017 47.3022C49.453 47.3022 62.1193 55.5225 62.1193 66.8505C62.1174 75.4547 57.613 78.5794 54.588 78.5794Z"
    fill="#A0041E"
  />
<path
    d="M32 48.6071C48.3595 48.6071 60.2353 56.2795 60.2353 66.8508C60.2353 74.6513 56.3576 77.2753 54.5882 77.2753C51.136 77.2753 49.7224 76.2231 47.5802 74.6268C45.4475 73.0381 42.7934 71.0598 37.9727 70.7699C37.6979 70.7529 37.4174 70.7435 37.1332 70.7435C34.0311 70.7435 30.9421 71.7111 27.6744 72.7332C24.6325 73.6856 21.4889 74.6682 18.8235 74.6682C11.3393 74.6682 3.76471 70.6381 3.76471 62.9412C3.76471 53.6311 18.3134 48.6071 32 48.6071ZM32 46C15.0588 46 0 52.5148 0 62.9412C0 70.7605 7.52941 77.2753 18.8235 77.2753C25.3252 77.2753 32.2089 73.3506 37.1332 73.3506C37.3082 73.3506 37.4795 73.3562 37.6471 73.3656C45.0052 73.808 45.1765 79.8824 54.5882 79.8824C58.9948 79.8824 64 75.9727 64 66.8508C64 55.1219 50.8235 46 32 46Z"
    fill="#FFE8B6"
  />
<path
    d="M28.5381 48.7161C28.5381 48.7161 33.8821 48.607 37.6468 51.2121C39.5291 52.5147 38.2774 55.4474 38.2774 55.4474L41.4115 56.4262C41.4115 56.4262 41.2948 54.8545 47.0586 53.8192C51.2957 53.0587 55.6082 56.4262 55.6082 56.4262C55.6082 56.4262 50.8233 49.9095 41.4115 48.607C31.9997 47.3025 28.5381 48.7161 28.5381 48.7161Z"
    fill="#FFE8B6"
  />
<path
    d="M45.1765 59.0316C45.1765 61.9097 41.8052 64.2438 37.6471 64.2438C33.489 64.2438 30.1177 61.9097 30.1177 59.0316C30.1177 56.1535 33.489 53.8193 37.6471 53.8193C41.8052 53.8193 45.1765 56.1535 45.1765 59.0316Z"
    fill="#E6E7E8"
  />
<path
    d="M41.4117 59.0317C41.4117 60.4717 39.7251 61.6387 37.647 61.6387C35.5689 61.6387 33.8823 60.4717 33.8823 59.0317C33.8823 57.5917 35.5689 56.4265 37.647 56.4265C39.7251 56.4265 41.4117 57.5917 41.4117 59.0317Z"
    fill="#A7A9AC"
  />
<path
    fill-rule="evenodd"
    clip-rule="evenodd"
    d="M90.1645 56.8392L60.6206 29.8734L54.5532 36.5208L50.315 36.7142L50.1217 32.4759L45.8834 32.6693L45.6901 28.4311L41.4518 28.6244L41.2585 24.3862L37.0202 24.5796L36.8269 20.3413L44.9166 11.4781L53.0064 2.61496L57.2446 2.4216L57.438 6.65984L61.6762 6.46648L61.8696 10.7047L66.1078 10.5113L66.3011 14.7496L70.5394 14.5562L70.7327 18.7945L64.6654 25.4418L94.2094 52.4077L95.5577 50.9305L118.454 71.829L115.084 75.522L111.713 79.2149L88.8162 58.3164L90.1645 56.8392Z"
    fill="#292B33"
  />
</svg>
