<svg width="37" height="37" xmlns="http://www.w3.org/2000/svg" version="1.1">
 <g id="Layer_1">
  <title>Layer 1</title>
  <g stroke="null" fill-rule="evenodd" fill="none" id="Page-1">
   <path stroke="null" fill-rule="nonzero" fill="#FFFFFF" id="svg_1" d="m21.04743,11.75349l3.60642,0l0,19.16574l-0.02481,0l-12.30169,5.77498l-12.30254,-5.77498l-0.02481,0l0,-19.16574l3.60813,0l0,-2.6907c0,-4.61397 3.91266,-8.36858 8.72093,-8.36858c4.80571,0 8.71837,3.75461 8.71837,8.36858l0,2.6907zm-1.35498,15.97832l0,-11.48122l-14.73106,0l0,11.48122l7.36596,3.44953l7.3651,-3.44953zm-11.61137,-18.66902l0,2.6907l8.4934,0l0,-2.6907c0,-2.13554 -1.90586,-3.87319 -4.24542,-3.87319c-2.34212,0 -4.24798,1.73765 -4.24798,3.87319z"/>
  </g>
 </g>
</svg>