<svg width="62" height="62" viewBox="0 0 62 62" fill="none" xmlns="http://www.w3.org/2000/svg">
<circle cx="31" cy="31" r="30" fill="#161617" stroke="white" stroke-width="2"/>
<path d="M30.6461 35.5252C30.5895 35.5252 30.5325 35.5184 30.4772 35.504L22.1235 33.4155C21.9203 33.3653 21.751 33.2259 21.6618 33.0359C21.573 32.8471 21.5741 32.6276 21.6646 32.4392L30.0187 15.0351C30.1354 14.7889 30.3903 14.6471 30.6576 14.6399C30.9297 14.6447 31.1739 14.8072 31.283 15.0562L38.9408 32.4603C39.0225 32.6451 39.0197 32.857 38.9321 33.0399C38.8448 33.2231 38.6823 33.359 38.4867 33.4119L30.8289 35.5005C30.7692 35.5168 30.7078 35.5252 30.6461 35.5252ZM23.2894 32.2719L30.6385 34.1098L37.3411 32.2814L30.619 17.0029L23.2894 32.2719Z" fill="white"/>
<path d="M30.646 47.3597C30.4018 47.3597 30.1748 47.2322 30.0489 47.0219L21.6952 33.0989C21.4972 32.769 21.6039 32.3412 21.9338 32.1436C22.264 31.9449 22.691 32.0524 22.8886 32.3823L30.6193 45.2667L37.6935 32.4054C37.8784 32.068 38.303 31.9465 38.6388 32.1309C38.9758 32.3157 39.0989 32.7392 38.9133 33.0758L31.2555 46.9992C31.136 47.2178 30.9081 47.3553 30.6587 47.3601C30.6548 47.3597 30.65 47.3597 30.646 47.3597Z" fill="white"/>
<path d="M30.646 47.3596C30.2612 47.3596 29.9497 47.0485 29.9497 46.6637V16.7288C29.9497 16.344 30.2612 16.0325 30.646 16.0325C31.0308 16.0325 31.3419 16.344 31.3419 16.7288V46.6637C31.3419 47.0485 31.0308 47.3596 30.646 47.3596Z" fill="white"/>
</svg>
