<svg width="132" height="318" viewBox="0 0 132 318" fill="none" xmlns="http://www.w3.org/2000/svg">
<g filter="url(#filter0_d_942_1609)">
<path d="M79.1686 284.979L79.1686 165.694C79.1686 163.161 77.1146 161.107 74.5808 161.107V161.107C73.2469 161.107 72.1657 160.025 72.1657 158.692V158.048C72.1657 140.83 72.2282 112.344 72.2635 96.3154L72.2635 96.2996C72.2773 90.0331 72.2868 85.674 72.2868 84.6422C72.2868 80.0544 73.4338 73.1726 76.4924 73.1726C78.9392 73.1726 92.1676 80.0544 92.1676 80.0544H103.941C105.378 80.0544 106.022 78.2516 104.909 77.3415L101.261 74.3562C100.513 73.7443 100.513 72.6008 101.261 71.989L106.778 67.4744C107.526 66.8625 107.526 65.719 106.778 65.1072L101.261 60.5926C100.513 59.9807 100.513 58.8372 101.261 58.2254L106.778 53.7108C107.526 53.0989 107.526 51.9555 106.778 51.3436L101.261 46.829C100.513 46.2171 100.513 45.0737 101.261 44.4618L106.778 39.9472C107.526 39.3353 107.526 38.1919 106.778 37.58L101.261 33.0654C100.513 32.4535 100.513 31.3101 101.261 30.6982L104.909 27.7129C106.022 26.8028 105.378 25 103.941 25H92.1676C75.7277 38.7636 65.8638 43.8102 55.4647 36.4697C45.8408 29.6764 41.587 26.2884 40.4001 25.215C40.2497 25.0789 40.0578 25 39.855 25H28.3984C26.9612 25 26.3177 26.8028 27.43 27.7129L31.0787 30.6982C31.8266 31.3101 31.8266 32.4535 31.0787 33.0654L25.5609 37.58C24.813 38.1919 24.813 39.3353 25.5609 39.9472L31.0787 44.4618C31.8266 45.0737 31.8266 46.2171 31.0787 46.829L25.5609 51.3436C24.813 51.9555 24.813 53.0989 25.5609 53.7108L31.0787 58.2254C31.8266 58.8372 31.8266 59.9807 31.0787 60.5926L25.5609 65.1072C24.813 65.719 24.813 66.8625 25.5609 67.4744L31.0787 71.989C31.8266 72.6008 31.8266 73.7443 31.0787 74.3562L27.43 77.3415C26.3177 78.2516 26.9612 80.0544 28.3984 80.0544H40.0077C40.1158 80.0544 40.2228 80.0314 40.3214 79.987L49.5567 75.8311C53.479 74.0661 57.9595 73.9091 59.189 78.0307C59.7065 79.7655 60.0525 81.9674 60.0525 84.6422C60.0525 87.6208 60.0355 95.5552 60.0143 105.48L60.0142 105.488C59.9788 122.061 59.9314 144.181 59.9314 158.048L59.9314 158.934C59.9314 160.134 58.9586 161.107 57.7586 161.107V161.107C55.2248 161.107 53.1707 163.161 53.1707 165.694L53.1707 288.038C53.1707 290.571 55.2248 292.625 57.7586 292.625H73.9217" stroke="#EDD713" stroke-width="5" stroke-linecap="round" stroke-linejoin="round"/>
</g>
<g filter="url(#filter1_f_942_1609)">
<path d="M79.1686 284.979L79.1686 165.694C79.1686 163.161 77.1146 161.107 74.5808 161.107H72.1657V158.048C72.1657 140.83 72.2282 112.344 72.2635 96.3154L72.2635 96.2996C72.2773 90.0331 72.2868 85.674 72.2868 84.6422C72.2868 80.0544 73.4338 73.1726 76.4924 73.1726C78.9392 73.1726 92.1676 80.0544 92.1676 80.0544H103.941C105.378 80.0544 106.022 78.2516 104.909 77.3415L101.261 74.3562C100.513 73.7443 100.513 72.6008 101.261 71.989L106.778 67.4744C107.526 66.8625 107.526 65.719 106.778 65.1072L101.261 60.5926C100.513 59.9807 100.513 58.8372 101.261 58.2254L106.778 53.7108C107.526 53.0989 107.526 51.9555 106.778 51.3436L101.261 46.829C100.513 46.2171 100.513 45.0737 101.261 44.4618L106.778 39.9472C107.526 39.3353 107.526 38.1919 106.778 37.58L101.261 33.0654C100.513 32.4535 100.513 31.3101 101.261 30.6982L104.909 27.7129C106.022 26.8028 105.378 25 103.941 25H92.1676C75.7277 38.7636 65.8638 43.8102 55.4647 36.4697C45.8408 29.6764 41.587 26.2884 40.4001 25.215C40.2497 25.0789 40.0578 25 39.855 25H28.3984C26.9612 25 26.3177 26.8028 27.43 27.7129L31.0787 30.6982C31.8266 31.3101 31.8266 32.4535 31.0787 33.0654L25.5609 37.58C24.813 38.1919 24.813 39.3353 25.5609 39.9472L31.0787 44.4618C31.8266 45.0737 31.8266 46.2171 31.0787 46.829L25.5609 51.3436C24.813 51.9555 24.813 53.0989 25.5609 53.7108L31.0787 58.2254C31.8266 58.8372 31.8266 59.9807 31.0787 60.5926L25.5609 65.1072C24.813 65.719 24.813 66.8625 25.5609 67.4744L31.0787 71.989C31.8266 72.6008 31.8266 73.7443 31.0787 74.3562L27.43 77.3415C26.3177 78.2516 26.9612 80.0544 28.3984 80.0544H40.0077C40.1158 80.0544 40.2228 80.0314 40.3214 79.987L55.4647 73.1726C56.9939 72.9177 60.0525 76.6899 60.0525 84.6422C60.0525 87.6208 60.0355 95.5552 60.0143 105.48L60.0142 105.488C59.9788 122.061 59.9314 144.181 59.9314 158.048L59.9314 161.107H57.7586C55.2248 161.107 53.1707 163.161 53.1707 165.694L53.1707 288.038C53.1707 290.571 55.2248 292.625 57.7586 292.625H73.9217" stroke="white" stroke-width="3" stroke-linecap="round"/>
</g>
<defs>
<filter id="filter0_d_942_1609" x="0.5" y="0.5" width="131.339" height="316.625" filterUnits="userSpaceOnUse" color-interpolation-filters="sRGB">
<feFlood flood-opacity="0" result="BackgroundImageFix"/>
<feColorMatrix in="SourceAlpha" type="matrix" values="0 0 0 0 0 0 0 0 0 0 0 0 0 0 0 0 0 0 127 0" result="hardAlpha"/>
<feOffset/>
<feGaussianBlur stdDeviation="11"/>
<feComposite in2="hardAlpha" operator="out"/>
<feColorMatrix type="matrix" values="0 0 0 0 0.929167 0 0 0 0 0.843606 0 0 0 0 0.073559 0 0 0 0.94 0"/>
<feBlend mode="normal" in2="BackgroundImageFix" result="effect1_dropShadow_942_1609"/>
<feBlend mode="normal" in="SourceGraphic" in2="effect1_dropShadow_942_1609" result="shape"/>
</filter>
<filter id="filter1_f_942_1609" x="21.5" y="21.5" width="89.3394" height="274.625" filterUnits="userSpaceOnUse" color-interpolation-filters="sRGB">
<feFlood flood-opacity="0" result="BackgroundImageFix"/>
<feBlend mode="normal" in="SourceGraphic" in2="BackgroundImageFix" result="shape"/>
<feGaussianBlur stdDeviation="1" result="effect1_foregroundBlur_942_1609"/>
</filter>
</defs>
</svg>
