<svg width="91" height="90" viewBox="0 0 91 90" fill="none" xmlns="http://www.w3.org/2000/svg">
<path d="M61.3006 24.2021L42.181 43.3217L40.6514 44.8512L45.6491 49.8489L47.1787 48.3193L66.2982 29.1997C68.2867 27.2113 69.4211 27.6064 69.7398 28.0526L71.7668 33.3966C71.817 33.5289 71.8947 33.649 71.9947 33.749L73.9461 35.7004L77.9612 35.1268L77.9612 31.6853L81.4027 31.6853L81.4027 28.2438L84.8442 28.2438L84.8442 24.8022L88.2858 24.8022L88.2858 21.7749C88.2858 21.5097 88.1804 21.2554 87.9929 21.0678L86.4805 19.5554C86.29 19.365 86.0351 19.2594 85.7658 19.2523C84.1081 19.2082 77.9136 18.8223 74.6393 15.5479C70.8367 11.7454 70.7622 6.50155 70.7622 3.91686L68.8237 1.97835L65.916 1.00909L65.916 4.88612L62.0389 4.88612L62.0389 8.76315H58.1619V12.6402L54.2849 12.6402V16.5172L56.2234 18.4557L62.0389 20.3942C62.8037 21.159 62.4478 23.0549 61.3006 24.2021Z" stroke="white" stroke-width="2" stroke-linecap="round" stroke-linejoin="round"/>
<path fill-rule="evenodd" clip-rule="evenodd" d="M35.6933 42.4908C37.2554 40.9287 39.7881 40.9287 41.3502 42.4908L48.0095 49.1502C49.5716 50.7123 49.5716 53.2449 48.0095 54.807L20.7807 82.0358C19.2186 83.5979 16.6859 83.5979 15.1238 82.0358L8.46447 75.3765C6.90237 73.8144 6.90237 71.2817 8.46447 69.7196L35.6933 42.4908ZM38.3172 56.0335C37.3595 56.9912 35.8068 56.9912 34.8491 56.0335C33.8914 55.0758 33.8914 53.5231 34.8491 52.5654C35.8068 51.6077 37.3595 51.6077 38.3172 52.5654C39.2749 53.5231 39.2749 55.0758 38.3172 56.0335ZM27.9395 62.9431C28.8972 63.9008 30.4499 63.9008 31.4076 62.9431C32.3653 61.9854 32.3653 60.4327 31.4076 59.475C30.4499 58.5174 28.8972 58.5174 27.9395 59.475C26.9818 60.4327 26.9818 61.9854 27.9395 62.9431Z" fill="white"/>
</svg>
