<svg width="14" height="29" viewBox="0 0 14 29" fill="none" xmlns="http://www.w3.org/2000/svg">
<path d="M12 2V4.586L8 8.586V0H6V8.586L2 4.586V2H0V18C0.00280139 19.6816 0.610531 21.3061 1.71215 22.5766C2.81378 23.8472 4.33575 24.6789 6 24.92V29H8V24.92C9.66425 24.6789 11.1862 23.8472 12.2878 22.5766C13.3895 21.3061 13.9972 19.6816 14 18V2H12ZM6 22.899C4.87149 22.6671 3.85745 22.0532 3.12881 21.1608C2.40017 20.2684 2.0015 19.1521 2 18V15.414L6 19.414V22.899ZM6 16.586L2 12.586V7.414L6 11.414V16.586ZM8 11.414L12 7.414V12.586L8 16.586V11.414ZM8 22.899V19.414L12 15.414V18C11.9985 19.1521 11.5998 20.2684 10.8712 21.1608C10.1426 22.0532 9.12851 22.6671 8 22.899Z" fill="#4E66DE"/>
</svg>
