<svg width="64" height="64" viewBox="0 0 64 64" fill="none" xmlns="http://www.w3.org/2000/svg">
<g clip-path="url(#clip0)">
<g filter="url(#filter0_d)">
<path d="M32 60C48.5685 60 62 46.5685 62 30C62 13.4315 48.5685 0 32 0C15.4315 0 2 13.4315 2 30C2 46.5685 15.4315 60 32 60Z" fill="#00041A"/>
</g>
<path d="M32 60C48.5685 60 62 46.5685 62 30C62 13.4315 48.5685 0 32 0C15.4315 0 2 13.4315 2 30C2 46.5685 15.4315 60 32 60Z" fill="#00EB88"/>
<g style="mix-blend-mode:soft-light">
<path d="M32 60C48.5685 60 62 46.5685 62 30C62 13.4315 48.5685 0 32 0C15.4315 0 2 13.4315 2 30C2 46.5685 15.4315 60 32 60Z" fill="#00EB88"/>
</g>
<path d="M32 59C48.0163 59 61 46.0163 61 30C61 13.9837 48.0163 1 32 1C15.9837 1 3 13.9837 3 30C3 46.0163 15.9837 59 32 59Z" stroke="#00EB88"/>
<path fill-rule="evenodd" clip-rule="evenodd" d="M43.87 33.196L43.87 26.88L50.186 26.88L50.186 33.196L43.87 33.196ZM16 33.196L16 26.88L22.316 26.88L22.316 33.196L16 33.196ZM16 18.316L16 12L22.316 12L22.316 18.316L16 18.316ZM16 48L16 41.684L22.316 41.684L22.316 48L16 48ZM29.936 25.754L29.936 19.438L36.252 19.438L36.252 25.754L29.936 25.754ZM29.936 40.65L29.936 34.334L36.252 34.334L36.252 40.65L29.936 40.65Z" fill="#00041A"/>
</g>
<defs>
<filter id="filter0_d" x="1" y="-0.5" width="62" height="62" filterUnits="userSpaceOnUse" color-interpolation-filters="sRGB">
<feFlood flood-opacity="0" result="BackgroundImageFix"/>
<feColorMatrix in="SourceAlpha" type="matrix" values="0 0 0 0 0 0 0 0 0 0 0 0 0 0 0 0 0 0 127 0"/>
<feOffset dy="0.5"/>
<feGaussianBlur stdDeviation="0.5"/>
<feColorMatrix type="matrix" values="0 0 0 0 0 0 0 0 0 0 0 0 0 0 0 0 0 0 0.199474 0"/>
<feBlend mode="normal" in2="BackgroundImageFix" result="effect1_dropShadow"/>
<feBlend mode="normal" in="SourceGraphic" in2="effect1_dropShadow" result="shape"/>
</filter>
<clipPath id="clip0">
<rect width="64" height="64" fill="white"/>
</clipPath>
</defs>
</svg>