<svg width="538" height="538" viewBox="0 0 538 538" fill="none" xmlns="http://www.w3.org/2000/svg">
<path d="M242 27.8771C259.017 18.0523 279.983 18.0523 297 27.8771L465.002 124.873C482.019 134.698 492.502 152.855 492.502 172.504V366.496C492.502 386.145 482.019 404.302 465.002 414.127L297 511.123C279.983 520.948 259.017 520.948 242 511.123L73.9985 414.127C56.9814 404.302 46.4985 386.145 46.4985 366.496V172.504C46.4985 152.855 56.9814 134.698 73.9985 124.873L242 27.8771Z" fill="#0C111E"/>
<path d="M242 27.8771C259.017 18.0523 279.983 18.0523 297 27.8771L465.002 124.873C482.019 134.698 492.502 152.855 492.502 172.504V366.496C492.502 386.145 482.019 404.302 465.002 414.127L297 511.123C279.983 520.948 259.017 520.948 242 511.123L73.9985 414.127C56.9814 404.302 46.4985 386.145 46.4985 366.496V172.504C46.4985 152.855 56.9814 134.698 73.9985 124.873L242 27.8771Z" fill="#0F0F0F" fill-opacity="0.7"/>
<g filter="url(#filter0_d_1111_2732)">
<path d="M376.439 409.276L379.04 407.774L435.194 375.354C440.763 372.138 444.194 366.196 444.194 359.765V177.677C444.194 171.246 440.763 165.304 435.194 162.088L277.5 71.0438C271.931 67.8284 265.069 67.8284 259.5 71.0438L182.669 115.402L179.761 117.081M355.632 421.289L353.031 422.791L277.5 466.398C271.931 469.614 265.069 469.614 259.5 466.398L101.807 375.354C96.2374 372.138 92.8066 366.196 92.8066 359.765L92.8066 177.677C92.8066 171.246 96.2374 165.304 101.807 162.088L157.002 130.221L159.261 128.917" stroke="#13C6ED" stroke-width="5" stroke-linecap="round"/>
</g>
<g filter="url(#filter1_f_1111_2732)">
<path d="M376.439 409.276L379.04 407.774L435.194 375.354C440.763 372.138 444.194 366.196 444.194 359.765V177.677C444.194 171.246 440.763 165.304 435.194 162.088L277.5 71.0438C271.931 67.8284 265.069 67.8284 259.5 71.0438L182.669 115.402L179.761 117.081M355.632 421.289L353.031 422.791L277.5 466.398C271.931 469.614 265.069 469.614 259.5 466.398L101.807 375.354C96.2374 372.138 92.8066 366.196 92.8066 359.765L92.8066 177.677C92.8066 171.246 96.2374 165.304 101.807 162.088L157.002 130.221L159.261 128.917" stroke="white" stroke-width="3" stroke-linecap="round"/>
</g>
<path d="M198.368 360.266V274.636C198.368 272.817 196.894 271.343 195.075 271.343V271.343C194.117 271.343 193.341 270.567 193.341 269.609V269.147C193.341 256.787 193.386 236.338 193.411 224.832L193.411 224.82C193.421 220.322 193.428 217.192 193.428 216.452C193.428 213.158 194.251 208.218 196.447 208.218C197.026 208.218 198.447 208.755 200.092 209.476C205.178 211.703 210.599 213.158 216.151 213.158V213.158C217.183 213.158 217.645 211.864 216.846 211.211L214.227 209.068C213.69 208.629 213.69 207.808 214.227 207.368L218.188 204.128C218.725 203.688 218.725 202.867 218.188 202.428L214.227 199.187C213.69 198.748 213.69 197.927 214.227 197.488L218.188 194.247C218.725 193.808 218.725 192.987 218.188 192.548L214.227 189.307C213.69 188.868 213.69 188.047 214.227 187.608L218.188 184.367C218.725 183.928 218.725 183.107 218.188 182.667L214.227 179.427C213.69 178.987 213.69 178.166 214.227 177.727L216.846 175.584C217.645 174.931 217.183 173.637 216.151 173.637V173.637C210.691 173.637 205.49 175.681 201.051 178.86C193.006 184.622 187.301 186.07 181.352 181.87C174.443 176.994 171.39 174.562 170.538 173.791C170.43 173.693 170.292 173.637 170.146 173.637H161.922C160.89 173.637 160.428 174.931 161.227 175.584L163.846 177.727C164.383 178.166 164.383 178.987 163.846 179.427L159.885 182.667C159.348 183.107 159.348 183.928 159.885 184.367L163.846 187.608C164.383 188.047 164.383 188.868 163.846 189.307L159.885 192.548C159.348 192.987 159.348 193.808 159.885 194.247L163.846 197.488C164.383 197.927 164.383 198.748 163.846 199.187L159.885 202.428C159.348 202.867 159.348 203.688 159.885 204.128L163.846 207.368C164.383 207.808 164.383 208.629 163.846 209.068L161.227 211.211C160.428 211.864 160.89 213.158 161.922 213.158H170.256C170.333 213.158 170.41 213.142 170.481 213.11L177.098 210.132C179.922 208.861 183.148 208.75 184.029 211.719C184.399 212.962 184.645 214.538 184.645 216.452C184.645 218.59 184.633 224.286 184.618 231.411L184.618 231.416C184.592 243.313 184.558 259.193 184.558 269.147L184.558 269.783C184.558 270.644 183.86 271.343 182.999 271.343V271.343C181.18 271.343 179.705 272.817 179.705 274.636V362.462C179.705 364.281 181.18 365.756 182.999 365.756H194.601" stroke="#505050" stroke-opacity="0.3" stroke-width="5" stroke-linecap="round"/>
<g filter="url(#filter2_d_1111_2732)">
<path d="M192.635 320.349L185.86 325.594M204.401 311.24L232.54 289.454C233.979 288.34 234.242 286.271 233.128 284.833V284.833C232.542 284.076 232.681 282.987 233.438 282.401L233.803 282.118C243.577 274.551 259.774 262.068 268.887 255.044L268.896 255.037C272.459 252.291 274.938 250.381 275.523 249.927C278.128 247.911 282.538 245.538 283.882 247.274C284.237 247.732 284.682 249.185 285.119 250.926C286.472 256.311 288.639 261.488 292.039 265.879V265.879C292.67 266.695 293.976 266.268 294.004 265.236L294.095 261.853C294.114 261.16 294.763 260.657 295.439 260.813L300.426 261.961C301.102 262.117 301.751 261.614 301.77 260.921L301.908 255.805C301.926 255.111 302.575 254.609 303.251 254.764L308.239 255.912C308.915 256.068 309.564 255.565 309.582 254.872L309.72 249.756C309.739 249.063 310.388 248.56 311.064 248.716L316.051 249.864C316.727 250.019 317.376 249.517 317.395 248.823L317.533 243.707C317.551 243.014 318.2 242.511 318.876 242.667L322.174 243.426C323.18 243.658 323.92 242.5 323.289 241.684V241.684C319.946 237.367 315.146 234.505 309.915 232.942C300.434 230.108 295.796 226.483 295.475 219.208C295.101 210.76 295.155 206.857 295.243 205.711C295.254 205.566 295.214 205.423 295.125 205.308L290.09 198.804C289.459 197.989 288.153 198.416 288.125 199.447L288.034 202.83C288.015 203.523 287.366 204.026 286.69 203.87L281.703 202.722C281.027 202.567 280.377 203.069 280.359 203.763L280.221 208.879C280.202 209.572 279.553 210.075 278.877 209.919L273.89 208.771C273.214 208.615 272.565 209.118 272.546 209.811L272.409 214.927C272.39 215.621 271.741 216.123 271.065 215.968L266.077 214.82C265.401 214.664 264.752 215.167 264.734 215.86L264.596 220.976C264.577 221.669 263.928 222.172 263.252 222.016L259.954 221.257C258.949 221.026 258.208 222.183 258.84 222.999L263.942 229.589C263.989 229.65 264.049 229.701 264.118 229.737L270.523 233.147C273.257 234.602 275.32 237.084 273.512 239.598C272.755 240.652 271.66 241.812 270.147 242.983C268.456 244.292 263.945 247.769 258.302 252.119L258.298 252.122C248.875 259.385 236.298 269.08 228.427 275.174L227.924 275.563C227.243 276.09 226.263 275.966 225.736 275.284V275.284C224.622 273.846 222.553 273.583 221.115 274.697L203.488 288.344M192.197 297.086L185.92 301.945M173.001 311.948L151.67 328.462C150.232 329.576 149.969 331.644 151.082 333.083L158.186 342.257C160.111 344.651 163.418 343 164.832 341.875L172.758 335.739" stroke="#EDD713" stroke-width="5" stroke-linecap="round" stroke-linejoin="round"/>
</g>
<g filter="url(#filter3_f_1111_2732)">
<path d="M192.635 320.349L185.86 325.594M204.401 311.24L232.54 289.454C233.979 288.34 234.242 286.271 233.128 284.833L232.067 283.462L233.803 282.118C243.577 274.551 259.774 262.068 268.887 255.044L268.896 255.037C272.459 252.291 274.938 250.381 275.523 249.927C278.128 247.911 282.538 245.538 283.882 247.274C284.957 248.663 286.865 259.196 286.865 259.196L292.039 265.879C292.67 266.695 293.976 266.268 294.004 265.236L294.095 261.853C294.114 261.16 294.763 260.657 295.439 260.813L300.426 261.961C301.102 262.117 301.751 261.614 301.77 260.921L301.908 255.805C301.926 255.111 302.575 254.609 303.251 254.764L308.239 255.912C308.915 256.068 309.564 255.565 309.582 254.872L309.72 249.756C309.739 249.063 310.388 248.56 311.064 248.716L316.051 249.864C316.727 250.019 317.376 249.517 317.395 248.823L317.533 243.707C317.551 243.014 318.2 242.511 318.876 242.667L322.174 243.426C323.18 243.658 323.92 242.5 323.289 241.684L318.115 235.001C303.077 231.718 295.878 228.337 295.475 219.208C295.101 210.76 295.155 206.857 295.243 205.711C295.254 205.566 295.214 205.423 295.125 205.308L290.09 198.804C289.459 197.989 288.153 198.416 288.125 199.447L288.034 202.83C288.015 203.523 287.366 204.026 286.69 203.87L281.703 202.722C281.027 202.567 280.377 203.069 280.359 203.763L280.221 208.879C280.202 209.572 279.553 210.075 278.877 209.919L273.89 208.771C273.214 208.615 272.565 209.118 272.546 209.811L272.409 214.927C272.39 215.621 271.741 216.123 271.065 215.968L266.077 214.82C265.401 214.664 264.752 215.167 264.734 215.86L264.596 220.976C264.577 221.669 263.928 222.172 263.252 222.016L259.954 221.257C258.949 221.026 258.208 222.183 258.84 222.999L263.942 229.589C263.989 229.65 264.049 229.701 264.118 229.737L274.641 235.338C275.458 236.094 274.661 239.488 270.147 242.983C268.456 244.292 263.945 247.769 258.302 252.119L258.298 252.122C248.875 259.385 236.298 269.08 228.427 275.174L226.691 276.518L225.736 275.284C224.622 273.846 222.553 273.583 221.115 274.697L203.488 288.344M192.197 297.086L185.92 301.945M173.001 311.948L151.67 328.462C150.232 329.576 149.969 331.644 151.082 333.083L158.186 342.257C160.111 344.651 163.418 343 164.832 341.875L172.758 335.739" stroke="white" stroke-width="3" stroke-linecap="round"/>
</g>
<g filter="url(#filter4_d_1111_2732)">
<path d="M265.828 325.881C266.965 336.634 279.476 350.075 326.003 346.043C369.645 342.26 400.135 330.534 398.895 307.58C398.895 307.58 399.727 301.687 396.723 300.136C393.72 298.585 391.32 302.307 390.52 303.858C380.594 323.089 362.995 326.087 326.003 329.293C279.476 333.325 266.965 319.884 265.828 302.928C265.828 293.312 294.365 296.724 302.119 287.729C309.873 278.734 321.04 255.16 340.581 253.609C348.197 253.609 359.812 255.16 365.085 259.193" stroke="#ED1320" stroke-width="5" stroke-linecap="round"/>
</g>
<g filter="url(#filter5_f_1111_2732)">
<path d="M265.828 325.881C266.965 336.634 279.476 350.075 326.003 346.043C369.645 342.26 400.135 330.534 398.895 307.58C398.895 307.58 399.727 301.687 396.723 300.136C393.72 298.585 391.32 302.307 390.52 303.858C380.594 323.089 362.995 326.087 326.003 329.293C279.476 333.325 266.965 319.884 265.828 302.928C265.828 293.312 294.365 296.724 302.119 287.729C309.873 278.734 321.04 255.16 340.581 253.609C348.197 253.609 359.812 255.16 365.085 259.193" stroke="white" stroke-width="3" stroke-linecap="round"/>
</g>
<g filter="url(#filter6_d_1111_2732)">
<path d="M302.119 316.578C322.281 313.476 329.725 304.171 346.475 298.278C363.224 292.384 391.451 298.909 395.483 291.768C399.515 284.626 388.039 282.765 384.627 278.733C381.215 274.701 380.904 268.187 374.701 262.912C366.946 257.64 367.877 277.181 361.363 283.384C354.849 289.588 333.447 290.217 322.591 303.861" stroke="white" stroke-width="5" stroke-linecap="round"/>
</g>
<g filter="url(#filter7_f_1111_2732)">
<path d="M302.119 316.578C322.281 313.476 329.725 304.171 346.475 298.278C363.224 292.384 391.451 298.909 395.483 291.768C399.515 284.626 388.039 282.765 384.627 278.733C381.215 274.701 380.904 268.187 374.701 262.912C366.946 257.64 367.877 277.181 361.363 283.384C354.849 289.588 333.447 290.217 322.591 303.861" stroke="white" stroke-width="3" stroke-linecap="round"/>
</g>
<g filter="url(#filter8_d_1111_2732)">
<path d="M333.514 267.953C330.798 269.414 329.167 271.466 329.455 273.49C329.915 276.73 335.113 278.67 341.065 277.825C347.017 276.979 351.469 273.667 351.009 270.428C350.621 267.696 346.862 265.887 342.122 265.896" stroke="white" stroke-width="5" stroke-linecap="round"/>
</g>
<g filter="url(#filter9_f_1111_2732)">
<path d="M333.514 267.953C330.798 269.414 329.167 271.466 329.455 273.49C329.915 276.73 335.113 278.67 341.065 277.825C347.017 276.979 351.469 273.667 351.009 270.428C350.621 267.696 346.862 265.887 342.122 265.896" stroke="white" stroke-width="3" stroke-linecap="round"/>
</g>
<defs>
<filter id="filter0_d_1111_2732" x="68.3066" y="44.1328" width="400.387" height="449.178" filterUnits="userSpaceOnUse" color-interpolation-filters="sRGB">
<feFlood flood-opacity="0" result="BackgroundImageFix"/>
<feColorMatrix in="SourceAlpha" type="matrix" values="0 0 0 0 0 0 0 0 0 0 0 0 0 0 0 0 0 0 127 0" result="hardAlpha"/>
<feOffset/>
<feGaussianBlur stdDeviation="11"/>
<feComposite in2="hardAlpha" operator="out"/>
<feColorMatrix type="matrix" values="0 0 0 0 0.0745098 0 0 0 0 0.776471 0 0 0 0 0.929412 0 0 0 0.94 0"/>
<feBlend mode="normal" in2="BackgroundImageFix" result="effect1_dropShadow_1111_2732"/>
<feBlend mode="normal" in="SourceGraphic" in2="effect1_dropShadow_1111_2732" result="shape"/>
</filter>
<filter id="filter1_f_1111_2732" x="89.3066" y="65.1328" width="358.387" height="407.178" filterUnits="userSpaceOnUse" color-interpolation-filters="sRGB">
<feFlood flood-opacity="0" result="BackgroundImageFix"/>
<feBlend mode="normal" in="SourceGraphic" in2="BackgroundImageFix" result="shape"/>
<feGaussianBlur stdDeviation="1" result="effect1_foregroundBlur_1111_2732"/>
</filter>
<filter id="filter2_d_1111_2732" x="125.893" y="173.873" width="222.14" height="194.109" filterUnits="userSpaceOnUse" color-interpolation-filters="sRGB">
<feFlood flood-opacity="0" result="BackgroundImageFix"/>
<feColorMatrix in="SourceAlpha" type="matrix" values="0 0 0 0 0 0 0 0 0 0 0 0 0 0 0 0 0 0 127 0" result="hardAlpha"/>
<feOffset/>
<feGaussianBlur stdDeviation="11"/>
<feComposite in2="hardAlpha" operator="out"/>
<feColorMatrix type="matrix" values="0 0 0 0 0.929167 0 0 0 0 0.843606 0 0 0 0 0.073559 0 0 0 0.94 0"/>
<feBlend mode="normal" in2="BackgroundImageFix" result="effect1_dropShadow_1111_2732"/>
<feBlend mode="normal" in="SourceGraphic" in2="effect1_dropShadow_1111_2732" result="shape"/>
</filter>
<filter id="filter3_f_1111_2732" x="146.893" y="194.875" width="180.136" height="152.107" filterUnits="userSpaceOnUse" color-interpolation-filters="sRGB">
<feFlood flood-opacity="0" result="BackgroundImageFix"/>
<feBlend mode="normal" in="SourceGraphic" in2="BackgroundImageFix" result="shape"/>
<feGaussianBlur stdDeviation="1" result="effect1_foregroundBlur_1111_2732"/>
</filter>
<filter id="filter4_d_1111_2732" x="251.328" y="239.109" width="162.172" height="122.166" filterUnits="userSpaceOnUse" color-interpolation-filters="sRGB">
<feFlood flood-opacity="0" result="BackgroundImageFix"/>
<feColorMatrix in="SourceAlpha" type="matrix" values="0 0 0 0 0 0 0 0 0 0 0 0 0 0 0 0 0 0 127 0" result="hardAlpha"/>
<feOffset/>
<feGaussianBlur stdDeviation="6"/>
<feComposite in2="hardAlpha" operator="out"/>
<feColorMatrix type="matrix" values="0 0 0 0 0.929412 0 0 0 0 0.0745098 0 0 0 0 0.12549 0 0 0 0.94 0"/>
<feBlend mode="normal" in2="BackgroundImageFix" result="effect1_dropShadow_1111_2732"/>
<feBlend mode="normal" in="SourceGraphic" in2="effect1_dropShadow_1111_2732" result="shape"/>
</filter>
<filter id="filter5_f_1111_2732" x="262.328" y="250.109" width="140.172" height="100.166" filterUnits="userSpaceOnUse" color-interpolation-filters="sRGB">
<feFlood flood-opacity="0" result="BackgroundImageFix"/>
<feBlend mode="normal" in="SourceGraphic" in2="BackgroundImageFix" result="shape"/>
<feGaussianBlur stdDeviation="1" result="effect1_foregroundBlur_1111_2732"/>
</filter>
<filter id="filter6_d_1111_2732" x="277.619" y="237.52" width="143.212" height="103.559" filterUnits="userSpaceOnUse" color-interpolation-filters="sRGB">
<feFlood flood-opacity="0" result="BackgroundImageFix"/>
<feColorMatrix in="SourceAlpha" type="matrix" values="0 0 0 0 0 0 0 0 0 0 0 0 0 0 0 0 0 0 127 0" result="hardAlpha"/>
<feOffset/>
<feGaussianBlur stdDeviation="11"/>
<feComposite in2="hardAlpha" operator="out"/>
<feColorMatrix type="matrix" values="0 0 0 0 1 0 0 0 0 1 0 0 0 0 1 0 0 0 0.73 0"/>
<feBlend mode="normal" in2="BackgroundImageFix" result="effect1_dropShadow_1111_2732"/>
<feBlend mode="normal" in="SourceGraphic" in2="effect1_dropShadow_1111_2732" result="shape"/>
</filter>
<filter id="filter7_f_1111_2732" x="298.619" y="258.52" width="101.212" height="61.5586" filterUnits="userSpaceOnUse" color-interpolation-filters="sRGB">
<feFlood flood-opacity="0" result="BackgroundImageFix"/>
<feBlend mode="normal" in="SourceGraphic" in2="BackgroundImageFix" result="shape"/>
<feGaussianBlur stdDeviation="1" result="effect1_foregroundBlur_1111_2732"/>
</filter>
<filter id="filter8_d_1111_2732" x="304.919" y="241.396" width="70.625" height="61.127" filterUnits="userSpaceOnUse" color-interpolation-filters="sRGB">
<feFlood flood-opacity="0" result="BackgroundImageFix"/>
<feColorMatrix in="SourceAlpha" type="matrix" values="0 0 0 0 0 0 0 0 0 0 0 0 0 0 0 0 0 0 127 0" result="hardAlpha"/>
<feOffset/>
<feGaussianBlur stdDeviation="11"/>
<feComposite in2="hardAlpha" operator="out"/>
<feColorMatrix type="matrix" values="0 0 0 0 1 0 0 0 0 1 0 0 0 0 1 0 0 0 0.73 0"/>
<feBlend mode="normal" in2="BackgroundImageFix" result="effect1_dropShadow_1111_2732"/>
<feBlend mode="normal" in="SourceGraphic" in2="effect1_dropShadow_1111_2732" result="shape"/>
</filter>
<filter id="filter9_f_1111_2732" x="325.92" y="262.396" width="28.623" height="19.127" filterUnits="userSpaceOnUse" color-interpolation-filters="sRGB">
<feFlood flood-opacity="0" result="BackgroundImageFix"/>
<feBlend mode="normal" in="SourceGraphic" in2="BackgroundImageFix" result="shape"/>
<feGaussianBlur stdDeviation="1" result="effect1_foregroundBlur_1111_2732"/>
</filter>
</defs>
</svg>
