<svg width="447" height="499" viewBox="0 0 447 499" fill="none" xmlns="http://www.w3.org/2000/svg">
<path d="M196 7.87713C213.017 -1.94767 233.983 -1.94767 251 7.87713L419.002 104.873C436.019 114.698 446.502 132.855 446.502 152.504V346.496C446.502 366.145 436.019 384.302 419.002 394.127L251 491.123C233.983 500.948 213.017 500.948 196 491.123L27.9985 394.127C10.9814 384.302 0.498459 366.145 0.498459 346.496V152.504C0.498459 132.855 10.9814 114.698 27.9985 104.873L196 7.87713Z" fill="#0C111E"/>
<path d="M196 7.87713C213.017 -1.94767 233.983 -1.94767 251 7.87713L419.002 104.873C436.019 114.698 446.502 132.855 446.502 152.504V346.496C446.502 366.145 436.019 384.302 419.002 394.127L251 491.123C233.983 500.948 213.017 500.948 196 491.123L27.9985 394.127C10.9814 384.302 0.498459 366.145 0.498459 346.496V152.504C0.498459 132.855 10.9814 114.698 27.9985 104.873L196 7.87713Z" fill="#0F0F0F" fill-opacity="0.7"/>
</svg>
