<svg id="Capa_1" data-name="Capa 1"
    xmlns="http://www.w3.org/2000/svg" viewBox="0 0 1000 430">
    <defs>
        <style>.cls-1,.cls-2{fill:#fff;}.cls-1{fill-rule:evenodd;}</style>
    </defs>
    <path class="cls-1" d="M106.78,238.44a9.16,9.16,0,1,0,9.15,9.16A9.15,9.15,0,0,0,106.78,238.44Z"/>
    <path class="cls-1" d="M106.78,270.51a9.16,9.16,0,1,0,9.15,9.15A9.15,9.15,0,0,0,106.78,270.51Z"/>
    <path class="cls-2" d="M122.42,416.41H91.14A13.38,13.38,0,0,1,77.77,403V226.93c0-9.86,5.73-13.37,11.09-13.37h2.27c0-14,.08-81.78.13-96.51,0-7.45,0-12.89,0-14.18a21.7,21.7,0,0,0-1.41-8.54,4.73,4.73,0,0,0-.71-1.26l-.25-.33c-.46-.64-1.4-2-3.56-.49-10.23,7.32-21.53,11.24-32.69,11.34h-.36a9,9,0,0,1-8.2-5.78,11.72,11.72,0,0,1,2-12.55l1.67-1.77L43.5,79a11.79,11.79,0,0,1,0-15.56l4.25-4.5-4.25-4.5a11.79,11.79,0,0,1,0-15.56L48.08,34l-2-2.11a11.73,11.73,0,0,1-2-12.56,9,9,0,0,1,8.18-5.77h.34c11.19.07,22.52,4,32.79,11.35a62.9,62.9,0,0,0,12.89,7.47,34.09,34.09,0,0,0,8.5,1.56h0a34,34,0,0,0,8.5-1.56A62.64,62.64,0,0,0,128.21,25c10.25-7.34,21.55-11.26,32.71-11.35h.35a9,9,0,0,1,8.18,5.77,11.73,11.73,0,0,1-2,12.56l-2,2.11,4.57,4.85a11.76,11.76,0,0,1,0,15.56l-4.25,4.5,4.25,4.5a11.76,11.76,0,0,1,0,15.56l-4.25,4.5,1.68,1.77a11.72,11.72,0,0,1,2,12.55,9,9,0,0,1-8,5.78h-.51c-11.14-.11-22.42-4-32.64-11.35-2.15-1.47-3.09-.14-3.55.5a3.86,3.86,0,0,1-.63.71,7.85,7.85,0,0,0-.44.88,21.64,21.64,0,0,0-1.42,8.54c0,1.29,0,6.73,0,14.18,0,14.73.12,82.48.13,96.51h2.31c5.36,0,11.09,3.51,11.09,13.37V389.12a4.41,4.41,0,0,1-8.82,0V226.93c0-4.55-1.48-4.55-2.27-4.55h-6.32a4.77,4.77,0,0,1-4.42-3,4.31,4.31,0,0,1-.39-1.8c0-13.32-.07-84.28-.12-100.52,0-7.47,0-12.92,0-14.21a30.16,30.16,0,0,1,2.14-12,13.64,13.64,0,0,1,2.12-3.53L118,87a1.54,1.54,0,0,1,.19-.17,10.6,10.6,0,0,1,6.54-3.89,12.46,12.46,0,0,1,8.72,2.19c8.74,6.26,18.31,9.61,27.67,9.67a2.85,2.85,0,0,0,.5-1.45,2.63,2.63,0,0,0-.53-2l-4.54-4.8a4.43,4.43,0,0,1,0-6.06l7.11-7.53a3,3,0,0,0,0-3.45L156.53,62a4.41,4.41,0,0,1,0-6.05l7.11-7.53a3,3,0,0,0,0-3.45l-7.43-7.87a4.41,4.41,0,0,1,0-6.06l4.86-5.14a2.63,2.63,0,0,0,.53-2,2.85,2.85,0,0,0-.5-1.45c-9.37,0-19,3.4-27.76,9.7a69.66,69.66,0,0,1-14.92,8.55l-.23.09a42.15,42.15,0,0,1-11.09,2h-.57a42.3,42.3,0,0,1-11.09-2l-.23-.09a70.14,70.14,0,0,1-14.92-8.55c-8.82-6.32-18.44-9.67-27.83-9.7a2.85,2.85,0,0,0-.5,1.45,2.63,2.63,0,0,0,.53,2L57.35,31a4.43,4.43,0,0,1,0,6.06l-7.44,7.87a3.06,3.06,0,0,0,0,3.45L57,55.91A4.39,4.39,0,0,1,57,62l-7.11,7.53a3.06,3.06,0,0,0,0,3.45L57,80.47a4.41,4.41,0,0,1,0,6.06l-4.53,4.8a2.63,2.63,0,0,0-.53,2,2.85,2.85,0,0,0,.5,1.45c9.38,0,19-3.4,27.78-9.7a12.5,12.5,0,0,1,8.68-2.16A10.8,10.8,0,0,1,96,87.47a13.93,13.93,0,0,1,2,3.36,30.16,30.16,0,0,1,2.14,12c0,1.29,0,6.74,0,14.21,0,16.24-.12,87.2-.12,100.52a4.78,4.78,0,0,1-4.77,4.77H88.86c-.79,0-2.28,0-2.28,4.56V403a4.57,4.57,0,0,0,4.56,4.56h31.28a4.41,4.41,0,1,1,0,8.81Zm0-198.82h0Z"/>
    <path class="cls-2" d="M924,210.5a14.63,14.63,0,0,0-11,4.29q-4,4.14-4,11.3v1.14H938.7v-1.14q0-7.31-4-11.44T924,210.5Zm1.72,62.06q-18.59,0-28.17-10.3t-9.58-28a50,50,0,0,1,2.43-16.16,35.57,35.57,0,0,1,7.15-12.3,29.93,29.93,0,0,1,11.29-7.72,39.82,39.82,0,0,1,15-2.72,38.68,38.68,0,0,1,14.87,2.72,30.25,30.25,0,0,1,11.15,7.43,32.77,32.77,0,0,1,7,11.87,43.92,43.92,0,0,1,2.57,15.45v6.29H909v1.28A15.7,15.7,0,0,0,913.39,252q4.44,4.29,13,4.29a24.29,24.29,0,0,0,11.3-2.44,27.63,27.63,0,0,0,8.15-6.72l11.44,12.44a35.84,35.84,0,0,1-12,9.16Q937.56,272.55,925.69,272.56Zm-121.2-1.72V253.25l41-39.75H805.92V197.06H870v17.59l-41,39.75h42.47v16.44ZM722.76,254.4h23.45V213.5H722.76V197.06h44.61V254.4H789.1v16.44H722.76Zm34-66.78q-7.15,0-10-2.86a10.29,10.29,0,0,1-2.72-7.15v-4.14a10,10,0,0,1,2.72-7.15q2.85-2.87,10-2.86t9.86,2.86a9.68,9.68,0,0,1,2.86,7.15v4.14a10,10,0,0,1-2.86,7.15Q763.94,187.63,756.79,187.62ZM634.16,254.4h17V213.5h-17V197.06h38.18v20.87h1a44.45,44.45,0,0,1,2.71-7.72,26.31,26.31,0,0,1,4.58-6.72,20.64,20.64,0,0,1,6.86-4.72,23.93,23.93,0,0,1,9.44-1.71h7v19.45H688.21q-7.86,0-11.87,4.71a16.55,16.55,0,0,0-4,11.3V254.4h24.3v16.44H634.16ZM581,210.5a14.63,14.63,0,0,0-11,4.29q-4,4.14-4,11.3v1.14h29.74v-1.14q0-7.31-4-11.44T581,210.5Zm1.72,62.06q-18.59,0-28.17-10.3t-9.58-28a50,50,0,0,1,2.43-16.16,35.57,35.57,0,0,1,7.15-12.3,30,30,0,0,1,11.3-7.72,39.73,39.73,0,0,1,15-2.72,38.64,38.64,0,0,1,14.87,2.72,30.17,30.17,0,0,1,11.15,7.43,32.77,32.77,0,0,1,7,11.87,43.69,43.69,0,0,1,2.57,15.45v6.29H566v1.28A15.7,15.7,0,0,0,570.44,252q4.44,4.29,13,4.29a24.29,24.29,0,0,0,11.3-2.44,27.51,27.51,0,0,0,8.15-6.72l11.44,12.44a35.74,35.74,0,0,1-12,9.16Q594.6,272.55,582.74,272.56Zm-88.17-16.45a16.65,16.65,0,0,0,9.58-2.71c2.77-1.82,4.15-4.67,4.15-8.58V223.08q0-5.87-4.15-8.58a16.65,16.65,0,0,0-9.58-2.71q-7.14,0-11,4.43t-3.86,12v11.44q0,7.72,3.86,12.15T494.57,256.11Zm13.73,1.29h-1a28.71,28.71,0,0,1-8,11q-5,4.14-13.87,4.15a27.63,27.63,0,0,1-11.3-2.29,23.57,23.57,0,0,1-8.72-7,37.08,37.08,0,0,1-5.72-12,75.82,75.82,0,0,1,0-34.6,37.08,37.08,0,0,1,5.72-12,23.57,23.57,0,0,1,8.72-7,27.63,27.63,0,0,1,11.3-2.29,24.54,24.54,0,0,1,7.86,1.15,20.06,20.06,0,0,1,6,3.14,18.76,18.76,0,0,1,4.58,4.86,31.71,31.71,0,0,1,3.43,6h1V165h21.16V270.84H508.3ZM375.66,270.84V197.06h21.16V210.5h.86a31.34,31.34,0,0,1,3.15-5.86,20.71,20.71,0,0,1,4.43-4.72,20,20,0,0,1,6.15-3.29,23.45,23.45,0,0,1,8-1.29,24.91,24.91,0,0,1,9.72,1.86,19.33,19.33,0,0,1,7.58,5.29,25.25,25.25,0,0,1,4.86,8.72,34.88,34.88,0,0,1,1.86,11.87v47.76H422.28v-44.9q0-14.3-12.44-14.3a17,17,0,0,0-4.87.72,11.22,11.22,0,0,0-4.14,2,10,10,0,0,0-3,3.29,10.53,10.53,0,0,0-1,4.72v48.47ZM323.81,210.5a14.63,14.63,0,0,0-11,4.29q-4,4.14-4,11.3v1.14h29.74v-1.14q0-7.31-4-11.44T323.81,210.5Zm1.72,62.06q-18.58,0-28.17-10.3t-9.58-28a50,50,0,0,1,2.43-16.16,35.57,35.57,0,0,1,7.15-12.3,30,30,0,0,1,11.3-7.72,39.73,39.73,0,0,1,15-2.72,38.64,38.64,0,0,1,14.87,2.72,30.17,30.17,0,0,1,11.15,7.43,32.77,32.77,0,0,1,7,11.87,43.69,43.69,0,0,1,2.57,15.45v6.29H308.8v1.28A15.7,15.7,0,0,0,313.23,252q4.44,4.29,13,4.29a24.29,24.29,0,0,0,11.3-2.44,27.63,27.63,0,0,0,8.15-6.72l11.44,12.44a35.74,35.74,0,0,1-12,9.16Q337.4,272.55,325.53,272.56Zm-77-83.94v82.22H227.07V188.62H198.32V171h78.93v17.59Z"/>
</svg>