<svg width="66" height="68" viewBox="0 0 66 68" fill="none" xmlns="http://www.w3.org/2000/svg">
<circle cx="31" cy="31" r="30" fill="#161617"/>
<path d="M61 31C61 14.4315 47.5685 1 31 1C14.4315 1 1 14.4315 1 31C1 45.865 11.8114 58.2048 26 60.5852" stroke="white" stroke-width="2" stroke-linecap="round" stroke-linejoin="round"/>
<path d="M45.7444 51.24C45.3539 51.6305 45.3539 52.2637 45.7444 52.6542L47.5213 54.4312C47.9118 54.8217 48.545 54.8217 48.9355 54.4312L49.4794 53.8873L56.1832 47.1835L56.5307 48.0997C56.631 48.3642 56.7864 48.6045 56.9865 48.8046L57.5825 49.4006C57.805 49.6231 58.1194 49.7279 58.431 49.6834L59.8586 49.4795C60.3512 49.4091 60.7172 48.9872 60.7172 48.4895V48.2659L60.9408 48.2659C61.206 48.2659 61.4604 48.1605 61.6479 47.973C61.8355 47.7854 61.9408 47.5311 61.9408 47.2659L61.9408 47.0422L62.1645 47.0422C62.4297 47.0422 62.684 46.9369 62.8716 46.7493C63.0591 46.5618 63.1645 46.3074 63.1645 46.0422L63.1645 45.8186L63.3881 45.8186C63.6533 45.8186 63.9077 45.7132 64.0952 45.5257C64.2828 45.3381 64.3881 45.0838 64.3881 44.8186L64.3881 44.0091L63.3881 44.0091L64.3881 44.0091C64.3881 43.4787 64.1774 42.97 63.8023 42.5949L63.6453 42.4379C63.263 42.0556 62.7654 41.8645 62.2814 41.835C61.9096 41.8123 61.3207 41.7496 60.7223 41.5834C60.1101 41.4133 59.583 41.1609 59.2432 40.821C58.2114 39.7893 58.1575 38.3262 58.1575 37.3927C58.1575 37.1274 58.0522 36.8731 57.8647 36.6856L57.1754 35.9963C57.0656 35.8865 56.9318 35.8038 56.7845 35.7547L55.7507 35.4101C55.4457 35.3085 55.1105 35.3596 54.8497 35.5475C54.5889 35.7355 54.4344 36.0373 54.4344 36.3588V36.7373L54.0559 36.7373C53.5036 36.7373 53.0559 37.185 53.0559 37.7373L53.0559 38.1158L52.6774 38.1158C52.1251 38.1158 51.6774 38.5635 51.6774 39.1158L51.6774 39.4943L51.2989 39.4943C51.0337 39.4943 50.7794 39.5996 50.5918 39.7872C50.4043 39.9747 50.2989 40.2291 50.2989 40.4943L50.2989 41.8728C50.2989 42.138 50.4043 42.3924 50.5918 42.5799L51.2811 43.2691C51.3908 43.3789 51.5247 43.4616 51.672 43.5107L53.0232 43.9611L46.2882 50.6962L45.7444 51.24Z" fill="#2F3350" stroke="white" stroke-width="2" stroke-linecap="round" stroke-linejoin="round"/>
<mask id="path-4-outside-1_503_517" maskUnits="userSpaceOnUse" x="30.845" y="47.2737" width="22.6274" height="22.6274" fill="black">
<rect fill="white" x="30.845" y="47.2737" width="22.6274" height="22.6274"/>
<path fill-rule="evenodd" clip-rule="evenodd" d="M44.2801 51.5164C45.0611 50.7353 46.3274 50.7353 47.1085 51.5164L48.6592 53.0671C49.4402 53.8481 49.4402 55.1144 48.6592 55.8955L39.7949 64.7597C39.0138 65.5408 37.7475 65.5408 36.9665 64.7597L35.4158 63.2091C34.6348 62.428 34.6348 61.1617 35.4158 60.3806L44.2801 51.5164ZM45.6216 55.923C45.2811 56.2635 44.729 56.2635 44.3885 55.923C44.048 55.5825 44.048 55.0305 44.3885 54.6899C44.729 54.3494 45.2811 54.3494 45.6216 54.6899C45.9621 55.0305 45.9621 55.5825 45.6216 55.923ZM41.9318 58.3798C42.2723 58.7203 42.8243 58.7203 43.1648 58.3798C43.5054 58.0393 43.5054 57.4872 43.1648 57.1467C42.8243 56.8062 42.2723 56.8062 41.9318 57.1467C41.5912 57.4872 41.5912 58.0393 41.9318 58.3798Z"/>
</mask>
<path fill-rule="evenodd" clip-rule="evenodd" d="M44.2801 51.5164C45.0611 50.7353 46.3274 50.7353 47.1085 51.5164L48.6592 53.0671C49.4402 53.8481 49.4402 55.1144 48.6592 55.8955L39.7949 64.7597C39.0138 65.5408 37.7475 65.5408 36.9665 64.7597L35.4158 63.2091C34.6348 62.428 34.6348 61.1617 35.4158 60.3806L44.2801 51.5164ZM45.6216 55.923C45.2811 56.2635 44.729 56.2635 44.3885 55.923C44.048 55.5825 44.048 55.0305 44.3885 54.6899C44.729 54.3494 45.2811 54.3494 45.6216 54.6899C45.9621 55.0305 45.9621 55.5825 45.6216 55.923ZM41.9318 58.3798C42.2723 58.7203 42.8243 58.7203 43.1648 58.3798C43.5054 58.0393 43.5054 57.4872 43.1648 57.1467C42.8243 56.8062 42.2723 56.8062 41.9318 57.1467C41.5912 57.4872 41.5912 58.0393 41.9318 58.3798Z" fill="#333333"/>
<path d="M48.5227 50.1022C46.9606 48.5401 44.4279 48.5401 42.8658 50.1022L45.6943 52.9306L45.6943 52.9306L48.5227 50.1022ZM50.0734 51.6528L48.5227 50.1022L45.6943 52.9306L47.2449 54.4813L50.0734 51.6528ZM50.0734 57.3097C51.6355 55.7476 51.6355 53.2149 50.0734 51.6528L47.2449 54.4813L47.2449 54.4813L50.0734 57.3097ZM41.2091 66.174L50.0734 57.3097L47.2449 54.4813L38.3807 63.3455L41.2091 66.174ZM35.5523 66.174C37.1144 67.736 39.647 67.736 41.2091 66.174L38.3807 63.3455L38.3807 63.3455L35.5523 66.174ZM34.0016 64.6233L35.5523 66.174L38.3807 63.3455L36.83 61.7949L34.0016 64.6233ZM34.0016 58.9664C32.4395 60.5285 32.4395 63.0612 34.0016 64.6233L36.83 61.7949L36.83 61.7949L34.0016 58.9664ZM42.8658 50.1022L34.0016 58.9664L36.83 61.7949L45.6943 52.9306L42.8658 50.1022ZM42.9743 57.3372C44.0958 58.4588 45.9142 58.4588 47.0358 57.3372L44.2074 54.5088C44.6479 54.0683 45.3622 54.0683 45.8027 54.5088L42.9743 57.3372ZM42.9743 53.2757C41.8527 54.3973 41.8527 56.2157 42.9743 57.3372L45.8027 54.5088C46.2432 54.9494 46.2432 55.6636 45.8027 56.1042L42.9743 53.2757ZM47.0358 53.2757C45.9142 52.1542 44.0958 52.1542 42.9743 53.2757L45.8027 56.1042C45.3622 56.5447 44.6479 56.5447 44.2074 56.1042L47.0358 53.2757ZM47.0358 57.3372C48.1574 56.2157 48.1574 54.3973 47.0358 53.2757L44.2074 56.1042C43.7668 55.6636 43.7668 54.9494 44.2074 54.5088L47.0358 57.3372ZM41.7506 56.9656C42.1912 56.525 42.9054 56.525 43.346 56.9656L40.5175 59.794C41.6391 60.9156 43.4575 60.9156 44.5791 59.794L41.7506 56.9656ZM41.7506 58.5609C41.3101 58.1204 41.3101 57.4061 41.7506 56.9656L44.5791 59.794C45.7006 58.6725 45.7006 56.854 44.5791 55.7325L41.7506 58.5609ZM43.346 58.5609C42.9054 59.0015 42.1912 59.0015 41.7506 58.5609L44.5791 55.7325C43.4575 54.6109 41.6391 54.6109 40.5175 55.7325L43.346 58.5609ZM43.346 56.9656C43.7865 57.4061 43.7865 58.1204 43.346 58.5609L40.5175 55.7325C39.396 56.854 39.396 58.6725 40.5175 59.794L43.346 56.9656Z" fill="white" mask="url(#path-4-outside-1_503_517)"/>
<path d="M31.6461 35.5252C31.5895 35.5252 31.5325 35.5184 31.4772 35.504L23.1235 33.4155C22.9203 33.3653 22.751 33.2259 22.6618 33.0359C22.573 32.8471 22.5741 32.6276 22.6646 32.4392L31.0187 15.0351C31.1354 14.7889 31.3903 14.6471 31.6576 14.6399C31.9297 14.6447 32.1739 14.8072 32.283 15.0562L39.9408 32.4603C40.0225 32.6451 40.0197 32.857 39.9321 33.0399C39.8448 33.2231 39.6823 33.359 39.4867 33.4119L31.8289 35.5005C31.7692 35.5168 31.7078 35.5252 31.6461 35.5252ZM24.2894 32.2719L31.6385 34.1098L38.3411 32.2814L31.619 17.0029L24.2894 32.2719Z" fill="white"/>
<path d="M31.646 47.3597C31.4018 47.3597 31.1748 47.2322 31.0489 47.0219L22.6952 33.0989C22.4972 32.769 22.6039 32.3412 22.9338 32.1436C23.264 31.9449 23.691 32.0524 23.8886 32.3823L31.6193 45.2667L38.6935 32.4054C38.8784 32.068 39.303 31.9465 39.6388 32.1309C39.9758 32.3157 40.0989 32.7392 39.9133 33.0758L32.2555 46.9992C32.136 47.2178 31.9081 47.3553 31.6587 47.3601C31.6548 47.3597 31.65 47.3597 31.646 47.3597Z" fill="white"/>
<path d="M31.646 47.3596C31.2612 47.3596 30.9497 47.0485 30.9497 46.6637V16.7288C30.9497 16.344 31.2612 16.0325 31.646 16.0325C32.0308 16.0325 32.3419 16.344 32.3419 16.7288V46.6637C32.3419 47.0485 32.0308 47.3596 31.646 47.3596Z" fill="white"/>
</svg>
