<svg width="83" height="78" viewBox="0 0 83 78" fill="none" xmlns="http://www.w3.org/2000/svg">
<path fill-rule="evenodd" clip-rule="evenodd" d="M54.1645 54.8392L24.6206 27.8734L18.5532 34.5208L14.315 34.7142L14.1217 30.4759L9.88342 30.6693L9.69006 26.4311L5.45183 26.6244L5.25847 22.3862L1.02024 22.5796L0.826879 18.3413L8.91662 9.47815L17.0064 0.614964L21.2446 0.421604L21.438 4.65984L25.6762 4.46648L25.8696 8.70471L30.1078 8.51135L30.3011 12.7496L34.5394 12.5562L34.7327 16.7945L28.6654 23.4418L58.2094 50.4077L59.5577 48.9305L82.4542 69.829L79.0835 73.522L75.7128 77.2149L52.8162 56.3164L54.1645 54.8392Z" fill="#292B33"/>
</svg>
