<svg width="62" height="62" viewBox="0 0 62 62" fill="none" xmlns="http://www.w3.org/2000/svg">
<circle cx="31" cy="31" r="30" fill="#161617" stroke="white" stroke-width="2"/>
<g clip-path="url(#clip0)">
<path d="M37.901 24.9164C37.3724 24.6059 36.6927 24.6059 36.0885 24.9164L31.8594 27.4776L28.9896 29.1074L24.8359 31.6686C24.3073 31.9791 23.6276 31.9791 23.0234 31.6686L19.776 29.6507C19.2474 29.3403 18.8698 28.7194 18.8698 28.0209V24.1403C18.8698 23.5194 19.1719 22.8985 19.776 22.5104L23.0234 20.5701C23.5521 20.2597 24.2318 20.2597 24.8359 20.5701L28.0833 22.588C28.612 22.8985 28.9896 23.5194 28.9896 24.2179V26.7791L31.8594 25.0716V22.4328C31.8594 21.8119 31.5573 21.191 30.9531 20.803L24.9115 17.1552C24.3828 16.8448 23.7031 16.8448 23.099 17.1552L16.9062 20.8806C16.3021 21.191 16 21.8119 16 22.4328V29.7283C16 30.3492 16.3021 30.9701 16.9062 31.3582L23.0234 35.0059C23.5521 35.3164 24.2318 35.3164 24.8359 35.0059L28.9896 32.5224L31.8594 30.8149L36.013 28.3313C36.5417 28.0209 37.2214 28.0209 37.8255 28.3313L41.0729 30.2716C41.6016 30.5821 41.9792 31.203 41.9792 31.9015V35.7821C41.9792 36.403 41.6771 37.0239 41.0729 37.4119L37.901 39.3522C37.3724 39.6627 36.6927 39.6627 36.0885 39.3522L32.8411 37.4119C32.3125 37.1015 31.9349 36.4806 31.9349 35.7821V33.2985L29.0651 35.0059V37.5671C29.0651 38.188 29.3672 38.8089 29.9714 39.197L36.0885 42.8447C36.6172 43.1552 37.2969 43.1552 37.901 42.8447L44.0182 39.197C44.5469 38.8865 44.9245 38.2656 44.9245 37.5671V30.194C44.9245 29.5731 44.6224 28.9522 44.0182 28.5642L37.901 24.9164Z" fill="white"/>
</g>
<defs>
<clipPath id="clip0">
<rect width="29" height="26" fill="white" transform="translate(16 17)"/>
</clipPath>
</defs>
</svg>
