<svg width="62" height="62" xmlns="http://www.w3.org/2000/svg" fill="none">
 <g>
  <title>Layer 1</title>
  <circle cx="31" cy="31" r="30" fill="#161617" stroke="white" stroke-width="2" id="svg_1"/>
  <g id="svg_2" stroke="null">
   <g id="svg_4" stroke="null">
    <title stroke="null">Layer 1</title>
    <ellipse ry="29.03602" rx="29.03602" id="svg_3" cy="31" cx="30.45659" fill="#000000" stroke="null"/>
    <g id="svg_5" stroke="null">
     <g id="svg_6" fill="#8247E5" stroke="null">
      <path id="svg_7" fill="#ffffff" d="m39.03876,24.2412c-0.59537,-0.34021 -1.36085,-0.34021 -2.04127,0l-4.76296,2.80675l-3.23201,1.78611l-4.67791,2.80675c-0.59537,0.34021 -1.36085,0.34021 -2.04127,0l-3.65727,-2.21138c-0.59537,-0.34021 -1.02063,-1.02063 -1.02063,-1.78611l0,-4.25265c0,-0.68042 0.34021,-1.36085 1.02063,-1.78611l3.65727,-2.12632c0.59537,-0.34021 1.36085,-0.34021 2.04127,0l3.65727,2.21138c0.59537,0.34021 1.02063,1.02063 1.02063,1.78611l0,2.80675l3.23201,-1.87116l0,-2.8918c0,-0.68042 -0.34021,-1.36085 -1.02063,-1.78611l-6.80423,-3.99749c-0.59537,-0.34021 -1.36085,-0.34021 -2.04127,0l-6.97434,4.08254c-0.68042,0.34021 -1.02063,1.02063 -1.02063,1.70106l0,7.99497c0,0.68042 0.34021,1.36085 1.02063,1.78611l6.88929,3.99749c0.59537,0.34021 1.36085,0.34021 2.04127,0l4.67791,-2.72169l3.23201,-1.87116l4.67791,-2.72169c0.59537,-0.34021 1.36085,-0.34021 2.04127,0l3.65728,2.12632c0.59537,0.34021 1.02063,1.02063 1.02063,1.78611l0,4.25265c0,0.68042 -0.34021,1.36085 -1.02063,1.78611l-3.57222,2.12632c-0.59537,0.34021 -1.36085,0.34021 -2.04127,0l-3.65727,-2.12632c-0.59537,-0.34021 -1.02064,-1.02063 -1.02064,-1.78611l0,-2.72169l-3.23201,1.87116l0,2.80675c0,0.68042 0.34021,1.36085 1.02064,1.78611l6.88929,3.99749c0.59537,0.34021 1.36085,0.34021 2.04127,0l6.88929,-3.99749c0.59537,-0.34021 1.02063,-1.02064 1.02063,-1.78611l0,-8.08003c0,-0.68042 -0.34021,-1.36085 -1.02063,-1.78611l-6.88929,-3.99749l-0.00002,-0.00002z" class="st0" stroke="null"/>
     </g>
    </g>
   </g>
   <g/>
  </g>
 </g>

</svg>