<svg width="572" height="573" xmlns="http://www.w3.org/2000/svg">

 <g>
  <title>Layer 1</title>
  <ellipse stroke="null" ry="285.49999" rx="285.49999" id="svg_2" cy="286.49999" cx="286.49999" fill="#8247E5"/>
  <g stroke="null">
   <g fill="#8247E5" stroke="null">
    <path stroke="null" fill="#ffffff" d="m375.37487,222.28819c-5.85404,-3.34517 -13.38068,-3.34517 -20.07102,0l-46.83239,27.59766l-31.77912,17.56214l-45.99609,27.59766c-5.85405,3.34517 -13.38069,3.34517 -20.07103,0l-35.96058,-21.74361c-5.85405,-3.34517 -10.03551,-10.03551 -10.03551,-17.56215l0,-41.81463c0,-6.69034 3.34517,-13.38068 10.03551,-17.56214l35.96058,-20.90732c5.85405,-3.34517 13.38068,-3.34517 20.07103,0l35.96058,21.74361c5.85405,3.34517 10.03551,10.03551 10.03551,17.56214l0,27.59766l31.77912,-18.39844l0,-28.43395c0,-6.69034 -3.34517,-13.38068 -10.03551,-17.56214l-66.90341,-39.30576c-5.85405,-3.34517 -13.38068,-3.34517 -20.07102,0l-68.576,40.14205c-6.69034,3.34517 -10.03551,10.03551 -10.03551,16.72585l0,78.61151c0,6.69034 3.34517,13.38068 10.03551,17.56215l67.7397,39.30575c5.85405,3.34517 13.38068,3.34517 20.07103,0l45.99609,-26.76136l31.77912,-18.39844l45.9961,-26.76137c5.85405,-3.34517 13.38068,-3.34517 20.07102,0l35.96059,20.90732c5.85404,3.34517 10.03551,10.03551 10.03551,17.56215l0,41.81463c0,6.69034 -3.34517,13.38068 -10.03551,17.56214l-35.1243,20.90732c-5.85404,3.34517 -13.38068,3.34517 -20.07102,0l-35.96058,-20.90732c-5.85405,-3.34517 -10.03552,-10.03551 -10.03552,-17.56214l0,-26.76137l-31.77912,18.39844l0,27.59766c0,6.69034 3.34517,13.38068 10.03552,17.56215l67.7397,39.30575c5.85405,3.34517 13.38068,3.34517 20.07102,0l67.73971,-39.30575c5.85405,-3.34518 10.03551,-10.03552 10.03551,-17.56215l0,-79.4478c0,-6.69034 -3.34517,-13.38068 -10.03551,-17.56215l-67.73971,-39.30575z" class="st0"/>
   </g>
  </g>
 </g>
</svg>