<svg width="64" height="42" viewBox="0 0 64 42" fill="none" xmlns="http://www.w3.org/2000/svg">
<path d="M32 7.52954C15.0588 7.52954 0 14.0444 0 24.4707C0 32.29 7.52941 38.8048 18.8235 38.8048C25.3252 38.8048 32.2089 34.8801 37.1332 34.8801C37.3082 34.8801 37.4795 34.8858 37.6471 34.8952C45.0052 35.3375 45.1765 41.4119 54.5882 41.4119C58.9948 41.4119 64 37.5022 64 28.3804C64 16.6514 50.8235 7.52954 32 7.52954Z" fill="#FFD983"/>
<path d="M60.2353 20.7061H64V28.2355H60.2353V20.7061ZM0 16.9414H3.76471V24.4708H0V16.9414Z" fill="#FFD983"/>
<path d="M54.588 32.5794C50.3132 32.5794 48.4101 31.1582 46.2021 29.515C44.1899 28.0147 41.9085 26.3168 37.8106 26.0684C37.5866 26.0552 37.3626 26.0477 37.133 26.0477C34.4356 26.0477 31.5273 26.9568 28.4497 27.9225C25.2271 28.9295 21.8953 29.9724 18.8252 29.9724C9.00874 29.9724 1.88403 24.491 1.88403 16.9408C1.88403 6.78366 17.4022 1.30225 32.0017 1.30225C49.453 1.30225 62.1193 9.52248 62.1193 20.8505C62.1174 29.4547 57.613 32.5794 54.588 32.5794Z" fill="#A0041E"/>
<path d="M32 2.60706C48.3595 2.60706 60.2353 10.2795 60.2353 20.8508C60.2353 28.6513 56.3576 31.2753 54.5882 31.2753C51.136 31.2753 49.7224 30.2231 47.5802 28.6268C45.4475 27.0381 42.7934 25.0598 37.9727 24.7699C37.6979 24.7529 37.4174 24.7435 37.1332 24.7435C34.0311 24.7435 30.9421 25.7111 27.6744 26.7332C24.6325 27.6856 21.4889 28.6682 18.8235 28.6682C11.3393 28.6682 3.76471 24.6381 3.76471 16.9412C3.76471 7.63106 18.3134 2.60706 32 2.60706ZM32 0C15.0588 0 0 6.51482 0 16.9412C0 24.7605 7.52941 31.2753 18.8235 31.2753C25.3252 31.2753 32.2089 27.3506 37.1332 27.3506C37.3082 27.3506 37.4795 27.3562 37.6471 27.3656C45.0052 27.808 45.1765 33.8824 54.5882 33.8824C58.9948 33.8824 64 29.9727 64 20.8508C64 9.12188 50.8235 0 32 0Z" fill="#FFE8B6"/>
<path d="M28.5381 2.71613C28.5381 2.71613 33.8821 2.60695 37.6468 5.21213C39.5291 6.51472 38.2774 9.44742 38.2774 9.44742L41.4115 10.4262C41.4115 10.4262 41.2948 8.85448 47.0586 7.81919C51.2957 7.05872 55.6082 10.4262 55.6082 10.4262C55.6082 10.4262 50.8233 3.90954 41.4115 2.60695C31.9997 1.30248 28.5381 2.71613 28.5381 2.71613Z" fill="#FFE8B6"/>
<path d="M45.1765 13.0316C45.1765 15.9097 41.8052 18.2438 37.6471 18.2438C33.489 18.2438 30.1177 15.9097 30.1177 13.0316C30.1177 10.1535 33.489 7.81934 37.6471 7.81934C41.8052 7.81934 45.1765 10.1535 45.1765 13.0316Z" fill="#E6E7E8"/>
<path d="M41.4117 13.0317C41.4117 14.4717 39.7251 15.6387 37.647 15.6387C35.5689 15.6387 33.8823 14.4717 33.8823 13.0317C33.8823 11.5917 35.5689 10.4265 37.647 10.4265C39.7251 10.4265 41.4117 11.5917 41.4117 13.0317Z" fill="#A7A9AC"/>
</svg>
