<svg width="172" height="24" viewBox="0 0 172 24" fill="none" xmlns="http://www.w3.org/2000/svg">
<path d="M12 6.68359L24 24.0001H0L12 6.68359Z" fill="#8090E4"/>
<path d="M12 6.68359L24 5.38826e-05H0L12 6.68359Z" fill="#364699"/>
<path d="M12 6.68355L24 1.38281e-06L24 24L12 6.68355Z" fill="#4E66DE"/>
<path d="M12 6.68355L2.00275e-06 1.38281e-06L9.53674e-07 24L12 6.68355Z" fill="#6F7AB4"/>
<path d="M44.5795 6.73001H38.8018V23.5272H33.7777V6.73001H28V2.44728H44.5795V6.73001Z" fill="#4E66DE"/>
<path d="M51.8876 17.1587C52.0922 18.0487 52.5109 18.7439 53.1436 19.2445C53.7948 19.7451 54.7438 19.9954 55.9906 19.9954C56.7163 19.9954 57.4048 19.9119 58.056 19.7451C58.7259 19.5597 59.4888 19.2538 60.3448 18.8273L61.6008 22.5539C60.6332 23.0915 59.6749 23.4623 58.7259 23.6663C57.7769 23.8888 56.6418 24 55.3207 24C53.4785 24 51.9062 23.657 50.6036 22.971C49.3197 22.2665 48.3428 21.2839 47.6729 20.0232C47.003 18.7625 46.6681 17.2978 46.6681 15.6292C46.6681 13.8864 47.0123 12.394 47.7008 11.1518C48.3893 9.89108 49.3197 8.94554 50.492 8.31518C51.6643 7.66628 52.9761 7.34183 54.4275 7.34183C56.7535 7.34183 58.577 8.01854 59.8982 9.37196C61.2193 10.7068 61.8799 12.6628 61.8799 15.2399V17.1587H51.8876ZM54.4275 11.3465C53.7576 11.3465 53.2087 11.5133 52.7807 11.847C52.3714 12.1808 52.0829 12.7555 51.9155 13.5713H56.7721C56.6977 12.7926 56.4651 12.2271 56.0743 11.8749C55.7021 11.5226 55.1532 11.3465 54.4275 11.3465Z" fill="#4E66DE"/>
<path d="M73.9476 7.45307C76.0502 7.45307 77.6226 7.98146 78.6646 9.03824C79.7066 10.095 80.2277 11.7729 80.2277 14.0718V23.5272H75.371V14.0718C75.371 13.3117 75.1757 12.737 74.7849 12.3476C74.4127 11.9397 73.7708 11.7358 72.859 11.7358C71.7797 11.7358 70.6726 12.1808 69.5375 13.0707V23.5272H64.6809V7.78679H69.5375V9.03824C70.226 8.50058 70.9238 8.10197 71.6309 7.84241C72.3566 7.58285 73.1288 7.45307 73.9476 7.45307Z" fill="#4E66DE"/>
<path d="M99.3857 0V23.5272H94.5291V22.4983C93.208 23.4994 91.7938 24 90.2865 24C88.8723 24 87.6163 23.6941 86.5185 23.0823C85.4392 22.4519 84.5833 21.5156 83.9506 20.2735C83.3365 19.0127 83.0295 17.4739 83.0295 15.657C83.0295 13.8586 83.3365 12.3384 83.9506 11.0962C84.5833 9.83546 85.4392 8.89919 86.5185 8.28737C87.6163 7.65701 88.8723 7.34183 90.2865 7.34183C91.7938 7.34183 93.208 7.84241 94.5291 8.84357V0H99.3857ZM91.3472 19.7173C92.4078 19.7173 93.4685 19.3372 94.5291 18.5771V12.7648C93.4685 12.0046 92.4078 11.6246 91.3472 11.6246C90.2679 11.6246 89.4492 11.9676 88.8909 12.6535C88.3513 13.3395 88.0815 14.3407 88.0815 15.657C88.0815 16.9919 88.3513 18.0023 88.8909 18.6883C89.4492 19.3743 90.2679 19.7173 91.3472 19.7173Z" fill="#4E66DE"/>
<path d="M107.547 17.1587C107.752 18.0487 108.171 18.7439 108.803 19.2445C109.455 19.7451 110.404 19.9954 111.65 19.9954C112.376 19.9954 113.064 19.9119 113.716 19.7451C114.386 19.5597 115.149 19.2538 116.004 18.8273L117.261 22.5539C116.293 23.0915 115.335 23.4623 114.386 23.6663C113.437 23.8888 112.302 24 110.98 24C109.138 24 107.566 23.657 106.263 22.971C104.979 22.2665 104.002 21.2839 103.333 20.0232C102.663 18.7625 102.328 17.2978 102.328 15.6292C102.328 13.8864 102.672 12.394 103.361 11.1518C104.049 9.89108 104.979 8.94554 106.152 8.31518C107.324 7.66628 108.636 7.34183 110.087 7.34183C112.413 7.34183 114.237 8.01854 115.558 9.37196C116.879 10.7068 117.54 12.6628 117.54 15.2399V17.1587H107.547ZM110.087 11.3465C109.417 11.3465 108.868 11.5133 108.44 11.847C108.031 12.1808 107.743 12.7555 107.575 13.5713H112.432C112.357 12.7926 112.125 12.2271 111.734 11.8749C111.362 11.5226 110.813 11.3465 110.087 11.3465Z" fill="#4E66DE"/>
<path d="M130.138 7.45307V11.7358H129.496C128.063 11.7358 126.63 12.2457 125.197 13.2654V23.5272H120.341V7.78679H125.197V9.17729C125.886 8.60255 126.574 8.17613 127.263 7.89803C127.97 7.60139 128.714 7.45307 129.496 7.45307H130.138Z" fill="#4E66DE"/>
<path d="M132.934 1.08459H137.79V5.28389H132.934V1.08459ZM132.934 7.78679H137.79V23.5272H132.934V7.78679Z" fill="#4E66DE"/>
<path d="M154.689 19.3001V23.5272H141.571V19.3001L148.437 12.0139H142.073V7.78679H154.075V12.0139L147.237 19.3001H154.689Z" fill="#4E66DE"/>
<path d="M162.008 17.1587C162.212 18.0487 162.631 18.7439 163.264 19.2445C163.915 19.7451 164.864 19.9954 166.111 19.9954C166.836 19.9954 167.525 19.9119 168.176 19.7451C168.846 19.5597 169.609 19.2538 170.465 18.8273L171.721 22.5539C170.753 23.0915 169.795 23.4623 168.846 23.6663C167.897 23.8888 166.762 24 165.441 24C163.599 24 162.026 23.657 160.724 22.971C159.44 22.2665 158.463 21.2839 157.793 20.0232C157.123 18.7625 156.788 17.2978 156.788 15.6292C156.788 13.8864 157.132 12.394 157.821 11.1518C158.509 9.89108 159.44 8.94554 160.612 8.31518C161.784 7.66628 163.096 7.34183 164.548 7.34183C166.874 7.34183 168.697 8.01854 170.018 9.37196C171.339 10.7068 172 12.6628 172 15.2399V17.1587H162.008ZM164.548 11.3465C163.878 11.3465 163.329 11.5133 162.901 11.847C162.491 12.1808 162.203 12.7555 162.036 13.5713H166.892C166.818 12.7926 166.585 12.2271 166.194 11.8749C165.822 11.5226 165.273 11.3465 164.548 11.3465Z" fill="#4E66DE"/>
</svg>
