<svg width="247" height="72" viewBox="0 0 247 72" fill="none" xmlns="http://www.w3.org/2000/svg">
<path d="M10.7888 17.1955V37.3442V38.9561H16.0555V37.3442V17.1955C16.0555 15.1 16.8614 14.7105 17.2644 14.7776L21.0984 16.5029C21.2274 16.561 21.3673 16.591 21.5088 16.591H23.5105L25.3239 14.1732L23.5105 12.3598L25.3239 10.5464L23.5105 8.733L25.3239 6.91961L23.5105 5.10623L25.3239 3.29284L23.8034 1.77235C23.6158 1.58481 23.3615 1.47945 23.0963 1.47945H21.7154C21.446 1.47945 21.1894 1.58683 20.9926 1.77073C19.9858 2.71136 16.6136 5.60715 13.2571 5.60715C9.2499 5.60715 6.44762 2.88334 5.08571 1.52143H3.04286L1 2.54286L3.04286 4.58572L1 6.62858L3.04286 8.67143L1 10.7143L3.04286 12.7571L1 14.8L3.04286 16.8429H5.08571L9.17143 14.8C9.97738 14.8 10.7888 15.9865 10.7888 17.1955Z" stroke="white" stroke-linecap="round" stroke-linejoin="round"/>
<path fill-rule="evenodd" clip-rule="evenodd" d="M6.93311 39.3442C6.93311 38.2396 7.82854 37.3442 8.93311 37.3442H17.9122C19.0168 37.3442 19.9122 38.2396 19.9122 39.3442V70C19.9122 71.1046 19.0168 72 17.9122 72H8.93311C7.82854 72 6.93311 71.1046 6.93311 70V39.3442ZM15.4516 46.0781C15.4516 47.0873 14.6334 47.9055 13.6242 47.9055C12.615 47.9055 11.7968 47.0873 11.7968 46.0781C11.7968 45.0689 12.615 44.2507 13.6242 44.2507C14.6334 44.2507 15.4516 45.0689 15.4516 46.0781ZM13.6242 55.187C14.6334 55.187 15.4516 54.3689 15.4516 53.3597C15.4516 52.3504 14.6334 51.5323 13.6242 51.5323C12.615 51.5323 11.7968 52.3504 11.7968 53.3597C11.7968 54.3689 12.615 55.187 13.6242 55.187Z" fill="white"/>
<path d="M59.4429 31.1V51.8H54.0429V31.1H46.8069V26.672H66.6789V31.1H59.4429ZM78.8328 52.232C75.7128 52.232 73.3488 51.368 71.7408 49.64C70.1328 47.912 69.3288 45.56 69.3288 42.584C69.3288 41.072 69.5328 39.716 69.9408 38.516C70.3728 37.292 70.9728 36.26 71.7408 35.42C72.5328 34.556 73.4808 33.908 74.5848 33.476C75.7128 33.02 76.9728 32.792 78.3648 32.792C79.7568 32.792 81.0048 33.02 82.1088 33.476C83.2128 33.908 84.1488 34.532 84.9168 35.348C85.6848 36.164 86.2728 37.16 86.6808 38.336C87.1128 39.488 87.3288 40.784 87.3288 42.224V43.808H74.6208V44.132C74.6208 45.332 74.9928 46.304 75.7368 47.048C76.4808 47.768 77.5728 48.128 79.0128 48.128C80.1168 48.128 81.0648 47.924 81.8568 47.516C82.6488 47.084 83.3328 46.52 83.9088 45.824L86.7888 48.956C86.0688 49.844 85.0608 50.612 83.7648 51.26C82.4688 51.908 80.8248 52.232 78.8328 52.232ZM78.4008 36.608C77.2488 36.608 76.3248 36.968 75.6288 37.688C74.9568 38.384 74.6208 39.332 74.6208 40.532V40.82H82.1088V40.532C82.1088 39.308 81.7728 38.348 81.1008 37.652C80.4528 36.956 79.5528 36.608 78.4008 36.608ZM91.4547 51.8V33.224H96.7827V36.608H96.9987C97.2147 36.08 97.4787 35.588 97.7907 35.132C98.1027 34.676 98.4747 34.28 98.9067 33.944C99.3627 33.584 99.8787 33.308 100.455 33.116C101.055 32.9 101.727 32.792 102.471 32.792C103.359 32.792 104.175 32.948 104.919 33.26C105.663 33.548 106.299 33.992 106.827 34.592C107.355 35.192 107.763 35.924 108.051 36.788C108.363 37.652 108.519 38.648 108.519 39.776V51.8H103.191V40.496C103.191 38.096 102.147 36.896 100.059 36.896C99.6507 36.896 99.2427 36.956 98.8347 37.076C98.4507 37.172 98.1027 37.34 97.7907 37.58C97.4787 37.796 97.2267 38.072 97.0347 38.408C96.8667 38.744 96.7827 39.14 96.7827 39.596V51.8H91.4547ZM124.849 48.416H124.597C124.117 49.544 123.445 50.468 122.581 51.188C121.741 51.884 120.577 52.232 119.089 52.232C118.057 52.232 117.109 52.04 116.245 51.656C115.405 51.272 114.673 50.684 114.049 49.892C113.449 49.1 112.969 48.092 112.609 46.868C112.273 45.644 112.105 44.192 112.105 42.512C112.105 40.832 112.273 39.38 112.609 38.156C112.969 36.932 113.449 35.924 114.049 35.132C114.673 34.34 115.405 33.752 116.245 33.368C117.109 32.984 118.057 32.792 119.089 32.792C119.833 32.792 120.493 32.888 121.069 33.08C121.645 33.272 122.149 33.536 122.581 33.872C123.037 34.208 123.421 34.616 123.733 35.096C124.069 35.552 124.357 36.056 124.597 36.608H124.849V25.16H130.177V51.8H124.849V48.416ZM121.393 48.092C122.329 48.092 123.133 47.864 123.805 47.408C124.501 46.952 124.849 46.232 124.849 45.248V39.776C124.849 38.792 124.501 38.072 123.805 37.616C123.133 37.16 122.329 36.932 121.393 36.932C120.193 36.932 119.269 37.304 118.621 38.048C117.973 38.768 117.649 39.776 117.649 41.072V43.952C117.649 45.248 117.973 46.268 118.621 47.012C119.269 47.732 120.193 48.092 121.393 48.092ZM143.591 52.232C140.471 52.232 138.107 51.368 136.499 49.64C134.891 47.912 134.087 45.56 134.087 42.584C134.087 41.072 134.291 39.716 134.699 38.516C135.131 37.292 135.731 36.26 136.499 35.42C137.291 34.556 138.239 33.908 139.343 33.476C140.471 33.02 141.731 32.792 143.123 32.792C144.515 32.792 145.763 33.02 146.867 33.476C147.971 33.908 148.907 34.532 149.675 35.348C150.443 36.164 151.031 37.16 151.439 38.336C151.871 39.488 152.087 40.784 152.087 42.224V43.808H139.379V44.132C139.379 45.332 139.751 46.304 140.495 47.048C141.239 47.768 142.331 48.128 143.771 48.128C144.875 48.128 145.823 47.924 146.615 47.516C147.407 47.084 148.091 46.52 148.667 45.824L151.547 48.956C150.827 49.844 149.819 50.612 148.523 51.26C147.227 51.908 145.583 52.232 143.591 52.232ZM143.159 36.608C142.007 36.608 141.083 36.968 140.387 37.688C139.715 38.384 139.379 39.332 139.379 40.532V40.82H146.867V40.532C146.867 39.308 146.531 38.348 145.859 37.652C145.211 36.956 144.311 36.608 143.159 36.608ZM156.537 47.66H160.821V37.364H156.537V33.224H166.149V38.48H166.401C166.569 37.808 166.797 37.16 167.085 36.536C167.397 35.888 167.781 35.324 168.237 34.844C168.717 34.34 169.293 33.944 169.965 33.656C170.637 33.368 171.429 33.224 172.341 33.224H174.105V38.12H170.145C168.825 38.12 167.829 38.516 167.157 39.308C166.485 40.076 166.149 41.024 166.149 42.152V47.66H172.269V51.8H156.537V47.66ZM187.41 30.848C186.21 30.848 185.37 30.608 184.89 30.128C184.434 29.624 184.206 29.024 184.206 28.328V27.284C184.206 26.564 184.434 25.964 184.89 25.484C185.37 25.004 186.21 24.764 187.41 24.764C188.61 24.764 189.438 25.004 189.894 25.484C190.374 25.964 190.614 26.564 190.614 27.284V28.328C190.614 29.024 190.374 29.624 189.894 30.128C189.438 30.608 188.61 30.848 187.41 30.848ZM178.842 47.66H184.746V37.364H178.842V33.224H190.074V47.66H195.546V51.8H178.842V47.66ZM199.42 51.8V47.372L209.752 37.364H199.78V33.224H215.908V37.652L205.576 47.66H216.268V51.8H199.42ZM229.934 52.232C226.814 52.232 224.45 51.368 222.842 49.64C221.234 47.912 220.43 45.56 220.43 42.584C220.43 41.072 220.634 39.716 221.042 38.516C221.474 37.292 222.074 36.26 222.842 35.42C223.634 34.556 224.582 33.908 225.686 33.476C226.814 33.02 228.074 32.792 229.466 32.792C230.858 32.792 232.106 33.02 233.21 33.476C234.314 33.908 235.25 34.532 236.018 35.348C236.786 36.164 237.374 37.16 237.782 38.336C238.214 39.488 238.43 40.784 238.43 42.224V43.808H225.722V44.132C225.722 45.332 226.094 46.304 226.838 47.048C227.582 47.768 228.674 48.128 230.114 48.128C231.218 48.128 232.166 47.924 232.958 47.516C233.75 47.084 234.434 46.52 235.01 45.824L237.89 48.956C237.17 49.844 236.162 50.612 234.866 51.26C233.57 51.908 231.926 52.232 229.934 52.232ZM229.502 36.608C228.35 36.608 227.426 36.968 226.73 37.688C226.058 38.384 225.722 39.332 225.722 40.532V40.82H233.21V40.532C233.21 39.308 232.874 38.348 232.202 37.652C231.554 36.956 230.654 36.608 229.502 36.608Z" fill="white"/>
</svg>
