<svg width="67" height="70" xmlns="http://www.w3.org/2000/svg" fill="none">

 <mask fill="black" height="22.6274" width="22.6274" y="47.2737" x="30.845" maskUnits="userSpaceOnUse" id="path-5-outside-1">
  <rect id="svg_1" height="22.6274" width="22.6274" y="47.2737" x="30.845" fill="white"/>
  <path id="svg_2" d="m44.2801,51.5164c0.781,-0.7811 2.0473,-0.7811 2.8284,0l1.5506,1.5507c0.7811,0.781 0.7811,2.0473 0,2.8284l-8.8642,8.8642c-0.7811,0.7811 -2.0474,0.7811 -2.8284,0l-1.5507,-1.5506c-0.7811,-0.7811 -0.7811,-2.0474 0,-2.8285l8.8643,-8.8642zm1.3415,4.4066c-0.3405,0.3405 -0.8926,0.3405 -1.2331,0c-0.3405,-0.3405 -0.3405,-0.8925 0,-1.2331c0.3405,-0.3405 0.8926,-0.3405 1.2331,0c0.3405,0.3406 0.3405,0.8926 0,1.2331zm-3.6899,2.4568c0.3406,0.3405 0.8926,0.3405 1.2331,0c0.3406,-0.3405 0.3406,-0.8926 0,-1.2331c-0.3405,-0.3405 -0.8925,-0.3405 -1.2331,0c-0.3405,0.3405 -0.3405,0.8926 0,1.2331z" clip-rule="evenodd" fill-rule="evenodd"/>
 </mask>
 <g>
  <title>Layer 1</title>
  <circle id="svg_3" fill="#161617" r="30" cy="31" cx="31"/>
  <path id="svg_6" stroke-linejoin="round" stroke-linecap="round" stroke-width="2" stroke="white" fill="#2F3350" d="m45.7444,51.24c-0.3905,0.3905 -0.3905,1.0237 0,1.4142l1.7769,1.777c0.3905,0.3905 1.0237,0.3905 1.4142,0l0.5439,-0.5439l6.7038,-6.7038l0.3475,0.9162c0.1003,0.2645 0.2557,0.5048 0.4558,0.7049l0.596,0.596c0.2225,0.2225 0.5369,0.3273 0.8485,0.2828l1.4276,-0.2039c0.4926,-0.0704 0.8586,-0.4923 0.8586,-0.99l0,-0.2236l0.2236,0c0.2652,0 0.5196,-0.1054 0.7071,-0.2929c0.1876,-0.1876 0.2929,-0.4419 0.2929,-0.7071l0,-0.2237l0.2237,0c0.2652,0 0.5195,-0.1053 0.7071,-0.2929c0.1875,-0.1875 0.2929,-0.4419 0.2929,-0.7071l0,-0.2236l0.2236,0c0.2652,0 0.5196,-0.1054 0.7071,-0.2929c0.1876,-0.1876 0.2929,-0.4419 0.2929,-0.7071l0,-0.8095l-1,0l1,0c0,-0.5304 -0.2107,-1.0391 -0.5858,-1.4142l-0.157,-0.157c-0.3823,-0.3823 -0.8799,-0.5734 -1.3639,-0.6029c-0.3718,-0.0227 -0.9607,-0.0854 -1.5591,-0.2516c-0.6122,-0.1701 -1.1393,-0.4225 -1.4791,-0.7624c-1.0318,-1.0317 -1.0857,-2.4948 -1.0857,-3.4283c0,-0.2653 -0.1053,-0.5196 -0.2928,-0.7071l-0.6893,-0.6893c-0.1098,-0.1098 -0.2436,-0.1925 -0.3909,-0.2416l-1.0338,-0.3446c-0.305,-0.1016 -0.6402,-0.0505 -0.901,0.1374c-0.2608,0.188 -0.4153,0.4898 -0.4153,0.8113l0,0.3785l-0.3785,0c-0.5523,0 -1,0.4477 -1,1l0,0.3785l-0.3785,0c-0.5523,0 -1,0.4477 -1,1l0,0.3785l-0.3785,0c-0.2652,0 -0.5195,0.1053 -0.7071,0.2929c-0.1875,0.1875 -0.2929,0.4419 -0.2929,0.7071l0,1.3785c0,0.2652 0.1054,0.5196 0.2929,0.7071l0.6893,0.6892c0.1097,0.1098 0.2436,0.1925 0.3909,0.2416l1.3512,0.4504l-6.735,6.7351l-0.5438,0.5438z"/>
  <path id="svg_7" fill="#333333" d="m44.2801,51.5164c0.781,-0.7811 2.0473,-0.7811 2.8284,0l1.5506,1.5507c0.7811,0.781 0.7811,2.0473 0,2.8284l-8.8642,8.8642c-0.7811,0.7811 -2.0474,0.7811 -2.8284,0l-1.5507,-1.5506c-0.7811,-0.7811 -0.7811,-2.0474 0,-2.8285l8.8643,-8.8642zm1.3415,4.4066c-0.3405,0.3405 -0.8926,0.3405 -1.2331,0c-0.3405,-0.3405 -0.3405,-0.8925 0,-1.2331c0.3405,-0.3405 0.8926,-0.3405 1.2331,0c0.3405,0.3406 0.3405,0.8926 0,1.2331zm-3.6899,2.4568c0.3406,0.3405 0.8926,0.3405 1.2331,0c0.3406,-0.3405 0.3406,-0.8926 0,-1.2331c-0.3405,-0.3405 -0.8925,-0.3405 -1.2331,0c-0.3405,0.3405 -0.3405,0.8926 0,1.2331z" clip-rule="evenodd" fill-rule="evenodd"/>
  <path id="svg_8" mask="url(#path-5-outside-1)" fill="white" d="m48.5227,50.1022c-1.5621,-1.5621 -4.0948,-1.5621 -5.6569,0l2.8285,2.8284l0,0l2.8284,-2.8284zm1.5507,1.5506l-1.5507,-1.5506l-2.8284,2.8284l1.5506,1.5507l2.8285,-2.8285zm0,5.6569c1.5621,-1.5621 1.5621,-4.0948 0,-5.6569l-2.8285,2.8285l0,0l2.8285,2.8284zm-8.8643,8.8643l8.8643,-8.8643l-2.8285,-2.8284l-8.8642,8.8642l2.8284,2.8285zm-5.6569,0c1.5621,1.562 4.0948,1.562 5.6569,0l-2.8284,-2.8285l0,0l-2.8285,2.8285zm-1.5506,-1.5507l1.5506,1.5507l2.8285,-2.8285l-1.5507,-1.5506l-2.8284,2.8284zm0,-5.6569c-1.5621,1.5621 -1.5621,4.0948 0,5.6569l2.8284,-2.8284l0,0l-2.8284,-2.8285zm8.8642,-8.8642l-8.8642,8.8642l2.8284,2.8285l8.8643,-8.8643l-2.8285,-2.8284zm0.1085,7.235c1.1215,1.1216 2.9399,1.1216 4.0615,0l-2.8284,-2.8284c0.4405,-0.4405 1.1548,-0.4405 1.5953,0l-2.8284,2.8284zm0,-4.0615c-1.1216,1.1216 -1.1216,2.94 0,4.0615l2.8284,-2.8284c0.4405,0.4406 0.4405,1.1548 0,1.5954l-2.8284,-2.8285zm4.0615,0c-1.1216,-1.1215 -2.94,-1.1215 -4.0615,0l2.8284,2.8285c-0.4405,0.4405 -1.1548,0.4405 -1.5953,0l2.8284,-2.8285zm0,4.0615c1.1215,-1.1215 1.1215,-2.9399 0,-4.0615l-2.8284,2.8285c-0.4406,-0.4406 -0.4406,-1.1548 0,-1.5954l2.8284,2.8284zm-5.2852,-0.3716c0.4406,-0.4406 1.1548,-0.4406 1.5954,0l-2.8285,2.8284c1.1216,1.1216 2.94,1.1216 4.0616,0l-2.8285,-2.8284zm0,1.5953c-0.4405,-0.4405 -0.4405,-1.1548 0,-1.5953l2.8285,2.8284c1.1215,-1.1215 1.1215,-2.94 0,-4.0615l-2.8285,2.8284zm1.5954,0c-0.4406,0.4406 -1.1548,0.4406 -1.5954,0l2.8285,-2.8284c-1.1216,-1.1216 -2.94,-1.1216 -4.0616,0l2.8285,2.8284zm0,-1.5953c0.4405,0.4405 0.4405,1.1548 0,1.5953l-2.8285,-2.8284c-1.1215,1.1215 -1.1215,2.94 0,4.0615l2.8285,-2.8284z"/>
  <path id="svg_5" stroke-linejoin="round" stroke-linecap="round" stroke-width="2" stroke="white" d="m61.66964,31.44643c0,-16.5685 -13.4315,-30 -30,-30c-16.5685,0 -30,13.4315 -30,30c0,14.865 10.8114,27.2048 25,29.5852"/>
  <g>
   <g>
    <title>Layer 1</title>
    <g stroke="null" id="svg_9">
     <g stroke="null" id="svg_11">
      <title stroke="null">Layer 1</title>
      <g stroke="null" id="svg_12">
       <g stroke="null" fill="#8247E5" id="svg_13">
        <path stroke="null" class="st0" d="m38.7527,24.5183c-0.59537,-0.34021 -1.36085,-0.34021 -2.04127,0l-4.76296,2.80675l-3.23201,1.78611l-4.67791,2.80675c-0.59537,0.34021 -1.36085,0.34021 -2.04127,0l-3.65727,-2.21138c-0.59537,-0.34021 -1.02063,-1.02063 -1.02063,-1.78611l0,-4.25265c0,-0.68042 0.34021,-1.36085 1.02063,-1.78611l3.65727,-2.12632c0.59537,-0.34021 1.36085,-0.34021 2.04127,0l3.65727,2.21138c0.59537,0.34021 1.02063,1.02063 1.02063,1.78611l0,2.80675l3.23201,-1.87116l0,-2.8918c0,-0.68042 -0.34021,-1.36085 -1.02063,-1.78611l-6.80423,-3.99749c-0.59537,-0.34021 -1.36085,-0.34021 -2.04127,0l-6.97434,4.08254c-0.68042,0.34021 -1.02063,1.02063 -1.02063,1.70106l0,7.99497c0,0.68042 0.34021,1.36085 1.02063,1.78611l6.88929,3.99749c0.59537,0.34021 1.36085,0.34021 2.04127,0l4.67791,-2.72169l3.23201,-1.87116l4.67791,-2.72169c0.59537,-0.34021 1.36085,-0.34021 2.04127,0l3.65728,2.12632c0.59537,0.34021 1.02063,1.02063 1.02063,1.78611l0,4.25265c0,0.68042 -0.34021,1.36085 -1.02063,1.78611l-3.57222,2.12632c-0.59537,0.34021 -1.36085,0.34021 -2.04127,0l-3.65727,-2.12632c-0.59537,-0.34021 -1.02064,-1.02063 -1.02064,-1.78611l0,-2.72169l-3.23201,1.87116l0,2.80675c0,0.68042 0.34021,1.36085 1.02064,1.78611l6.88929,3.99749c0.59537,0.34021 1.36085,0.34021 2.04127,0l6.88929,-3.99749c0.59537,-0.34021 1.02063,-1.02064 1.02063,-1.78611l0,-8.08003c0,-0.68042 -0.34021,-1.36085 -1.02063,-1.78611l-6.88929,-3.99749l-0.00002,-0.00002z" fill="#ffffff" id="svg_14"/>
       </g>
      </g>
     </g>
     <g id="svg_10"/>
    </g>
   </g>
  </g>
 </g>
</svg>